<?xml version="1.0" encoding="utf-8" standalone="no"?>
<!DOCTYPE svg PUBLIC "-//W3C//DTD SVG 1.1//EN"
  "http://www.w3.org/Graphics/SVG/1.1/DTD/svg11.dtd">
<!-- Created with matplotlib (https://matplotlib.org/) -->
<svg height="432pt" version="1.1" viewBox="0 0 864 432" width="864pt" xmlns="http://www.w3.org/2000/svg" xmlns:xlink="http://www.w3.org/1999/xlink">
 <metadata>
  <rdf:RDF xmlns:cc="http://creativecommons.org/ns#" xmlns:dc="http://purl.org/dc/elements/1.1/" xmlns:rdf="http://www.w3.org/1999/02/22-rdf-syntax-ns#">
   <cc:Work>
    <dc:type rdf:resource="http://purl.org/dc/dcmitype/StillImage"/>
    <dc:date>2022-06-27T15:07:59.989338</dc:date>
    <dc:format>image/svg+xml</dc:format>
    <dc:creator>
     <cc:Agent>
      <dc:title>Matplotlib v3.3.4, https://matplotlib.org/</dc:title>
     </cc:Agent>
    </dc:creator>
   </cc:Work>
  </rdf:RDF>
 </metadata>
 <defs>
  <style type="text/css">*{stroke-linecap:butt;stroke-linejoin:round;}</style>
 </defs>
 <g id="figure_1">
  <g id="patch_1">
   <path d="M 0 432 
L 864 432 
L 864 0 
L 0 0 
z
" style="fill:none;"/>
  </g>
  <g id="axes_1">
   <g id="patch_2">
    <path d="M 108 378 
L 777.6 378 
L 777.6 51.84 
L 108 51.84 
z
" style="fill:#ffffff;"/>
   </g>
   <g id="PolyCollection_1">
    <defs>
     <path d="M 138.436364 -326.896636 
L 138.436364 -249.264259 
L 144.585124 -249.520483 
L 150.733884 -249.773364 
L 156.882645 -250.022881 
L 163.031405 -250.269009 
L 169.180165 -250.511725 
L 175.328926 -250.751008 
L 181.477686 -250.986836 
L 187.626446 -251.219188 
L 193.775207 -251.448044 
L 199.923967 -251.673384 
L 206.072727 -251.895191 
L 212.221488 -252.113445 
L 218.370248 -252.328129 
L 224.519008 -252.539229 
L 230.667769 -252.746727 
L 236.816529 -252.950609 
L 242.965289 -253.150863 
L 249.11405 -253.347474 
L 255.26281 -253.540431 
L 261.41157 -253.729722 
L 267.560331 -253.915339 
L 273.709091 -254.097271 
L 279.857851 -254.275511 
L 286.006612 -254.450051 
L 292.155372 -254.620885 
L 298.304132 -254.788009 
L 304.452893 -254.951417 
L 310.601653 -255.111107 
L 316.750413 -255.267077 
L 322.899174 -255.419325 
L 329.047934 -255.567852 
L 335.196694 -255.712657 
L 341.345455 -255.853744 
L 347.494215 -255.991115 
L 353.642975 -256.124775 
L 359.791736 -256.254727 
L 365.940496 -256.380978 
L 372.089256 -256.503535 
L 378.238017 -256.622407 
L 384.386777 -256.737601 
L 390.535537 -256.849127 
L 396.684298 -256.956997 
L 402.833058 -257.061223 
L 408.981818 -257.161816 
L 415.130579 -257.25879 
L 421.279339 -257.35216 
L 427.428099 -257.441941 
L 433.57686 -257.528149 
L 439.72562 -257.610801 
L 445.87438 -257.689915 
L 452.02314 -257.765509 
L 458.171901 -257.837602 
L 464.320661 -257.906214 
L 470.469421 -257.971366 
L 476.618182 -258.033079 
L 482.766942 -258.091375 
L 488.915702 -258.146277 
L 495.064463 -258.197808 
L 501.213223 -258.245991 
L 507.361983 -258.290851 
L 513.510744 -258.332412 
L 519.659504 -258.3707 
L 525.808264 -258.405741 
L 531.957025 -258.43756 
L 538.105785 -258.466185 
L 544.254545 -258.491641 
L 550.403306 -258.513958 
L 556.552066 -258.533161 
L 562.700826 -258.549279 
L 568.849587 -258.562341 
L 574.998347 -258.572374 
L 581.147107 -258.579408 
L 587.295868 -258.583472 
L 593.444628 -258.584593 
L 599.593388 -258.582803 
L 605.742149 -258.578129 
L 611.890909 -258.570602 
L 618.039669 -258.560251 
L 624.18843 -258.547106 
L 630.33719 -258.531196 
L 636.48595 -258.512551 
L 642.634711 -258.491202 
L 648.783471 -258.467177 
L 654.932231 -258.440506 
L 661.080992 -258.41122 
L 667.229752 -258.379347 
L 673.378512 -258.344918 
L 679.527273 -258.307961 
L 685.676033 -258.268506 
L 691.824793 -258.226583 
L 697.973554 -258.18222 
L 704.122314 -258.135447 
L 710.271074 -258.086291 
L 716.419835 -258.034783 
L 722.568595 -257.98095 
L 728.717355 -257.924821 
L 734.866116 -257.866423 
L 741.014876 -257.805785 
L 747.163636 -257.742934 
L 747.163636 -347.881122 
L 747.163636 -347.881122 
L 741.014876 -347.53729 
L 734.866116 -347.195321 
L 728.717355 -346.855243 
L 722.568595 -346.517086 
L 716.419835 -346.180876 
L 710.271074 -345.846643 
L 704.122314 -345.514415 
L 697.973554 -345.184222 
L 691.824793 -344.856093 
L 685.676033 -344.530056 
L 679.527273 -344.206142 
L 673.378512 -343.884379 
L 667.229752 -343.564798 
L 661.080992 -343.247428 
L 654.932231 -342.932298 
L 648.783471 -342.61944 
L 642.634711 -342.308883 
L 636.48595 -342.000657 
L 630.33719 -341.694791 
L 624.18843 -341.391317 
L 618.039669 -341.090264 
L 611.890909 -340.791662 
L 605.742149 -340.495541 
L 599.593388 -340.201931 
L 593.444628 -339.910861 
L 587.295868 -339.622362 
L 581.147107 -339.336463 
L 574.998347 -339.053193 
L 568.849587 -338.772582 
L 562.700826 -338.494658 
L 556.552066 -338.21945 
L 550.403306 -337.946988 
L 544.254545 -337.677298 
L 538.105785 -337.410409 
L 531.957025 -337.146349 
L 525.808264 -336.885145 
L 519.659504 -336.626824 
L 513.510744 -336.371412 
L 507.361983 -336.118935 
L 501.213223 -335.869418 
L 495.064463 -335.622888 
L 488.915702 -335.379368 
L 482.766942 -335.138883 
L 476.618182 -334.901456 
L 470.469421 -334.667109 
L 464.320661 -334.435866 
L 458.171901 -334.207747 
L 452.02314 -333.982774 
L 445.87438 -333.760967 
L 439.72562 -333.542345 
L 433.57686 -333.326927 
L 427.428099 -333.114732 
L 421.279339 -332.905776 
L 415.130579 -332.700075 
L 408.981818 -332.497646 
L 402.833058 -332.298503 
L 396.684298 -332.10266 
L 390.535537 -331.910129 
L 384.386777 -331.720924 
L 378.238017 -331.535054 
L 372.089256 -331.35253 
L 365.940496 -331.173362 
L 359.791736 -330.997557 
L 353.642975 -330.825124 
L 347.494215 -330.656067 
L 341.345455 -330.490392 
L 335.196694 -330.328105 
L 329.047934 -330.169207 
L 322.899174 -330.013701 
L 316.750413 -329.861589 
L 310.601653 -329.712871 
L 304.452893 -329.567545 
L 298.304132 -329.42561 
L 292.155372 -329.287064 
L 286.006612 -329.151902 
L 279.857851 -329.020119 
L 273.709091 -328.89171 
L 267.560331 -328.766668 
L 261.41157 -328.644985 
L 255.26281 -328.526652 
L 249.11405 -328.411659 
L 242.965289 -328.299996 
L 236.816529 -328.191652 
L 230.667769 -328.086613 
L 224.519008 -327.984866 
L 218.370248 -327.886398 
L 212.221488 -327.791192 
L 206.072727 -327.699233 
L 199.923967 -327.610504 
L 193.775207 -327.524987 
L 187.626446 -327.442665 
L 181.477686 -327.363517 
L 175.328926 -327.287525 
L 169.180165 -327.214668 
L 163.031405 -327.144923 
L 156.882645 -327.078271 
L 150.733884 -327.014688 
L 144.585124 -326.954151 
L 138.436364 -326.896636 
z
" id="mffc1a9e0c1" style="stroke:#a2d2ff;stroke-opacity:0.25;"/>
    </defs>
    <g clip-path="url(#pf73215ec87)">
     <use style="fill:#a2d2ff;fill-opacity:0.25;stroke:#a2d2ff;stroke-opacity:0.25;" x="0" xlink:href="#mffc1a9e0c1" y="432"/>
    </g>
   </g>
   <g id="PathCollection_1">
    <defs>
     <path d="M 0 3 
C 0.795609 3 1.55874 2.683901 2.12132 2.12132 
C 2.683901 1.55874 3 0.795609 3 0 
C 3 -0.795609 2.683901 -1.55874 2.12132 -2.12132 
C 1.55874 -2.683901 0.795609 -3 0 -3 
C -0.795609 -3 -1.55874 -2.683901 -2.12132 -2.12132 
C -2.683901 -1.55874 -3 -0.795609 -3 0 
C -3 0.795609 -2.683901 1.55874 -2.12132 2.12132 
C -1.55874 2.683901 -0.795609 3 0 3 
z
" id="ma7cfae8be9" style="stroke:#1f77b4;"/>
    </defs>
    <g clip-path="url(#pf73215ec87)">
     <use style="fill:#1f77b4;stroke:#1f77b4;" x="327.141818" xlink:href="#ma7cfae8be9" y="116.397186"/>
     <use style="fill:#1f77b4;stroke:#1f77b4;" x="369.752727" xlink:href="#ma7cfae8be9" y="105.51837"/>
     <use style="fill:#1f77b4;stroke:#1f77b4;" x="266.269091" xlink:href="#ma7cfae8be9" y="109.60815"/>
     <use style="fill:#1f77b4;stroke:#1f77b4;" x="217.570909" xlink:href="#ma7cfae8be9" y="193.448652"/>
     <use style="fill:#1f77b4;stroke:#1f77b4;" x="296.705455" xlink:href="#ma7cfae8be9" y="80.979687"/>
     <use style="fill:#1f77b4;stroke:#1f77b4;" x="144.523636" xlink:href="#ma7cfae8be9" y="363.174545"/>
     <use style="fill:#1f77b4;stroke:#1f77b4;" x="515.847273" xlink:href="#ma7cfae8be9" y="107.56326"/>
     <use style="fill:#1f77b4;stroke:#1f77b4;" x="436.712727" xlink:href="#ma7cfae8be9" y="89.159248"/>
     <use style="fill:#1f77b4;stroke:#1f77b4;" x="461.061818" xlink:href="#ma7cfae8be9" y="99.383699"/>
     <use style="fill:#1f77b4;stroke:#1f77b4;" x="260.181818" xlink:href="#ma7cfae8be9" y="68.54933"/>
     <use style="fill:#1f77b4;stroke:#1f77b4;" x="491.498182" xlink:href="#ma7cfae8be9" y="97.338809"/>
     <use style="fill:#1f77b4;stroke:#1f77b4;" x="229.745455" xlink:href="#ma7cfae8be9" y="142.326395"/>
     <use style="fill:#1f77b4;stroke:#1f77b4;" x="168.872727" xlink:href="#ma7cfae8be9" y="240.481129"/>
     <use style="fill:#1f77b4;stroke:#1f77b4;" x="375.84" xlink:href="#ma7cfae8be9" y="102.410137"/>
     <use style="fill:#1f77b4;stroke:#1f77b4;" x="424.538182" xlink:href="#ma7cfae8be9" y="83.024577"/>
     <use style="fill:#1f77b4;stroke:#1f77b4;" x="138.436364" xlink:href="#ma7cfae8be9" y="359.084765"/>
     <use style="fill:#1f77b4;stroke:#1f77b4;" x="272.356364" xlink:href="#ma7cfae8be9" y="97.338809"/>
     <use style="fill:#1f77b4;stroke:#1f77b4;" x="254.094545" xlink:href="#ma7cfae8be9" y="117.787712"/>
     <use style="fill:#1f77b4;stroke:#1f77b4;" x="241.92" xlink:href="#ma7cfae8be9" y="103.47348"/>
     <use style="fill:#1f77b4;stroke:#1f77b4;" x="400.189091" xlink:href="#ma7cfae8be9" y="91.204138"/>
     <use style="fill:#1f77b4;stroke:#1f77b4;" x="144.523636" xlink:href="#ma7cfae8be9" y="334.546082"/>
     <use style="fill:#1f77b4;stroke:#1f77b4;" x="345.403636" xlink:href="#ma7cfae8be9" y="89.159248"/>
     <use style="fill:#1f77b4;stroke:#1f77b4;" x="381.927273" xlink:href="#ma7cfae8be9" y="105.51837"/>
     <use style="fill:#1f77b4;stroke:#1f77b4;" x="588.285818" xlink:href="#ma7cfae8be9" y="85.069467"/>
     <use style="fill:#1f77b4;stroke:#1f77b4;" x="448.887273" xlink:href="#ma7cfae8be9" y="83.024577"/>
     <use style="fill:#1f77b4;stroke:#1f77b4;" x="278.443636" xlink:href="#ma7cfae8be9" y="134.146834"/>
     <use style="fill:#1f77b4;stroke:#1f77b4;" x="485.410909" xlink:href="#ma7cfae8be9" y="119.832602"/>
     <use style="fill:#1f77b4;stroke:#1f77b4;" x="211.483636" xlink:href="#ma7cfae8be9" y="170.954859"/>
     <use style="fill:#1f77b4;stroke:#1f77b4;" x="314.967273" xlink:href="#ma7cfae8be9" y="76.889906"/>
     <use style="fill:#1f77b4;stroke:#1f77b4;" x="211.483636" xlink:href="#ma7cfae8be9" y="109.60815"/>
     <use style="fill:#1f77b4;stroke:#1f77b4;" x="248.007273" xlink:href="#ma7cfae8be9" y="117.787712"/>
     <use style="fill:#1f77b4;stroke:#1f77b4;" x="643.68" xlink:href="#ma7cfae8be9" y="66.665455"/>
     <use style="fill:#1f77b4;stroke:#1f77b4;" x="394.101818" xlink:href="#ma7cfae8be9" y="111.653041"/>
     <use style="fill:#1f77b4;stroke:#1f77b4;" x="442.8" xlink:href="#ma7cfae8be9" y="83.024577"/>
     <use style="fill:#1f77b4;stroke:#1f77b4;" x="211.483636" xlink:href="#ma7cfae8be9" y="136.191724"/>
     <use style="fill:#1f77b4;stroke:#1f77b4;" x="156.698182" xlink:href="#ma7cfae8be9" y="269.109592"/>
     <use style="fill:#1f77b4;stroke:#1f77b4;" x="461.061818" xlink:href="#ma7cfae8be9" y="109.60815"/>
     <use style="fill:#1f77b4;stroke:#1f77b4;" x="400.189091" xlink:href="#ma7cfae8be9" y="74.845016"/>
     <use style="fill:#1f77b4;stroke:#1f77b4;" x="272.356364" xlink:href="#ma7cfae8be9" y="105.51837"/>
     <use style="fill:#1f77b4;stroke:#1f77b4;" x="241.92" xlink:href="#ma7cfae8be9" y="103.47348"/>
     <use style="fill:#1f77b4;stroke:#1f77b4;" x="467.149091" xlink:href="#ma7cfae8be9" y="85.069467"/>
     <use style="fill:#1f77b4;stroke:#1f77b4;" x="168.872727" xlink:href="#ma7cfae8be9" y="265.019812"/>
     <use style="fill:#1f77b4;stroke:#1f77b4;" x="357.578182" xlink:href="#ma7cfae8be9" y="103.47348"/>
     <use style="fill:#1f77b4;stroke:#1f77b4;" x="254.094545" xlink:href="#ma7cfae8be9" y="103.47348"/>
     <use style="fill:#1f77b4;stroke:#1f77b4;" x="473.236364" xlink:href="#ma7cfae8be9" y="95.293918"/>
     <use style="fill:#1f77b4;stroke:#1f77b4;" x="162.785455" xlink:href="#ma7cfae8be9" y="285.468715"/>
     <use style="fill:#1f77b4;stroke:#1f77b4;" x="412.363636" xlink:href="#ma7cfae8be9" y="99.383699"/>
     <use style="fill:#1f77b4;stroke:#1f77b4;" x="424.538182" xlink:href="#ma7cfae8be9" y="99.383699"/>
     <use style="fill:#1f77b4;stroke:#1f77b4;" x="162.785455" xlink:href="#ma7cfae8be9" y="252.75047"/>
     <use style="fill:#1f77b4;stroke:#1f77b4;" x="619.330909" xlink:href="#ma7cfae8be9" y="87.114357"/>
     <use style="fill:#1f77b4;stroke:#1f77b4;" x="156.698182" xlink:href="#ma7cfae8be9" y="287.513605"/>
     <use style="fill:#1f77b4;stroke:#1f77b4;" x="531.065455" xlink:href="#ma7cfae8be9" y="115.742821"/>
     <use style="fill:#1f77b4;stroke:#1f77b4;" x="174.96" xlink:href="#ma7cfae8be9" y="222.077116"/>
     <use style="fill:#1f77b4;stroke:#1f77b4;" x="168.872727" xlink:href="#ma7cfae8be9" y="281.378934"/>
     <use style="fill:#1f77b4;stroke:#1f77b4;" x="582.807273" xlink:href="#ma7cfae8be9" y="113.697931"/>
     <use style="fill:#1f77b4;stroke:#1f77b4;" x="187.134545" xlink:href="#ma7cfae8be9" y="187.313981"/>
     <use style="fill:#1f77b4;stroke:#1f77b4;" x="266.269091" xlink:href="#ma7cfae8be9" y="89.159248"/>
     <use style="fill:#1f77b4;stroke:#1f77b4;" x="235.832727" xlink:href="#ma7cfae8be9" y="101.428589"/>
    </g>
   </g>
   <g id="matplotlib.axis_1">
    <g id="xtick_1">
     <g id="line2d_1">
      <defs>
       <path d="M 0 0 
L 0 3.5 
" id="m443af99e41" style="stroke:#000000;stroke-width:0.8;"/>
      </defs>
      <g>
       <use style="stroke:#000000;stroke-width:0.8;" x="138.436364" xlink:href="#m443af99e41" y="378"/>
      </g>
     </g>
     <g id="text_1">
      <!-- 0 -->
      <g transform="translate(132.073864 400.196875)scale(0.2 -0.2)">
       <defs>
        <path d="M 31.78125 66.40625 
Q 24.171875 66.40625 20.328125 58.90625 
Q 16.5 51.421875 16.5 36.375 
Q 16.5 21.390625 20.328125 13.890625 
Q 24.171875 6.390625 31.78125 6.390625 
Q 39.453125 6.390625 43.28125 13.890625 
Q 47.125 21.390625 47.125 36.375 
Q 47.125 51.421875 43.28125 58.90625 
Q 39.453125 66.40625 31.78125 66.40625 
z
M 31.78125 74.21875 
Q 44.046875 74.21875 50.515625 64.515625 
Q 56.984375 54.828125 56.984375 36.375 
Q 56.984375 17.96875 50.515625 8.265625 
Q 44.046875 -1.421875 31.78125 -1.421875 
Q 19.53125 -1.421875 13.0625 8.265625 
Q 6.59375 17.96875 6.59375 36.375 
Q 6.59375 54.828125 13.0625 64.515625 
Q 19.53125 74.21875 31.78125 74.21875 
z
" id="DejaVuSans-48"/>
       </defs>
       <use xlink:href="#DejaVuSans-48"/>
      </g>
     </g>
    </g>
    <g id="xtick_2">
     <g id="line2d_2">
      <g>
       <use style="stroke:#000000;stroke-width:0.8;" x="260.181818" xlink:href="#m443af99e41" y="378"/>
      </g>
     </g>
     <g id="text_2">
      <!-- 20 -->
      <g transform="translate(247.456818 400.196875)scale(0.2 -0.2)">
       <defs>
        <path d="M 19.1875 8.296875 
L 53.609375 8.296875 
L 53.609375 0 
L 7.328125 0 
L 7.328125 8.296875 
Q 12.9375 14.109375 22.625 23.890625 
Q 32.328125 33.6875 34.8125 36.53125 
Q 39.546875 41.84375 41.421875 45.53125 
Q 43.3125 49.21875 43.3125 52.78125 
Q 43.3125 58.59375 39.234375 62.25 
Q 35.15625 65.921875 28.609375 65.921875 
Q 23.96875 65.921875 18.8125 64.3125 
Q 13.671875 62.703125 7.8125 59.421875 
L 7.8125 69.390625 
Q 13.765625 71.78125 18.9375 73 
Q 24.125 74.21875 28.421875 74.21875 
Q 39.75 74.21875 46.484375 68.546875 
Q 53.21875 62.890625 53.21875 53.421875 
Q 53.21875 48.921875 51.53125 44.890625 
Q 49.859375 40.875 45.40625 35.40625 
Q 44.1875 33.984375 37.640625 27.21875 
Q 31.109375 20.453125 19.1875 8.296875 
z
" id="DejaVuSans-50"/>
       </defs>
       <use xlink:href="#DejaVuSans-50"/>
       <use x="63.623047" xlink:href="#DejaVuSans-48"/>
      </g>
     </g>
    </g>
    <g id="xtick_3">
     <g id="line2d_3">
      <g>
       <use style="stroke:#000000;stroke-width:0.8;" x="381.927273" xlink:href="#m443af99e41" y="378"/>
      </g>
     </g>
     <g id="text_3">
      <!-- 40 -->
      <g transform="translate(369.202273 400.196875)scale(0.2 -0.2)">
       <defs>
        <path d="M 37.796875 64.3125 
L 12.890625 25.390625 
L 37.796875 25.390625 
z
M 35.203125 72.90625 
L 47.609375 72.90625 
L 47.609375 25.390625 
L 58.015625 25.390625 
L 58.015625 17.1875 
L 47.609375 17.1875 
L 47.609375 0 
L 37.796875 0 
L 37.796875 17.1875 
L 4.890625 17.1875 
L 4.890625 26.703125 
z
" id="DejaVuSans-52"/>
       </defs>
       <use xlink:href="#DejaVuSans-52"/>
       <use x="63.623047" xlink:href="#DejaVuSans-48"/>
      </g>
     </g>
    </g>
    <g id="xtick_4">
     <g id="line2d_4">
      <g>
       <use style="stroke:#000000;stroke-width:0.8;" x="503.672727" xlink:href="#m443af99e41" y="378"/>
      </g>
     </g>
     <g id="text_4">
      <!-- 60 -->
      <g transform="translate(490.947727 400.196875)scale(0.2 -0.2)">
       <defs>
        <path d="M 33.015625 40.375 
Q 26.375 40.375 22.484375 35.828125 
Q 18.609375 31.296875 18.609375 23.390625 
Q 18.609375 15.53125 22.484375 10.953125 
Q 26.375 6.390625 33.015625 6.390625 
Q 39.65625 6.390625 43.53125 10.953125 
Q 47.40625 15.53125 47.40625 23.390625 
Q 47.40625 31.296875 43.53125 35.828125 
Q 39.65625 40.375 33.015625 40.375 
z
M 52.59375 71.296875 
L 52.59375 62.3125 
Q 48.875 64.0625 45.09375 64.984375 
Q 41.3125 65.921875 37.59375 65.921875 
Q 27.828125 65.921875 22.671875 59.328125 
Q 17.53125 52.734375 16.796875 39.40625 
Q 19.671875 43.65625 24.015625 45.921875 
Q 28.375 48.1875 33.59375 48.1875 
Q 44.578125 48.1875 50.953125 41.515625 
Q 57.328125 34.859375 57.328125 23.390625 
Q 57.328125 12.15625 50.6875 5.359375 
Q 44.046875 -1.421875 33.015625 -1.421875 
Q 20.359375 -1.421875 13.671875 8.265625 
Q 6.984375 17.96875 6.984375 36.375 
Q 6.984375 53.65625 15.1875 63.9375 
Q 23.390625 74.21875 37.203125 74.21875 
Q 40.921875 74.21875 44.703125 73.484375 
Q 48.484375 72.75 52.59375 71.296875 
z
" id="DejaVuSans-54"/>
       </defs>
       <use xlink:href="#DejaVuSans-54"/>
       <use x="63.623047" xlink:href="#DejaVuSans-48"/>
      </g>
     </g>
    </g>
    <g id="xtick_5">
     <g id="line2d_5">
      <g>
       <use style="stroke:#000000;stroke-width:0.8;" x="625.418182" xlink:href="#m443af99e41" y="378"/>
      </g>
     </g>
     <g id="text_5">
      <!-- 80 -->
      <g transform="translate(612.693182 400.196875)scale(0.2 -0.2)">
       <defs>
        <path d="M 31.78125 34.625 
Q 24.75 34.625 20.71875 30.859375 
Q 16.703125 27.09375 16.703125 20.515625 
Q 16.703125 13.921875 20.71875 10.15625 
Q 24.75 6.390625 31.78125 6.390625 
Q 38.8125 6.390625 42.859375 10.171875 
Q 46.921875 13.96875 46.921875 20.515625 
Q 46.921875 27.09375 42.890625 30.859375 
Q 38.875 34.625 31.78125 34.625 
z
M 21.921875 38.8125 
Q 15.578125 40.375 12.03125 44.71875 
Q 8.5 49.078125 8.5 55.328125 
Q 8.5 64.0625 14.71875 69.140625 
Q 20.953125 74.21875 31.78125 74.21875 
Q 42.671875 74.21875 48.875 69.140625 
Q 55.078125 64.0625 55.078125 55.328125 
Q 55.078125 49.078125 51.53125 44.71875 
Q 48 40.375 41.703125 38.8125 
Q 48.828125 37.15625 52.796875 32.3125 
Q 56.78125 27.484375 56.78125 20.515625 
Q 56.78125 9.90625 50.3125 4.234375 
Q 43.84375 -1.421875 31.78125 -1.421875 
Q 19.734375 -1.421875 13.25 4.234375 
Q 6.78125 9.90625 6.78125 20.515625 
Q 6.78125 27.484375 10.78125 32.3125 
Q 14.796875 37.15625 21.921875 38.8125 
z
M 18.3125 54.390625 
Q 18.3125 48.734375 21.84375 45.5625 
Q 25.390625 42.390625 31.78125 42.390625 
Q 38.140625 42.390625 41.71875 45.5625 
Q 45.3125 48.734375 45.3125 54.390625 
Q 45.3125 60.0625 41.71875 63.234375 
Q 38.140625 66.40625 31.78125 66.40625 
Q 25.390625 66.40625 21.84375 63.234375 
Q 18.3125 60.0625 18.3125 54.390625 
z
" id="DejaVuSans-56"/>
       </defs>
       <use xlink:href="#DejaVuSans-56"/>
       <use x="63.623047" xlink:href="#DejaVuSans-48"/>
      </g>
     </g>
    </g>
    <g id="xtick_6">
     <g id="line2d_6">
      <g>
       <use style="stroke:#000000;stroke-width:0.8;" x="747.163636" xlink:href="#m443af99e41" y="378"/>
      </g>
     </g>
     <g id="text_6">
      <!-- 100 -->
      <g transform="translate(728.076136 400.196875)scale(0.2 -0.2)">
       <defs>
        <path d="M 12.40625 8.296875 
L 28.515625 8.296875 
L 28.515625 63.921875 
L 10.984375 60.40625 
L 10.984375 69.390625 
L 28.421875 72.90625 
L 38.28125 72.90625 
L 38.28125 8.296875 
L 54.390625 8.296875 
L 54.390625 0 
L 12.40625 0 
z
" id="DejaVuSans-49"/>
       </defs>
       <use xlink:href="#DejaVuSans-49"/>
       <use x="63.623047" xlink:href="#DejaVuSans-48"/>
       <use x="127.246094" xlink:href="#DejaVuSans-48"/>
      </g>
     </g>
    </g>
   </g>
   <g id="matplotlib.axis_2">
    <g id="ytick_1">
     <g id="line2d_7">
      <defs>
       <path d="M 0 0 
L -3.5 0 
" id="m60305876a2" style="stroke:#000000;stroke-width:0.8;"/>
      </defs>
      <g>
       <use style="stroke:#000000;stroke-width:0.8;" x="108" xlink:href="#m60305876a2" y="322.308943"/>
      </g>
     </g>
     <g id="text_7">
      <!-- 80 -->
      <g transform="translate(75.55 329.90738)scale(0.2 -0.2)">
       <use xlink:href="#DejaVuSans-56"/>
       <use x="63.623047" xlink:href="#DejaVuSans-48"/>
      </g>
     </g>
    </g>
    <g id="ytick_2">
     <g id="line2d_8">
      <g>
       <use style="stroke:#000000;stroke-width:0.8;" x="108" xlink:href="#m60305876a2" y="257.90295"/>
      </g>
     </g>
     <g id="text_8">
      <!-- 100 -->
      <g transform="translate(62.825 265.501387)scale(0.2 -0.2)">
       <use xlink:href="#DejaVuSans-49"/>
       <use x="63.623047" xlink:href="#DejaVuSans-48"/>
       <use x="127.246094" xlink:href="#DejaVuSans-48"/>
      </g>
     </g>
    </g>
    <g id="ytick_3">
     <g id="line2d_9">
      <g>
       <use style="stroke:#000000;stroke-width:0.8;" x="108" xlink:href="#m60305876a2" y="193.496957"/>
      </g>
     </g>
     <g id="text_9">
      <!-- 120 -->
      <g transform="translate(62.825 201.095394)scale(0.2 -0.2)">
       <use xlink:href="#DejaVuSans-49"/>
       <use x="63.623047" xlink:href="#DejaVuSans-50"/>
       <use x="127.246094" xlink:href="#DejaVuSans-48"/>
      </g>
     </g>
    </g>
    <g id="ytick_4">
     <g id="line2d_10">
      <g>
       <use style="stroke:#000000;stroke-width:0.8;" x="108" xlink:href="#m60305876a2" y="129.090963"/>
      </g>
     </g>
     <g id="text_10">
      <!-- 140 -->
      <g transform="translate(62.825 136.689401)scale(0.2 -0.2)">
       <use xlink:href="#DejaVuSans-49"/>
       <use x="63.623047" xlink:href="#DejaVuSans-52"/>
       <use x="127.246094" xlink:href="#DejaVuSans-48"/>
      </g>
     </g>
    </g>
    <g id="ytick_5">
     <g id="line2d_11">
      <g>
       <use style="stroke:#000000;stroke-width:0.8;" x="108" xlink:href="#m60305876a2" y="64.68497"/>
      </g>
     </g>
     <g id="text_11">
      <!-- 160 -->
      <g transform="translate(62.825 72.283408)scale(0.2 -0.2)">
       <use xlink:href="#DejaVuSans-49"/>
       <use x="63.623047" xlink:href="#DejaVuSans-54"/>
       <use x="127.246094" xlink:href="#DejaVuSans-48"/>
      </g>
     </g>
    </g>
   </g>
   <g id="line2d_12">
    <path clip-path="url(#pf73215ec87)" d="M 138.436364 143.919552 
L 144.585124 143.762683 
L 150.733884 143.605974 
L 156.882645 143.449424 
L 163.031405 143.293034 
L 169.180165 143.136804 
L 175.328926 142.980733 
L 181.477686 142.824823 
L 187.626446 142.669073 
L 193.775207 142.513484 
L 199.923967 142.358056 
L 206.072727 142.202788 
L 212.221488 142.047682 
L 218.370248 141.892737 
L 224.519008 141.737953 
L 230.667769 141.58333 
L 236.816529 141.428869 
L 242.965289 141.27457 
L 249.11405 141.120434 
L 255.26281 140.966459 
L 261.41157 140.812646 
L 267.560331 140.658997 
L 273.709091 140.505509 
L 279.857851 140.352185 
L 286.006612 140.199024 
L 292.155372 140.046025 
L 298.304132 139.89319 
L 304.452893 139.740519 
L 310.601653 139.588011 
L 316.750413 139.435667 
L 322.899174 139.283487 
L 329.047934 139.131471 
L 335.196694 138.979619 
L 341.345455 138.827932 
L 347.494215 138.676409 
L 353.642975 138.525051 
L 359.791736 138.373858 
L 365.940496 138.22283 
L 372.089256 138.071967 
L 378.238017 137.92127 
L 384.386777 137.770738 
L 390.535537 137.620372 
L 396.684298 137.470171 
L 402.833058 137.320137 
L 408.981818 137.170269 
L 415.130579 137.020567 
L 421.279339 136.871032 
L 427.428099 136.721663 
L 433.57686 136.572462 
L 439.72562 136.423427 
L 445.87438 136.274559 
L 452.02314 136.125859 
L 458.171901 135.977325 
L 464.320661 135.82896 
L 470.469421 135.680762 
L 476.618182 135.532733 
L 482.766942 135.384871 
L 488.915702 135.237177 
L 495.064463 135.089652 
L 501.213223 134.942295 
L 507.361983 134.795107 
L 513.510744 134.648088 
L 519.659504 134.501238 
L 525.808264 134.354557 
L 531.957025 134.208045 
L 538.105785 134.061703 
L 544.254545 133.91553 
L 550.403306 133.769527 
L 556.552066 133.623694 
L 562.700826 133.478031 
L 568.849587 133.332539 
L 574.998347 133.187216 
L 581.147107 133.042064 
L 587.295868 132.897083 
L 593.444628 132.752273 
L 599.593388 132.607633 
L 605.742149 132.463165 
L 611.890909 132.318868 
L 618.039669 132.174743 
L 624.18843 132.030789 
L 630.33719 131.887006 
L 636.48595 131.743396 
L 642.634711 131.599958 
L 648.783471 131.456691 
L 654.932231 131.313598 
L 661.080992 131.170676 
L 667.229752 131.027928 
L 673.378512 130.885352 
L 679.527273 130.742949 
L 685.676033 130.600719 
L 691.824793 130.458662 
L 697.973554 130.316779 
L 704.122314 130.175069 
L 710.271074 130.033533 
L 716.419835 129.892171 
L 722.568595 129.750982 
L 728.717355 129.609968 
L 734.866116 129.469128 
L 741.014876 129.328463 
L 747.163636 129.187972 
" style="fill:none;stroke:#1f77b4;stroke-linecap:square;stroke-width:2;"/>
   </g>
   <g id="line2d_13">
    <path clip-path="url(#pf73215ec87)" d="M 138.436364 135.088855 
L 144.585124 135.033985 
L 150.733884 134.969046 
L 156.882645 134.910655 
L 163.031405 134.855206 
L 169.180165 134.798023 
L 175.328926 134.73943 
L 181.477686 134.676089 
L 187.626446 134.621144 
L 193.775207 134.567398 
L 199.923967 134.510331 
L 206.072727 134.448296 
L 212.221488 134.39056 
L 218.370248 134.336057 
L 224.519008 134.27704 
L 230.667769 134.225147 
L 236.816529 134.168006 
L 242.965289 134.111362 
L 249.11405 134.058235 
L 255.26281 134.003115 
L 261.41157 133.949124 
L 267.560331 133.895321 
L 273.709091 133.842751 
L 279.857851 133.7926 
L 286.006612 133.739735 
L 292.155372 133.681391 
L 298.304132 133.63047 
L 304.452893 133.576148 
L 310.601653 133.524225 
L 316.750413 133.476257 
L 322.899174 133.422104 
L 329.047934 133.371389 
L 335.196694 133.32536 
L 341.345455 133.270181 
L 347.494215 133.224063 
L 353.642975 133.172916 
L 359.791736 133.121767 
L 365.940496 133.071883 
L 372.089256 133.028471 
L 378.238017 132.978118 
L 384.386777 132.931061 
L 390.535537 132.885129 
L 396.684298 132.834529 
L 402.833058 132.789876 
L 408.981818 132.738277 
L 415.130579 132.691796 
L 421.279339 132.64049 
L 427.428099 132.604382 
L 433.57686 132.556608 
L 439.72562 132.512472 
L 445.87438 132.461143 
L 452.02314 132.417423 
L 458.171901 132.373495 
L 464.320661 132.332392 
L 470.469421 132.285916 
L 476.618182 132.242601 
L 482.766942 132.202841 
L 488.915702 132.156075 
L 495.064463 132.114074 
L 501.213223 132.075661 
L 507.361983 132.029451 
L 513.510744 131.986967 
L 519.659504 131.943847 
L 525.808264 131.907151 
L 531.957025 131.862201 
L 538.105785 131.830341 
L 544.254545 131.783279 
L 550.403306 131.747391 
L 556.552066 131.70632 
L 562.700826 131.668876 
L 568.849587 131.629684 
L 574.998347 131.593106 
L 581.147107 131.551843 
L 587.295868 131.513332 
L 593.444628 131.478029 
L 599.593388 131.437188 
L 605.742149 131.399118 
L 611.890909 131.368512 
L 618.039669 131.325549 
L 624.18843 131.292283 
L 630.33719 131.26084 
L 636.48595 131.220118 
L 642.634711 131.18366 
L 648.783471 131.150537 
L 654.932231 131.117378 
L 661.080992 131.078813 
L 667.229752 131.048421 
L 673.378512 131.014277 
L 679.527273 130.982505 
L 685.676033 130.952454 
L 691.824793 130.920736 
L 697.973554 130.886267 
L 704.122314 130.859492 
L 710.271074 130.82264 
L 716.419835 130.787463 
L 722.568595 130.757176 
L 728.717355 130.729512 
L 734.866116 130.705454 
L 741.014876 130.669458 
L 747.163636 130.642075 
" style="fill:none;stroke:#a2d2ff;stroke-linecap:square;stroke-width:0.5;"/>
   </g>
   <g id="line2d_14">
    <path clip-path="url(#pf73215ec87)" d="M 138.436364 115.402187 
L 144.585124 115.281871 
L 150.733884 115.171686 
L 156.882645 115.04044 
L 163.031405 114.931781 
L 169.180165 114.812759 
L 175.328926 114.698127 
L 181.477686 114.581511 
L 187.626446 114.460169 
L 193.775207 114.344419 
L 199.923967 114.227614 
L 206.072727 114.11584 
L 212.221488 113.995498 
L 218.370248 113.883388 
L 224.519008 113.766016 
L 230.667769 113.650698 
L 236.816529 113.541583 
L 242.965289 113.42464 
L 249.11405 113.309039 
L 255.26281 113.196871 
L 261.41157 113.083675 
L 267.560331 112.971659 
L 273.709091 112.864542 
L 279.857851 112.745828 
L 286.006612 112.635001 
L 292.155372 112.521931 
L 298.304132 112.411939 
L 304.452893 112.299074 
L 310.601653 112.186733 
L 316.750413 112.080774 
L 322.899174 111.972482 
L 329.047934 111.861899 
L 335.196694 111.750697 
L 341.345455 111.647331 
L 347.494215 111.536025 
L 353.642975 111.433826 
L 359.791736 111.317651 
L 365.940496 111.207932 
L 372.089256 111.102007 
L 378.238017 110.994906 
L 384.386777 110.894421 
L 390.535537 110.784568 
L 396.684298 110.673031 
L 402.833058 110.578067 
L 408.981818 110.473838 
L 415.130579 110.363338 
L 421.279339 110.255485 
L 427.428099 110.152062 
L 433.57686 110.04341 
L 439.72562 109.941301 
L 445.87438 109.84178 
L 452.02314 109.734471 
L 458.171901 109.632339 
L 464.320661 109.527834 
L 470.469421 109.429707 
L 476.618182 109.324627 
L 482.766942 109.218929 
L 488.915702 109.120142 
L 495.064463 109.014845 
L 501.213223 108.923091 
L 507.361983 108.814755 
L 513.510744 108.712152 
L 519.659504 108.615211 
L 525.808264 108.511318 
L 531.957025 108.414976 
L 538.105785 108.31328 
L 544.254545 108.218401 
L 550.403306 108.112933 
L 556.552066 108.018411 
L 562.700826 107.919574 
L 568.849587 107.822211 
L 574.998347 107.7191 
L 581.147107 107.622856 
L 587.295868 107.530599 
L 593.444628 107.43411 
L 599.593388 107.338985 
L 605.742149 107.24608 
L 611.890909 107.143847 
L 618.039669 107.043399 
L 624.18843 106.950441 
L 630.33719 106.855491 
L 636.48595 106.761491 
L 642.634711 106.665597 
L 648.783471 106.571007 
L 654.932231 106.481726 
L 661.080992 106.380692 
L 667.229752 106.292014 
L 673.378512 106.201162 
L 679.527273 106.104028 
L 685.676033 106.009212 
L 691.824793 105.917971 
L 697.973554 105.831445 
L 704.122314 105.736032 
L 710.271074 105.643318 
L 716.419835 105.55601 
L 722.568595 105.462516 
L 728.717355 105.366961 
L 734.866116 105.27977 
L 741.014876 105.191932 
L 747.163636 105.102184 
" style="fill:none;stroke:#a2d2ff;stroke-linecap:square;stroke-width:0.5;"/>
   </g>
   <g id="line2d_15">
    <path clip-path="url(#pf73215ec87)" d="M 138.436364 171.376927 
L 144.585124 171.16978 
L 150.733884 170.947003 
L 156.882645 170.73492 
L 163.031405 170.520725 
L 169.180165 170.300057 
L 175.328926 170.084529 
L 181.477686 169.87208 
L 187.626446 169.666089 
L 193.775207 169.440689 
L 199.923967 169.231599 
L 206.072727 169.021083 
L 212.221488 168.814365 
L 218.370248 168.600323 
L 224.519008 168.383765 
L 230.667769 168.172938 
L 236.816529 167.964128 
L 242.965289 167.753465 
L 249.11405 167.547536 
L 255.26281 167.339271 
L 261.41157 167.125112 
L 267.560331 166.923129 
L 273.709091 166.711197 
L 279.857851 166.505637 
L 286.006612 166.291567 
L 292.155372 166.092763 
L 298.304132 165.881803 
L 304.452893 165.681461 
L 310.601653 165.474672 
L 316.750413 165.265338 
L 322.899174 165.065313 
L 329.047934 164.858771 
L 335.196694 164.654699 
L 341.345455 164.448907 
L 347.494215 164.247454 
L 353.642975 164.045689 
L 359.791736 163.843152 
L 365.940496 163.640475 
L 372.089256 163.448254 
L 378.238017 163.243411 
L 384.386777 163.042414 
L 390.535537 162.84059 
L 396.684298 162.641996 
L 402.833058 162.444207 
L 408.981818 162.244478 
L 415.130579 162.046949 
L 421.279339 161.843182 
L 427.428099 161.647379 
L 433.57686 161.445487 
L 439.72562 161.253593 
L 445.87438 161.052562 
L 452.02314 160.862841 
L 458.171901 160.666228 
L 464.320661 160.468501 
L 470.469421 160.271242 
L 476.618182 160.083866 
L 482.766942 159.887135 
L 488.915702 159.692582 
L 495.064463 159.500159 
L 501.213223 159.310807 
L 507.361983 159.11663 
L 513.510744 158.920228 
L 519.659504 158.728242 
L 525.808264 158.54132 
L 531.957025 158.34625 
L 538.105785 158.157469 
L 544.254545 157.966077 
L 550.403306 157.771317 
L 556.552066 157.5919 
L 562.700826 157.39713 
L 568.849587 157.200216 
L 574.998347 157.019522 
L 581.147107 156.838454 
L 587.295868 156.645939 
L 593.444628 156.467021 
L 599.593388 156.276391 
L 605.742149 156.092324 
L 611.890909 155.908356 
L 618.039669 155.728307 
L 624.18843 155.532563 
L 630.33719 155.351114 
L 636.48595 155.164668 
L 642.634711 154.986704 
L 648.783471 154.812787 
L 654.932231 154.621825 
L 661.080992 154.43489 
L 667.229752 154.254731 
L 673.378512 154.075267 
L 679.527273 153.895602 
L 685.676033 153.718023 
L 691.824793 153.534533 
L 697.973554 153.350826 
L 704.122314 153.178753 
L 710.271074 152.996637 
L 716.419835 152.817343 
L 722.568595 152.643287 
L 728.717355 152.467958 
L 734.866116 152.287691 
L 741.014876 152.114182 
L 747.163636 151.935051 
" style="fill:none;stroke:#a2d2ff;stroke-linecap:square;stroke-width:0.5;"/>
   </g>
   <g id="line2d_16">
    <path clip-path="url(#pf73215ec87)" d="M 138.436364 133.783273 
L 144.585124 133.447283 
L 150.733884 133.116037 
L 156.882645 132.775163 
L 163.031405 132.445142 
L 169.180165 132.108787 
L 175.328926 131.774574 
L 181.477686 131.434708 
L 187.626446 131.104281 
L 193.775207 130.770031 
L 199.923967 130.431456 
L 206.072727 130.10285 
L 212.221488 129.772372 
L 218.370248 129.437802 
L 224.519008 129.104522 
L 230.667769 128.772286 
L 236.816529 128.441147 
L 242.965289 128.105056 
L 249.11405 127.771633 
L 255.26281 127.448103 
L 261.41157 127.108906 
L 267.560331 126.782872 
L 273.709091 126.450583 
L 279.857851 126.11752 
L 286.006612 125.788663 
L 292.155372 125.459215 
L 298.304132 125.124363 
L 304.452893 124.795687 
L 310.601653 124.470712 
L 316.750413 124.138517 
L 322.899174 123.811767 
L 329.047934 123.476415 
L 335.196694 123.159254 
L 341.345455 122.827012 
L 347.494215 122.499736 
L 353.642975 122.170426 
L 359.791736 121.841781 
L 365.940496 121.5213 
L 372.089256 121.18622 
L 378.238017 120.868414 
L 384.386777 120.536048 
L 390.535537 120.214877 
L 396.684298 119.878004 
L 402.833058 119.552138 
L 408.981818 119.233402 
L 415.130579 118.913359 
L 421.279339 118.585586 
L 427.428099 118.260677 
L 433.57686 117.934339 
L 439.72562 117.611435 
L 445.87438 117.283819 
L 452.02314 116.962429 
L 458.171901 116.64235 
L 464.320661 116.320222 
L 470.469421 116.001586 
L 476.618182 115.673883 
L 482.766942 115.35358 
L 488.915702 115.027141 
L 495.064463 114.713398 
L 501.213223 114.387615 
L 507.361983 114.069492 
L 513.510744 113.746652 
L 519.659504 113.427009 
L 525.808264 113.101175 
L 531.957025 112.788172 
L 538.105785 112.468249 
L 544.254545 112.144992 
L 550.403306 111.825329 
L 556.552066 111.503296 
L 562.700826 111.189116 
L 568.849587 110.872384 
L 574.998347 110.556242 
L 581.147107 110.237779 
L 587.295868 109.918693 
L 593.444628 109.60276 
L 599.593388 109.286286 
L 605.742149 108.968941 
L 611.890909 108.65298 
L 618.039669 108.329519 
L 624.18843 108.015908 
L 630.33719 107.701681 
L 636.48595 107.385856 
L 642.634711 107.06923 
L 648.783471 106.754621 
L 654.932231 106.444302 
L 661.080992 106.127766 
L 667.229752 105.813401 
L 673.378512 105.504143 
L 679.527273 105.184922 
L 685.676033 104.870435 
L 691.824793 104.559058 
L 697.973554 104.245201 
L 704.122314 103.934778 
L 710.271074 103.626438 
L 716.419835 103.310333 
L 722.568595 102.999997 
L 728.717355 102.691695 
L 734.866116 102.377691 
L 741.014876 102.062536 
L 747.163636 101.753855 
" style="fill:none;stroke:#a2d2ff;stroke-linecap:square;stroke-width:0.5;"/>
   </g>
   <g id="line2d_17">
    <path clip-path="url(#pf73215ec87)" d="M 138.436364 126.499027 
L 144.585124 126.552364 
L 150.733884 126.615603 
L 156.882645 126.675388 
L 163.031405 126.729955 
L 169.180165 126.791653 
L 175.328926 126.853398 
L 181.477686 126.917528 
L 187.626446 126.975139 
L 193.775207 127.029287 
L 199.923967 127.098941 
L 206.072727 127.157873 
L 212.221488 127.219192 
L 218.370248 127.276414 
L 224.519008 127.352039 
L 230.667769 127.403585 
L 236.816529 127.475082 
L 242.965289 127.528298 
L 249.11405 127.595479 
L 255.26281 127.656335 
L 261.41157 127.727871 
L 267.560331 127.785364 
L 273.709091 127.841709 
L 279.857851 127.909206 
L 286.006612 127.974675 
L 292.155372 128.029523 
L 298.304132 128.095912 
L 304.452893 128.163683 
L 310.601653 128.229784 
L 316.750413 128.291538 
L 322.899174 128.358367 
L 329.047934 128.419883 
L 335.196694 128.483434 
L 341.345455 128.554013 
L 347.494215 128.613791 
L 353.642975 128.680545 
L 359.791736 128.748467 
L 365.940496 128.814698 
L 372.089256 128.879638 
L 378.238017 128.946275 
L 384.386777 129.017107 
L 390.535537 129.0842 
L 396.684298 129.146101 
L 402.833058 129.21712 
L 408.981818 129.279917 
L 415.130579 129.353536 
L 421.279339 129.416309 
L 427.428099 129.484963 
L 433.57686 129.544722 
L 439.72562 129.616434 
L 445.87438 129.685756 
L 452.02314 129.760262 
L 458.171901 129.828406 
L 464.320661 129.897368 
L 470.469421 129.962998 
L 476.618182 130.024864 
L 482.766942 130.101257 
L 488.915702 130.162855 
L 495.064463 130.236324 
L 501.213223 130.304532 
L 507.361983 130.372437 
L 513.510744 130.439398 
L 519.659504 130.521013 
L 525.808264 130.58437 
L 531.957025 130.663077 
L 538.105785 130.728652 
L 544.254545 130.795791 
L 550.403306 130.870708 
L 556.552066 130.950385 
L 562.700826 131.01689 
L 568.849587 131.088135 
L 574.998347 131.163142 
L 581.147107 131.23395 
L 587.295868 131.306802 
L 593.444628 131.372988 
L 599.593388 131.452118 
L 605.742149 131.520732 
L 611.890909 131.593825 
L 618.039669 131.665556 
L 624.18843 131.737274 
L 630.33719 131.813403 
L 636.48595 131.883417 
L 642.634711 131.963957 
L 648.783471 132.043336 
L 654.932231 132.110652 
L 661.080992 132.187665 
L 667.229752 132.261336 
L 673.378512 132.334055 
L 679.527273 132.411235 
L 685.676033 132.48536 
L 691.824793 132.563848 
L 697.973554 132.63153 
L 704.122314 132.71015 
L 710.271074 132.791521 
L 716.419835 132.863237 
L 722.568595 132.943229 
L 728.717355 133.015587 
L 734.866116 133.093155 
L 741.014876 133.171641 
L 747.163636 133.244009 
" style="fill:none;stroke:#a2d2ff;stroke-linecap:square;stroke-width:0.5;"/>
   </g>
   <g id="line2d_18">
    <path clip-path="url(#pf73215ec87)" d="M 138.436364 117.598973 
L 144.585124 117.368054 
L 150.733884 117.137432 
L 156.882645 116.901454 
L 163.031405 116.654874 
L 169.180165 116.429313 
L 175.328926 116.189462 
L 181.477686 115.956187 
L 187.626446 115.720091 
L 193.775207 115.488484 
L 199.923967 115.253412 
L 206.072727 115.017076 
L 212.221488 114.777353 
L 218.370248 114.540742 
L 224.519008 114.303642 
L 230.667769 114.065937 
L 236.816529 113.838606 
L 242.965289 113.603539 
L 249.11405 113.365521 
L 255.26281 113.129241 
L 261.41157 112.893753 
L 267.560331 112.65418 
L 273.709091 112.418946 
L 279.857851 112.183993 
L 286.006612 111.949967 
L 292.155372 111.713825 
L 298.304132 111.476964 
L 304.452893 111.24631 
L 310.601653 111.004467 
L 316.750413 110.767959 
L 322.899174 110.535157 
L 329.047934 110.297153 
L 335.196694 110.059558 
L 341.345455 109.826356 
L 347.494215 109.595457 
L 353.642975 109.355875 
L 359.791736 109.120084 
L 365.940496 108.881372 
L 372.089256 108.641122 
L 378.238017 108.410728 
L 384.386777 108.174026 
L 390.535537 107.931364 
L 396.684298 107.703764 
L 402.833058 107.464117 
L 408.981818 107.221474 
L 415.130579 106.991556 
L 421.279339 106.752742 
L 427.428099 106.519903 
L 433.57686 106.28139 
L 439.72562 106.045496 
L 445.87438 105.806147 
L 452.02314 105.573716 
L 458.171901 105.329433 
L 464.320661 105.097951 
L 470.469421 104.858316 
L 476.618182 104.621638 
L 482.766942 104.384807 
L 488.915702 104.153374 
L 495.064463 103.912192 
L 501.213223 103.679596 
L 507.361983 103.438181 
L 513.510744 103.204685 
L 519.659504 102.964366 
L 525.808264 102.727599 
L 531.957025 102.495806 
L 538.105785 102.254265 
L 544.254545 102.015225 
L 550.403306 101.781465 
L 556.552066 101.547196 
L 562.700826 101.306268 
L 568.849587 101.067859 
L 574.998347 100.835549 
L 581.147107 100.602781 
L 587.295868 100.36089 
L 593.444628 100.123356 
L 599.593388 99.883409 
L 605.742149 99.645023 
L 611.890909 99.410245 
L 618.039669 99.173272 
L 624.18843 98.944006 
L 630.33719 98.698568 
L 636.48595 98.460859 
L 642.634711 98.227539 
L 648.783471 97.990051 
L 654.932231 97.749641 
L 661.080992 97.515118 
L 667.229752 97.278344 
L 673.378512 97.040872 
L 679.527273 96.796412 
L 685.676033 96.562925 
L 691.824793 96.332833 
L 697.973554 96.085127 
L 704.122314 95.85257 
L 710.271074 95.615423 
L 716.419835 95.377861 
L 722.568595 95.141919 
L 728.717355 94.903628 
L 734.866116 94.667612 
L 741.014876 94.428644 
L 747.163636 94.189073 
" style="fill:none;stroke:#a2d2ff;stroke-linecap:square;stroke-width:0.5;"/>
   </g>
   <g id="line2d_19">
    <path clip-path="url(#pf73215ec87)" d="M 138.436364 102.731257 
L 144.585124 102.688081 
L 150.733884 102.654861 
L 156.882645 102.615381 
L 163.031405 102.57813 
L 169.180165 102.535519 
L 175.328926 102.500107 
L 181.477686 102.452969 
L 187.626446 102.415758 
L 193.775207 102.383647 
L 199.923967 102.341842 
L 206.072727 102.301468 
L 212.221488 102.262314 
L 218.370248 102.226677 
L 224.519008 102.188463 
L 230.667769 102.153213 
L 236.816529 102.112642 
L 242.965289 102.077996 
L 249.11405 102.045523 
L 255.26281 102.008439 
L 261.41157 101.97263 
L 267.560331 101.927115 
L 273.709091 101.90573 
L 279.857851 101.862184 
L 286.006612 101.829992 
L 292.155372 101.800496 
L 298.304132 101.762766 
L 304.452893 101.732594 
L 310.601653 101.696444 
L 316.750413 101.663683 
L 322.899174 101.630362 
L 329.047934 101.596504 
L 335.196694 101.567029 
L 341.345455 101.535622 
L 347.494215 101.499448 
L 353.642975 101.46614 
L 359.791736 101.433161 
L 365.940496 101.408336 
L 372.089256 101.372103 
L 378.238017 101.335608 
L 384.386777 101.315225 
L 390.535537 101.275645 
L 396.684298 101.257678 
L 402.833058 101.221252 
L 408.981818 101.19089 
L 415.130579 101.162885 
L 421.279339 101.130753 
L 427.428099 101.112763 
L 433.57686 101.077917 
L 439.72562 101.044045 
L 445.87438 101.023941 
L 452.02314 100.991242 
L 458.171901 100.96658 
L 464.320661 100.934981 
L 470.469421 100.904844 
L 476.618182 100.882564 
L 482.766942 100.862438 
L 488.915702 100.832329 
L 495.064463 100.801967 
L 501.213223 100.777859 
L 507.361983 100.757517 
L 513.510744 100.723014 
L 519.659504 100.703554 
L 525.808264 100.67276 
L 531.957025 100.65396 
L 538.105785 100.629228 
L 544.254545 100.600652 
L 550.403306 100.584231 
L 556.552066 100.553059 
L 562.700826 100.527175 
L 568.849587 100.513848 
L 574.998347 100.490623 
L 581.147107 100.463546 
L 587.295868 100.434122 
L 593.444628 100.420883 
L 599.593388 100.395917 
L 605.742149 100.373055 
L 611.890909 100.362445 
L 618.039669 100.332871 
L 624.18843 100.315044 
L 630.33719 100.289157 
L 636.48595 100.273707 
L 642.634711 100.24984 
L 648.783471 100.227609 
L 654.932231 100.211642 
L 661.080992 100.186978 
L 667.229752 100.168601 
L 673.378512 100.156542 
L 679.527273 100.133543 
L 685.676033 100.107992 
L 691.824793 100.094106 
L 697.973554 100.073784 
L 704.122314 100.057504 
L 710.271074 100.048453 
L 716.419835 100.025536 
L 722.568595 100.012359 
L 728.717355 99.999474 
L 734.866116 99.974996 
L 741.014876 99.956255 
L 747.163636 99.934823 
" style="fill:none;stroke:#a2d2ff;stroke-linecap:square;stroke-width:0.5;"/>
   </g>
   <g id="line2d_20">
    <path clip-path="url(#pf73215ec87)" d="M 138.436364 145.421407 
L 144.585124 145.259745 
L 150.733884 145.100281 
L 156.882645 144.936388 
L 163.031405 144.77324 
L 169.180165 144.61603 
L 175.328926 144.456108 
L 181.477686 144.291707 
L 187.626446 144.140834 
L 193.775207 143.970722 
L 199.923967 143.818813 
L 206.072727 143.652522 
L 212.221488 143.494833 
L 218.370248 143.33477 
L 224.519008 143.17681 
L 230.667769 143.017944 
L 236.816529 142.869333 
L 242.965289 142.707372 
L 249.11405 142.544247 
L 255.26281 142.389321 
L 261.41157 142.241207 
L 267.560331 142.077186 
L 273.709091 141.920718 
L 279.857851 141.769355 
L 286.006612 141.608275 
L 292.155372 141.457835 
L 298.304132 141.303333 
L 304.452893 141.15318 
L 310.601653 140.994957 
L 316.750413 140.836295 
L 322.899174 140.693548 
L 329.047934 140.535052 
L 335.196694 140.383051 
L 341.345455 140.231599 
L 347.494215 140.074988 
L 353.642975 139.920491 
L 359.791736 139.775252 
L 365.940496 139.620839 
L 372.089256 139.469314 
L 378.238017 139.323654 
L 384.386777 139.176291 
L 390.535537 139.020245 
L 396.684298 138.875293 
L 402.833058 138.7239 
L 408.981818 138.577431 
L 415.130579 138.427829 
L 421.279339 138.279784 
L 427.428099 138.132928 
L 433.57686 137.985437 
L 439.72562 137.837258 
L 445.87438 137.690015 
L 452.02314 137.549205 
L 458.171901 137.400442 
L 464.320661 137.257138 
L 470.469421 137.110452 
L 476.618182 136.960951 
L 482.766942 136.821536 
L 488.915702 136.681113 
L 495.064463 136.529425 
L 501.213223 136.387086 
L 507.361983 136.247019 
L 513.510744 136.103779 
L 519.659504 135.959708 
L 525.808264 135.812357 
L 531.957025 135.675411 
L 538.105785 135.537217 
L 544.254545 135.393507 
L 550.403306 135.250035 
L 556.552066 135.107735 
L 562.700826 134.964664 
L 568.849587 134.824794 
L 574.998347 134.688488 
L 581.147107 134.545323 
L 587.295868 134.414586 
L 593.444628 134.267409 
L 599.593388 134.133563 
L 605.742149 133.994584 
L 611.890909 133.858224 
L 618.039669 133.714932 
L 624.18843 133.586777 
L 630.33719 133.446652 
L 636.48595 133.309753 
L 642.634711 133.177056 
L 648.783471 133.034199 
L 654.932231 132.903412 
L 661.080992 132.76418 
L 667.229752 132.634276 
L 673.378512 132.502292 
L 679.527273 132.36721 
L 685.676033 132.230483 
L 691.824793 132.098024 
L 697.973554 131.967457 
L 704.122314 131.825973 
L 710.271074 131.703414 
L 716.419835 131.567802 
L 722.568595 131.427856 
L 728.717355 131.303112 
L 734.866116 131.166672 
L 741.014876 131.041948 
L 747.163636 130.911699 
" style="fill:none;stroke:#a2d2ff;stroke-linecap:square;stroke-width:0.5;"/>
   </g>
   <g id="line2d_21">
    <path clip-path="url(#pf73215ec87)" d="M 138.436364 131.934151 
L 144.585124 131.664523 
L 150.733884 131.404028 
L 156.882645 131.137493 
L 163.031405 130.873613 
L 169.180165 130.60352 
L 175.328926 130.338263 
L 181.477686 130.074297 
L 187.626446 129.814117 
L 193.775207 129.545722 
L 199.923967 129.276739 
L 206.072727 129.022055 
L 212.221488 128.751962 
L 218.370248 128.488623 
L 224.519008 128.228663 
L 230.667769 127.963848 
L 236.816529 127.705681 
L 242.965289 127.439681 
L 249.11405 127.186124 
L 255.26281 126.921207 
L 261.41157 126.661573 
L 267.560331 126.395554 
L 273.709091 126.13618 
L 279.857851 125.877216 
L 286.006612 125.62435 
L 292.155372 125.360879 
L 298.304132 125.097624 
L 304.452893 124.842384 
L 310.601653 124.582218 
L 316.750413 124.327233 
L 322.899174 124.069679 
L 329.047934 123.810762 
L 335.196694 123.559806 
L 341.345455 123.29357 
L 347.494215 123.039743 
L 353.642975 122.786298 
L 359.791736 122.52118 
L 365.940496 122.273757 
L 372.089256 122.017368 
L 378.238017 121.759124 
L 384.386777 121.50499 
L 390.535537 121.250924 
L 396.684298 120.999972 
L 402.833058 120.748787 
L 408.981818 120.495929 
L 415.130579 120.231629 
L 421.279339 119.98701 
L 427.428099 119.734148 
L 433.57686 119.48101 
L 439.72562 119.231162 
L 445.87438 118.974042 
L 452.02314 118.726107 
L 458.171901 118.471038 
L 464.320661 118.227681 
L 470.469421 117.974944 
L 476.618182 117.724538 
L 482.766942 117.47541 
L 488.915702 117.225736 
L 495.064463 116.971261 
L 501.213223 116.72563 
L 507.361983 116.477879 
L 513.510744 116.231615 
L 519.659504 115.98091 
L 525.808264 115.732831 
L 531.957025 115.482589 
L 538.105785 115.239584 
L 544.254545 114.994645 
L 550.403306 114.750703 
L 556.552066 114.50234 
L 562.700826 114.252667 
L 568.849587 114.007177 
L 574.998347 113.766238 
L 581.147107 113.517727 
L 587.295868 113.278037 
L 593.444628 113.030476 
L 599.593388 112.780137 
L 605.742149 112.545871 
L 611.890909 112.2939 
L 618.039669 112.056553 
L 624.18843 111.813689 
L 630.33719 111.570836 
L 636.48595 111.332169 
L 642.634711 111.089249 
L 648.783471 110.84612 
L 654.932231 110.606392 
L 661.080992 110.365581 
L 667.229752 110.126009 
L 673.378512 109.878654 
L 679.527273 109.642247 
L 685.676033 109.406663 
L 691.824793 109.162047 
L 697.973554 108.923538 
L 704.122314 108.684816 
L 710.271074 108.443947 
L 716.419835 108.211559 
L 722.568595 107.969884 
L 728.717355 107.731475 
L 734.866116 107.4954 
L 741.014876 107.260608 
L 747.163636 107.021039 
" style="fill:none;stroke:#a2d2ff;stroke-linecap:square;stroke-width:0.5;"/>
   </g>
   <g id="line2d_22">
    <path clip-path="url(#pf73215ec87)" d="M 138.436364 124.977341 
L 144.585124 125.026152 
L 150.733884 125.074228 
L 156.882645 125.122985 
L 163.031405 125.167352 
L 169.180165 125.219729 
L 175.328926 125.267304 
L 181.477686 125.31624 
L 187.626446 125.361627 
L 193.775207 125.41362 
L 199.923967 125.463111 
L 206.072727 125.522736 
L 212.221488 125.561679 
L 218.370248 125.622164 
L 224.519008 125.67117 
L 230.667769 125.723611 
L 236.816529 125.766766 
L 242.965289 125.825106 
L 249.11405 125.877271 
L 255.26281 125.931728 
L 261.41157 125.982126 
L 267.560331 126.038148 
L 273.709091 126.091134 
L 279.857851 126.14956 
L 286.006612 126.202914 
L 292.155372 126.253875 
L 298.304132 126.311687 
L 304.452893 126.368387 
L 310.601653 126.425816 
L 316.750413 126.478043 
L 322.899174 126.543674 
L 329.047934 126.598246 
L 335.196694 126.645709 
L 341.345455 126.71067 
L 347.494215 126.763546 
L 353.642975 126.825921 
L 359.791736 126.887114 
L 365.940496 126.947305 
L 372.089256 127.002358 
L 378.238017 127.064658 
L 384.386777 127.130014 
L 390.535537 127.187139 
L 396.684298 127.244906 
L 402.833058 127.305223 
L 408.981818 127.364058 
L 415.130579 127.425492 
L 421.279339 127.484043 
L 427.428099 127.553879 
L 433.57686 127.60931 
L 439.72562 127.677116 
L 445.87438 127.743154 
L 452.02314 127.802518 
L 458.171901 127.865857 
L 464.320661 127.926261 
L 470.469421 127.995544 
L 476.618182 128.059064 
L 482.766942 128.125844 
L 488.915702 128.190521 
L 495.064463 128.254601 
L 501.213223 128.323253 
L 507.361983 128.389218 
L 513.510744 128.456888 
L 519.659504 128.524172 
L 525.808264 128.592803 
L 531.957025 128.662031 
L 538.105785 128.724841 
L 544.254545 128.791312 
L 550.403306 128.861297 
L 556.552066 128.933449 
L 562.700826 129.013113 
L 568.849587 129.06959 
L 574.998347 129.139665 
L 581.147107 129.216327 
L 587.295868 129.287626 
L 593.444628 129.356743 
L 599.593388 129.426633 
L 605.742149 129.49974 
L 611.890909 129.573472 
L 618.039669 129.638875 
L 624.18843 129.719354 
L 630.33719 129.783277 
L 636.48595 129.863245 
L 642.634711 129.931843 
L 648.783471 130.007139 
L 654.932231 130.087172 
L 661.080992 130.155597 
L 667.229752 130.231266 
L 673.378512 130.30492 
L 679.527273 130.389355 
L 685.676033 130.457351 
L 691.824793 130.532705 
L 697.973554 130.609012 
L 704.122314 130.692845 
L 710.271074 130.768067 
L 716.419835 130.843326 
L 722.568595 130.923982 
L 728.717355 130.995042 
L 734.866116 131.077294 
L 741.014876 131.15402 
L 747.163636 131.233237 
" style="fill:none;stroke:#a2d2ff;stroke-linecap:square;stroke-width:0.5;"/>
   </g>
   <g id="line2d_23">
    <path clip-path="url(#pf73215ec87)" d="M 138.436364 156.816862 
L 144.585124 156.980757 
L 150.733884 157.139664 
L 156.882645 157.303349 
L 163.031405 157.467838 
L 169.180165 157.624576 
L 175.328926 157.792431 
L 181.477686 157.962218 
L 187.626446 158.120326 
L 193.775207 158.27817 
L 199.923967 158.442345 
L 206.072727 158.606875 
L 212.221488 158.773141 
L 218.370248 158.932479 
L 224.519008 159.10072 
L 230.667769 159.261087 
L 236.816529 159.417511 
L 242.965289 159.583509 
L 249.11405 159.742408 
L 255.26281 159.906637 
L 261.41157 160.069195 
L 267.560331 160.233624 
L 273.709091 160.395241 
L 279.857851 160.553973 
L 286.006612 160.716032 
L 292.155372 160.878992 
L 298.304132 161.045149 
L 304.452893 161.210298 
L 310.601653 161.36931 
L 316.750413 161.528794 
L 322.899174 161.696868 
L 329.047934 161.855507 
L 335.196694 162.017229 
L 341.345455 162.179138 
L 347.494215 162.344408 
L 353.642975 162.507259 
L 359.791736 162.667869 
L 365.940496 162.828157 
L 372.089256 162.994244 
L 378.238017 163.154583 
L 384.386777 163.314933 
L 390.535537 163.480573 
L 396.684298 163.640974 
L 402.833058 163.805708 
L 408.981818 163.968111 
L 415.130579 164.123358 
L 421.279339 164.287988 
L 427.428099 164.453608 
L 433.57686 164.613341 
L 439.72562 164.779239 
L 445.87438 164.939219 
L 452.02314 165.092437 
L 458.171901 165.26078 
L 464.320661 165.422002 
L 470.469421 165.58693 
L 476.618182 165.74208 
L 482.766942 165.903454 
L 488.915702 166.072627 
L 495.064463 166.232594 
L 501.213223 166.391175 
L 507.361983 166.550192 
L 513.510744 166.711218 
L 519.659504 166.882586 
L 525.808264 167.040246 
L 531.957025 167.198025 
L 538.105785 167.362431 
L 544.254545 167.520874 
L 550.403306 167.685839 
L 556.552066 167.854119 
L 562.700826 168.001305 
L 568.849587 168.169862 
L 574.998347 168.330878 
L 581.147107 168.489429 
L 587.295868 168.655205 
L 593.444628 168.81939 
L 599.593388 168.975754 
L 605.742149 169.133375 
L 611.890909 169.30104 
L 618.039669 169.464887 
L 624.18843 169.619305 
L 630.33719 169.781096 
L 636.48595 169.942734 
L 642.634711 170.102717 
L 648.783471 170.268951 
L 654.932231 170.431269 
L 661.080992 170.583188 
L 667.229752 170.747655 
L 673.378512 170.912702 
L 679.527273 171.067679 
L 685.676033 171.230261 
L 691.824793 171.392042 
L 697.973554 171.554173 
L 704.122314 171.715369 
L 710.271074 171.876033 
L 716.419835 172.030504 
L 722.568595 172.190404 
L 728.717355 172.356502 
L 734.866116 172.518667 
L 741.014876 172.680384 
L 747.163636 172.841824 
" style="fill:none;stroke:#a2d2ff;stroke-linecap:square;stroke-width:0.5;"/>
   </g>
   <g id="line2d_24">
    <path clip-path="url(#pf73215ec87)" d="M 138.436364 171.89541 
L 144.585124 171.711522 
L 150.733884 171.531565 
L 156.882645 171.356022 
L 163.031405 171.177047 
L 169.180165 170.994668 
L 175.328926 170.817981 
L 181.477686 170.6376 
L 187.626446 170.457106 
L 193.775207 170.277102 
L 199.923967 170.10139 
L 206.072727 169.917799 
L 212.221488 169.739692 
L 218.370248 169.558542 
L 224.519008 169.385511 
L 230.667769 169.198286 
L 236.816529 169.028466 
L 242.965289 168.844973 
L 249.11405 168.66353 
L 255.26281 168.483433 
L 261.41157 168.308565 
L 267.560331 168.131955 
L 273.709091 167.955739 
L 279.857851 167.776129 
L 286.006612 167.598584 
L 292.155372 167.413772 
L 298.304132 167.241595 
L 304.452893 167.0681 
L 310.601653 166.889011 
L 316.750413 166.713719 
L 322.899174 166.525415 
L 329.047934 166.352173 
L 335.196694 166.175201 
L 341.345455 166.000665 
L 347.494215 165.822954 
L 353.642975 165.650737 
L 359.791736 165.476449 
L 365.940496 165.299523 
L 372.089256 165.116395 
L 378.238017 164.941872 
L 384.386777 164.762894 
L 390.535537 164.590938 
L 396.684298 164.40923 
L 402.833058 164.234526 
L 408.981818 164.056734 
L 415.130579 163.881967 
L 421.279339 163.705908 
L 427.428099 163.534548 
L 433.57686 163.354288 
L 439.72562 163.181139 
L 445.87438 163.004307 
L 452.02314 162.832549 
L 458.171901 162.656087 
L 464.320661 162.485939 
L 470.469421 162.301465 
L 476.618182 162.126668 
L 482.766942 161.953599 
L 488.915702 161.785634 
L 495.064463 161.605215 
L 501.213223 161.431582 
L 507.361983 161.257305 
L 513.510744 161.082645 
L 519.659504 160.909691 
L 525.808264 160.732149 
L 531.957025 160.557711 
L 538.105785 160.383776 
L 544.254545 160.212655 
L 550.403306 160.038281 
L 556.552066 159.864831 
L 562.700826 159.690095 
L 568.849587 159.523469 
L 574.998347 159.347042 
L 581.147107 159.169618 
L 587.295868 159.000857 
L 593.444628 158.828481 
L 599.593388 158.659872 
L 605.742149 158.478416 
L 611.890909 158.309958 
L 618.039669 158.138254 
L 624.18843 157.969748 
L 630.33719 157.794289 
L 636.48595 157.622035 
L 642.634711 157.451641 
L 648.783471 157.28369 
L 654.932231 157.115141 
L 661.080992 156.938688 
L 667.229752 156.762597 
L 673.378512 156.591978 
L 679.527273 156.424267 
L 685.676033 156.24859 
L 691.824793 156.081602 
L 697.973554 155.912803 
L 704.122314 155.734878 
L 710.271074 155.575475 
L 716.419835 155.395641 
L 722.568595 155.235242 
L 728.717355 155.060978 
L 734.866116 154.895682 
L 741.014876 154.717669 
L 747.163636 154.550217 
" style="fill:none;stroke:#a2d2ff;stroke-linecap:square;stroke-width:0.5;"/>
   </g>
   <g id="line2d_25">
    <path clip-path="url(#pf73215ec87)" d="M 138.436364 203.81423 
L 144.585124 203.429147 
L 150.733884 203.042199 
L 156.882645 202.664287 
L 163.031405 202.280151 
L 169.180165 201.897551 
L 175.328926 201.516176 
L 181.477686 201.136329 
L 187.626446 200.759513 
L 193.775207 200.383947 
L 199.923967 199.995617 
L 206.072727 199.61073 
L 212.221488 199.236133 
L 218.370248 198.860543 
L 224.519008 198.47493 
L 230.667769 198.100057 
L 236.816529 197.711807 
L 242.965289 197.339297 
L 249.11405 196.961121 
L 255.26281 196.586064 
L 261.41157 196.211962 
L 267.560331 195.825839 
L 273.709091 195.447552 
L 279.857851 195.075246 
L 286.006612 194.700652 
L 292.155372 194.32643 
L 298.304132 193.948909 
L 304.452893 193.573733 
L 310.601653 193.200039 
L 316.750413 192.823587 
L 322.899174 192.448338 
L 329.047934 192.075481 
L 335.196694 191.70039 
L 341.345455 191.327784 
L 347.494215 190.955951 
L 353.642975 190.582011 
L 359.791736 190.204334 
L 365.940496 189.836135 
L 372.089256 189.462607 
L 378.238017 189.095389 
L 384.386777 188.722009 
L 390.535537 188.353872 
L 396.684298 187.977188 
L 402.833058 187.614235 
L 408.981818 187.235701 
L 415.130579 186.868154 
L 421.279339 186.499455 
L 427.428099 186.136176 
L 433.57686 185.760296 
L 439.72562 185.389499 
L 445.87438 185.024275 
L 452.02314 184.652375 
L 458.171901 184.290309 
L 464.320661 183.921515 
L 470.469421 183.557042 
L 476.618182 183.189904 
L 482.766942 182.818064 
L 488.915702 182.453885 
L 495.064463 182.092062 
L 501.213223 181.727671 
L 507.361983 181.35756 
L 513.510744 180.99476 
L 519.659504 180.624731 
L 525.808264 180.26905 
L 531.957025 179.900839 
L 538.105785 179.535189 
L 544.254545 179.173703 
L 550.403306 178.810083 
L 556.552066 178.456125 
L 562.700826 178.089444 
L 568.849587 177.722052 
L 574.998347 177.361675 
L 581.147107 177.000461 
L 587.295868 176.634206 
L 593.444628 176.278497 
L 599.593388 175.910382 
L 605.742149 175.548937 
L 611.890909 175.194964 
L 618.039669 174.833123 
L 624.18843 174.476754 
L 630.33719 174.120012 
L 636.48595 173.753318 
L 642.634711 173.395696 
L 648.783471 173.040446 
L 654.932231 172.684845 
L 661.080992 172.321736 
L 667.229752 171.96418 
L 673.378512 171.613356 
L 679.527273 171.253308 
L 685.676033 170.895001 
L 691.824793 170.539204 
L 697.973554 170.185473 
L 704.122314 169.829915 
L 710.271074 169.47304 
L 716.419835 169.124091 
L 722.568595 168.763272 
L 728.717355 168.411872 
L 734.866116 168.051872 
L 741.014876 167.692914 
L 747.163636 167.340353 
" style="fill:none;stroke:#a2d2ff;stroke-linecap:square;stroke-width:0.5;"/>
   </g>
   <g id="line2d_26">
    <path clip-path="url(#pf73215ec87)" d="M 138.436364 135.649365 
L 144.585124 135.718216 
L 150.733884 135.787439 
L 156.882645 135.857912 
L 163.031405 135.929849 
L 169.180165 136.000156 
L 175.328926 136.066051 
L 181.477686 136.133749 
L 187.626446 136.201134 
L 193.775207 136.273243 
L 199.923967 136.340104 
L 206.072727 136.407635 
L 212.221488 136.478377 
L 218.370248 136.541059 
L 224.519008 136.612906 
L 230.667769 136.686351 
L 236.816529 136.759745 
L 242.965289 136.829668 
L 249.11405 136.900402 
L 255.26281 136.962186 
L 261.41157 137.03859 
L 267.560331 137.107777 
L 273.709091 137.179883 
L 279.857851 137.249315 
L 286.006612 137.321075 
L 292.155372 137.386718 
L 298.304132 137.459461 
L 304.452893 137.533713 
L 310.601653 137.602145 
L 316.750413 137.671036 
L 322.899174 137.743797 
L 329.047934 137.816491 
L 335.196694 137.891731 
L 341.345455 137.955425 
L 347.494215 138.0324 
L 353.642975 138.104189 
L 359.791736 138.181106 
L 365.940496 138.248596 
L 372.089256 138.319712 
L 378.238017 138.391053 
L 384.386777 138.467478 
L 390.535537 138.543114 
L 396.684298 138.613774 
L 402.833058 138.686398 
L 408.981818 138.76097 
L 415.130579 138.835851 
L 421.279339 138.902935 
L 427.428099 138.982588 
L 433.57686 139.05493 
L 439.72562 139.128113 
L 445.87438 139.205905 
L 452.02314 139.273513 
L 458.171901 139.358437 
L 464.320661 139.425246 
L 470.469421 139.505244 
L 476.618182 139.580121 
L 482.766942 139.648076 
L 488.915702 139.725978 
L 495.064463 139.79733 
L 501.213223 139.87538 
L 507.361983 139.950217 
L 513.510744 140.024533 
L 519.659504 140.099865 
L 525.808264 140.177701 
L 531.957025 140.256934 
L 538.105785 140.3281 
L 544.254545 140.413361 
L 550.403306 140.484688 
L 556.552066 140.56847 
L 562.700826 140.630114 
L 568.849587 140.712429 
L 574.998347 140.790868 
L 581.147107 140.864967 
L 587.295868 140.944209 
L 593.444628 141.025309 
L 599.593388 141.101541 
L 605.742149 141.17353 
L 611.890909 141.258537 
L 618.039669 141.332524 
L 624.18843 141.411907 
L 630.33719 141.486704 
L 636.48595 141.565162 
L 642.634711 141.648912 
L 648.783471 141.723826 
L 654.932231 141.801397 
L 661.080992 141.880216 
L 667.229752 141.965793 
L 673.378512 142.042935 
L 679.527273 142.124296 
L 685.676033 142.203051 
L 691.824793 142.283041 
L 697.973554 142.364844 
L 704.122314 142.441962 
L 710.271074 142.520378 
L 716.419835 142.602783 
L 722.568595 142.68546 
L 728.717355 142.761236 
L 734.866116 142.845373 
L 741.014876 142.923985 
L 747.163636 143.007267 
" style="fill:none;stroke:#a2d2ff;stroke-linecap:square;stroke-width:0.5;"/>
   </g>
   <g id="line2d_27">
    <path clip-path="url(#pf73215ec87)" d="M 138.436364 98.316148 
L 144.585124 98.362194 
L 150.733884 98.402374 
L 156.882645 98.441323 
L 163.031405 98.487546 
L 169.180165 98.518681 
L 175.328926 98.56727 
L 181.477686 98.603076 
L 187.626446 98.644985 
L 193.775207 98.686796 
L 199.923967 98.721939 
L 206.072727 98.763822 
L 212.221488 98.805085 
L 218.370248 98.841891 
L 224.519008 98.88394 
L 230.667769 98.917531 
L 236.816529 98.96553 
L 242.965289 99.002174 
L 249.11405 99.037299 
L 255.26281 99.070515 
L 261.41157 99.114111 
L 267.560331 99.151821 
L 273.709091 99.184621 
L 279.857851 99.226326 
L 286.006612 99.257376 
L 292.155372 99.297566 
L 298.304132 99.333642 
L 304.452893 99.367804 
L 310.601653 99.405151 
L 316.750413 99.442854 
L 322.899174 99.475369 
L 329.047934 99.509677 
L 335.196694 99.54041 
L 341.345455 99.581682 
L 347.494215 99.615658 
L 353.642975 99.640911 
L 359.791736 99.689061 
L 365.940496 99.717042 
L 372.089256 99.749477 
L 378.238017 99.786755 
L 384.386777 99.814518 
L 390.535537 99.855138 
L 396.684298 99.880053 
L 402.833058 99.916156 
L 408.981818 99.947796 
L 415.130579 99.970464 
L 421.279339 100.013221 
L 427.428099 100.041152 
L 433.57686 100.071597 
L 439.72562 100.100096 
L 445.87438 100.139043 
L 452.02314 100.163567 
L 458.171901 100.20061 
L 464.320661 100.224068 
L 470.469421 100.257085 
L 476.618182 100.288152 
L 482.766942 100.320849 
L 488.915702 100.342385 
L 495.064463 100.380356 
L 501.213223 100.406768 
L 507.361983 100.426179 
L 513.510744 100.461013 
L 519.659504 100.490087 
L 525.808264 100.519527 
L 531.957025 100.543156 
L 538.105785 100.568648 
L 544.254545 100.596413 
L 550.403306 100.616281 
L 556.552066 100.647414 
L 562.700826 100.671634 
L 568.849587 100.702524 
L 574.998347 100.729558 
L 581.147107 100.753284 
L 587.295868 100.781024 
L 593.444628 100.800047 
L 599.593388 100.829056 
L 605.742149 100.854002 
L 611.890909 100.879674 
L 618.039669 100.906066 
L 624.18843 100.926325 
L 630.33719 100.955004 
L 636.48595 100.980593 
L 642.634711 101.000736 
L 648.783471 101.022172 
L 654.932231 101.040856 
L 661.080992 101.066372 
L 667.229752 101.087981 
L 673.378512 101.112094 
L 679.527273 101.134308 
L 685.676033 101.152751 
L 691.824793 101.177261 
L 697.973554 101.195597 
L 704.122314 101.223054 
L 710.271074 101.238752 
L 716.419835 101.258242 
L 722.568595 101.27501 
L 728.717355 101.303839 
L 734.866116 101.317446 
L 741.014876 101.340935 
L 747.163636 101.363582 
" style="fill:none;stroke:#a2d2ff;stroke-linecap:square;stroke-width:0.5;"/>
   </g>
   <g id="patch_3">
    <path d="M 108 378 
L 108 51.84 
" style="fill:none;stroke:#000000;stroke-linecap:square;stroke-linejoin:miter;stroke-width:0.8;"/>
   </g>
   <g id="patch_4">
    <path d="M 108 378 
L 777.6 378 
" style="fill:none;stroke:#000000;stroke-linecap:square;stroke-linejoin:miter;stroke-width:0.8;"/>
   </g>
  </g>
 </g>
 <defs>
  <clipPath id="pf73215ec87">
   <rect height="326.16" width="669.6" x="108" y="51.84"/>
  </clipPath>
 </defs>
</svg>
