<?xml version="1.0" encoding="utf-8" standalone="no"?>
<!DOCTYPE svg PUBLIC "-//W3C//DTD SVG 1.1//EN"
  "http://www.w3.org/Graphics/SVG/1.1/DTD/svg11.dtd">
<svg xmlns:xlink="http://www.w3.org/1999/xlink" width="864pt" height="432pt" viewBox="0 0 864 432" xmlns="http://www.w3.org/2000/svg" version="1.1">
 <metadata>
  <rdf:RDF xmlns:dc="http://purl.org/dc/elements/1.1/" xmlns:cc="http://creativecommons.org/ns#" xmlns:rdf="http://www.w3.org/1999/02/22-rdf-syntax-ns#">
   <cc:Work>
    <dc:type rdf:resource="http://purl.org/dc/dcmitype/StillImage"/>
    <dc:date>2022-05-27T10:33:41.746462</dc:date>
    <dc:format>image/svg+xml</dc:format>
    <dc:creator>
     <cc:Agent>
      <dc:title>Matplotlib v3.5.1, https://matplotlib.org/</dc:title>
     </cc:Agent>
    </dc:creator>
   </cc:Work>
  </rdf:RDF>
 </metadata>
 <defs>
  <style type="text/css">*{stroke-linejoin: round; stroke-linecap: butt}</style>
 </defs>
 <g id="figure_1">
  <g id="patch_1">
   <path d="M 0 432 
L 864 432 
L 864 0 
L 0 0 
L 0 432 
z
" style="fill: none"/>
  </g>
  <g id="axes_1">
   <g id="patch_2">
    <path d="M 108 378 
L 777.6 378 
L 777.6 51.84 
L 108 51.84 
z
" style="fill: #ffffff"/>
   </g>
   <g id="PolyCollection_1">
    <path d="M 108 125.829381 
L 108 303.316057 
L 118.145455 303.316057 
L 128.290909 303.316057 
L 138.436364 303.316057 
L 148.581818 303.316078 
L 158.727273 303.321319 
L 168.872727 303.591863 
L 179.018182 303.075252 
L 189.163636 263.028796 
L 199.309091 291.606399 
L 209.454545 304.168403 
L 219.6 303.363192 
L 229.745455 303.316453 
L 239.890909 303.313516 
L 250.036364 303.103321 
L 260.181818 297.884676 
L 270.327273 251.458059 
L 280.472727 251.380268 
L 290.618182 295.248371 
L 300.763636 270.201177 
L 310.909091 224.129437 
L 321.054545 289.73978 
L 331.2 302.577842 
L 341.345455 303.302693 
L 351.490909 303.316 
L 361.636364 303.31659 
L 371.781818 303.391788 
L 381.927273 305.573934 
L 392.072727 307.839695 
L 402.218182 276.764102 
L 412.363636 309.78919 
L 422.509091 304.456764 
L 432.654545 303.341265 
L 442.8 303.31618 
L 452.945455 303.316057 
L 463.090909 303.316057 
L 473.236364 303.316057 
L 483.381818 303.316057 
L 493.527273 303.316057 
L 503.672727 303.316057 
L 513.818182 303.316057 
L 523.963636 303.316057 
L 534.109091 303.316057 
L 544.254545 303.316057 
L 554.4 303.316057 
L 564.545455 303.31605 
L 574.690909 303.313514 
L 584.836364 303.103244 
L 594.981818 297.883236 
L 605.127273 251.452406 
L 615.272727 251.452406 
L 625.418182 297.883236 
L 635.563636 303.103244 
L 645.709091 303.313514 
L 655.854545 303.31605 
L 666 303.316057 
L 676.145455 303.316057 
L 686.290909 303.316057 
L 696.436364 303.316057 
L 706.581818 303.316057 
L 716.727273 303.316057 
L 726.872727 303.316057 
L 737.018182 303.316057 
L 747.163636 303.316057 
L 757.309091 303.316057 
L 767.454545 303.316057 
L 777.6 303.316057 
L 787.745455 303.316057 
L 797.890909 303.316057 
L 808.036364 303.316057 
L 818.181818 303.316057 
L 828.327273 303.316057 
L 838.472727 303.316057 
L 848.618182 303.316057 
L 858.763636 303.316057 
L 868.909091 303.316057 
L 879.054545 303.316057 
L 889.2 303.316057 
L 899.345455 303.316057 
L 909.490909 303.316057 
L 919.636364 303.316057 
L 929.781818 303.316057 
L 939.927273 303.316057 
L 950.072727 303.316057 
L 960.218182 303.316057 
L 970.363636 303.316057 
L 980.509091 303.316057 
L 990.654545 303.316057 
L 1000.8 303.316057 
L 1010.945455 303.316057 
L 1021.090909 303.316057 
L 1031.236364 303.316057 
L 1041.381818 303.316057 
L 1051.527273 303.316057 
L 1061.672727 303.316057 
L 1071.818182 303.316057 
L 1081.963636 303.316057 
L 1092.109091 303.316057 
L 1102.254545 303.316057 
L 1112.4 303.316057 
L 1112.4 125.829381 
L 1112.4 125.829381 
L 1102.254545 125.829381 
L 1092.109091 125.829381 
L 1081.963636 125.829381 
L 1071.818182 125.829381 
L 1061.672727 125.829381 
L 1051.527273 125.829381 
L 1041.381818 125.829381 
L 1031.236364 125.829381 
L 1021.090909 125.829381 
L 1010.945455 125.829381 
L 1000.8 125.829381 
L 990.654545 125.829381 
L 980.509091 125.829381 
L 970.363636 125.829381 
L 960.218182 125.829381 
L 950.072727 125.829381 
L 939.927273 125.829381 
L 929.781818 125.829381 
L 919.636364 125.829381 
L 909.490909 125.829381 
L 899.345455 125.829381 
L 889.2 125.829381 
L 879.054545 125.829381 
L 868.909091 125.829381 
L 858.763636 125.829381 
L 848.618182 125.829381 
L 838.472727 125.829381 
L 828.327273 125.829381 
L 818.181818 125.829381 
L 808.036364 125.829381 
L 797.890909 125.829381 
L 787.745455 125.829381 
L 777.6 125.829381 
L 767.454545 125.829381 
L 757.309091 125.829381 
L 747.163636 125.829381 
L 737.018182 125.829381 
L 726.872727 125.829381 
L 716.727273 125.829381 
L 706.581818 125.829381 
L 696.436364 125.829381 
L 686.290909 125.829381 
L 676.145455 125.829381 
L 666 125.829381 
L 655.854545 125.829374 
L 645.709091 125.82684 
L 635.563636 125.624862 
L 625.418182 123.380049 
L 615.272727 143.437812 
L 605.127273 143.437812 
L 594.981818 123.380049 
L 584.836364 125.624862 
L 574.690909 125.82684 
L 564.545455 125.829374 
L 554.4 125.829381 
L 544.254545 125.829381 
L 534.109091 125.829381 
L 523.963636 125.829381 
L 513.818182 125.829381 
L 503.672727 125.829381 
L 493.527273 125.829381 
L 483.381818 125.829381 
L 473.236364 125.829381 
L 463.090909 125.829381 
L 452.945455 125.829382 
L 442.8 125.829504 
L 432.654545 125.854637 
L 422.509091 127.076144 
L 412.363636 145.347117 
L 402.218182 217.48748 
L 392.072727 158.83252 
L 381.927273 128.548631 
L 371.781818 125.905542 
L 361.636364 125.829915 
L 351.490909 125.829324 
L 341.345455 125.816041 
L 331.2 125.157009 
L 321.054545 122.260587 
L 310.909091 157.060074 
L 300.763636 127.668804 
L 290.618182 121.448334 
L 280.472727 143.366787 
L 270.327273 143.443471 
L 260.181818 123.38149 
L 250.036364 125.624939 
L 239.890909 125.826842 
L 229.745455 125.829777 
L 219.6 125.877722 
L 209.454545 127.580642 
L 199.309091 153.876243 
L 189.163636 189.705027 
L 179.018182 133.906951 
L 168.872727 126.152667 
L 158.727273 125.834658 
L 148.581818 125.829403 
L 138.436364 125.829381 
L 128.290909 125.829381 
L 118.145455 125.829381 
L 108 125.829381 
z
" clip-path="url(#pe808fd42aa)" style="fill: #a2d2ff; fill-opacity: 0.25; stroke: #a2d2ff; stroke-opacity: 0.25"/>
   </g>
   <g id="matplotlib.axis_1">
    <g id="xtick_1">
     <g id="line2d_1">
      <defs>
       <path id="m0056f47888" d="M 0 0 
L 0 3.5 
" style="stroke: #000000; stroke-width: 0.8"/>
      </defs>
      <g>
       <use xlink:href="#m0056f47888" x="108" y="378" style="stroke: #000000; stroke-width: 0.8"/>
      </g>
     </g>
     <g id="text_1">
      <!-- −0.1 -->
      <g transform="translate(83.717187 400.196875)scale(0.2 -0.2)">
       <defs>
        <path id="DejaVuSans-2212" d="M 678 2272 
L 4684 2272 
L 4684 1741 
L 678 1741 
L 678 2272 
z
" transform="scale(0.015625)"/>
        <path id="DejaVuSans-30" d="M 2034 4250 
Q 1547 4250 1301 3770 
Q 1056 3291 1056 2328 
Q 1056 1369 1301 889 
Q 1547 409 2034 409 
Q 2525 409 2770 889 
Q 3016 1369 3016 2328 
Q 3016 3291 2770 3770 
Q 2525 4250 2034 4250 
z
M 2034 4750 
Q 2819 4750 3233 4129 
Q 3647 3509 3647 2328 
Q 3647 1150 3233 529 
Q 2819 -91 2034 -91 
Q 1250 -91 836 529 
Q 422 1150 422 2328 
Q 422 3509 836 4129 
Q 1250 4750 2034 4750 
z
" transform="scale(0.015625)"/>
        <path id="DejaVuSans-2e" d="M 684 794 
L 1344 794 
L 1344 0 
L 684 0 
L 684 794 
z
" transform="scale(0.015625)"/>
        <path id="DejaVuSans-31" d="M 794 531 
L 1825 531 
L 1825 4091 
L 703 3866 
L 703 4441 
L 1819 4666 
L 2450 4666 
L 2450 531 
L 3481 531 
L 3481 0 
L 794 0 
L 794 531 
z
" transform="scale(0.015625)"/>
       </defs>
       <use xlink:href="#DejaVuSans-2212"/>
       <use xlink:href="#DejaVuSans-30" x="83.789062"/>
       <use xlink:href="#DejaVuSans-2e" x="147.412109"/>
       <use xlink:href="#DejaVuSans-31" x="179.199219"/>
      </g>
     </g>
    </g>
    <g id="xtick_2">
     <g id="line2d_2">
      <g>
       <use xlink:href="#m0056f47888" x="191.7" y="378" style="stroke: #000000; stroke-width: 0.8"/>
      </g>
     </g>
     <g id="text_2">
      <!-- 0.0 -->
      <g transform="translate(175.796875 400.196875)scale(0.2 -0.2)">
       <use xlink:href="#DejaVuSans-30"/>
       <use xlink:href="#DejaVuSans-2e" x="63.623047"/>
       <use xlink:href="#DejaVuSans-30" x="95.410156"/>
      </g>
     </g>
    </g>
    <g id="xtick_3">
     <g id="line2d_3">
      <g>
       <use xlink:href="#m0056f47888" x="275.4" y="378" style="stroke: #000000; stroke-width: 0.8"/>
      </g>
     </g>
     <g id="text_3">
      <!-- 0.1 -->
      <g transform="translate(259.496875 400.196875)scale(0.2 -0.2)">
       <use xlink:href="#DejaVuSans-30"/>
       <use xlink:href="#DejaVuSans-2e" x="63.623047"/>
       <use xlink:href="#DejaVuSans-31" x="95.410156"/>
      </g>
     </g>
    </g>
    <g id="xtick_4">
     <g id="line2d_4">
      <g>
       <use xlink:href="#m0056f47888" x="359.1" y="378" style="stroke: #000000; stroke-width: 0.8"/>
      </g>
     </g>
     <g id="text_4">
      <!-- 0.2 -->
      <g transform="translate(343.196875 400.196875)scale(0.2 -0.2)">
       <defs>
        <path id="DejaVuSans-32" d="M 1228 531 
L 3431 531 
L 3431 0 
L 469 0 
L 469 531 
Q 828 903 1448 1529 
Q 2069 2156 2228 2338 
Q 2531 2678 2651 2914 
Q 2772 3150 2772 3378 
Q 2772 3750 2511 3984 
Q 2250 4219 1831 4219 
Q 1534 4219 1204 4116 
Q 875 4013 500 3803 
L 500 4441 
Q 881 4594 1212 4672 
Q 1544 4750 1819 4750 
Q 2544 4750 2975 4387 
Q 3406 4025 3406 3419 
Q 3406 3131 3298 2873 
Q 3191 2616 2906 2266 
Q 2828 2175 2409 1742 
Q 1991 1309 1228 531 
z
" transform="scale(0.015625)"/>
       </defs>
       <use xlink:href="#DejaVuSans-30"/>
       <use xlink:href="#DejaVuSans-2e" x="63.623047"/>
       <use xlink:href="#DejaVuSans-32" x="95.410156"/>
      </g>
     </g>
    </g>
    <g id="xtick_5">
     <g id="line2d_5">
      <g>
       <use xlink:href="#m0056f47888" x="442.8" y="378" style="stroke: #000000; stroke-width: 0.8"/>
      </g>
     </g>
     <g id="text_5">
      <!-- 0.3 -->
      <g transform="translate(426.896875 400.196875)scale(0.2 -0.2)">
       <defs>
        <path id="DejaVuSans-33" d="M 2597 2516 
Q 3050 2419 3304 2112 
Q 3559 1806 3559 1356 
Q 3559 666 3084 287 
Q 2609 -91 1734 -91 
Q 1441 -91 1130 -33 
Q 819 25 488 141 
L 488 750 
Q 750 597 1062 519 
Q 1375 441 1716 441 
Q 2309 441 2620 675 
Q 2931 909 2931 1356 
Q 2931 1769 2642 2001 
Q 2353 2234 1838 2234 
L 1294 2234 
L 1294 2753 
L 1863 2753 
Q 2328 2753 2575 2939 
Q 2822 3125 2822 3475 
Q 2822 3834 2567 4026 
Q 2313 4219 1838 4219 
Q 1578 4219 1281 4162 
Q 984 4106 628 3988 
L 628 4550 
Q 988 4650 1302 4700 
Q 1616 4750 1894 4750 
Q 2613 4750 3031 4423 
Q 3450 4097 3450 3541 
Q 3450 3153 3228 2886 
Q 3006 2619 2597 2516 
z
" transform="scale(0.015625)"/>
       </defs>
       <use xlink:href="#DejaVuSans-30"/>
       <use xlink:href="#DejaVuSans-2e" x="63.623047"/>
       <use xlink:href="#DejaVuSans-33" x="95.410156"/>
      </g>
     </g>
    </g>
    <g id="xtick_6">
     <g id="line2d_6">
      <g>
       <use xlink:href="#m0056f47888" x="526.5" y="378" style="stroke: #000000; stroke-width: 0.8"/>
      </g>
     </g>
     <g id="text_6">
      <!-- 0.4 -->
      <g transform="translate(510.596875 400.196875)scale(0.2 -0.2)">
       <defs>
        <path id="DejaVuSans-34" d="M 2419 4116 
L 825 1625 
L 2419 1625 
L 2419 4116 
z
M 2253 4666 
L 3047 4666 
L 3047 1625 
L 3713 1625 
L 3713 1100 
L 3047 1100 
L 3047 0 
L 2419 0 
L 2419 1100 
L 313 1100 
L 313 1709 
L 2253 4666 
z
" transform="scale(0.015625)"/>
       </defs>
       <use xlink:href="#DejaVuSans-30"/>
       <use xlink:href="#DejaVuSans-2e" x="63.623047"/>
       <use xlink:href="#DejaVuSans-34" x="95.410156"/>
      </g>
     </g>
    </g>
    <g id="xtick_7">
     <g id="line2d_7">
      <g>
       <use xlink:href="#m0056f47888" x="610.2" y="378" style="stroke: #000000; stroke-width: 0.8"/>
      </g>
     </g>
     <g id="text_7">
      <!-- 0.5 -->
      <g transform="translate(594.296875 400.196875)scale(0.2 -0.2)">
       <defs>
        <path id="DejaVuSans-35" d="M 691 4666 
L 3169 4666 
L 3169 4134 
L 1269 4134 
L 1269 2991 
Q 1406 3038 1543 3061 
Q 1681 3084 1819 3084 
Q 2600 3084 3056 2656 
Q 3513 2228 3513 1497 
Q 3513 744 3044 326 
Q 2575 -91 1722 -91 
Q 1428 -91 1123 -41 
Q 819 9 494 109 
L 494 744 
Q 775 591 1075 516 
Q 1375 441 1709 441 
Q 2250 441 2565 725 
Q 2881 1009 2881 1497 
Q 2881 1984 2565 2268 
Q 2250 2553 1709 2553 
Q 1456 2553 1204 2497 
Q 953 2441 691 2322 
L 691 4666 
z
" transform="scale(0.015625)"/>
       </defs>
       <use xlink:href="#DejaVuSans-30"/>
       <use xlink:href="#DejaVuSans-2e" x="63.623047"/>
       <use xlink:href="#DejaVuSans-35" x="95.410156"/>
      </g>
     </g>
    </g>
    <g id="xtick_8">
     <g id="line2d_8">
      <g>
       <use xlink:href="#m0056f47888" x="693.9" y="378" style="stroke: #000000; stroke-width: 0.8"/>
      </g>
     </g>
     <g id="text_8">
      <!-- 0.6 -->
      <g transform="translate(677.996875 400.196875)scale(0.2 -0.2)">
       <defs>
        <path id="DejaVuSans-36" d="M 2113 2584 
Q 1688 2584 1439 2293 
Q 1191 2003 1191 1497 
Q 1191 994 1439 701 
Q 1688 409 2113 409 
Q 2538 409 2786 701 
Q 3034 994 3034 1497 
Q 3034 2003 2786 2293 
Q 2538 2584 2113 2584 
z
M 3366 4563 
L 3366 3988 
Q 3128 4100 2886 4159 
Q 2644 4219 2406 4219 
Q 1781 4219 1451 3797 
Q 1122 3375 1075 2522 
Q 1259 2794 1537 2939 
Q 1816 3084 2150 3084 
Q 2853 3084 3261 2657 
Q 3669 2231 3669 1497 
Q 3669 778 3244 343 
Q 2819 -91 2113 -91 
Q 1303 -91 875 529 
Q 447 1150 447 2328 
Q 447 3434 972 4092 
Q 1497 4750 2381 4750 
Q 2619 4750 2861 4703 
Q 3103 4656 3366 4563 
z
" transform="scale(0.015625)"/>
       </defs>
       <use xlink:href="#DejaVuSans-30"/>
       <use xlink:href="#DejaVuSans-2e" x="63.623047"/>
       <use xlink:href="#DejaVuSans-36" x="95.410156"/>
      </g>
     </g>
    </g>
    <g id="xtick_9">
     <g id="line2d_9">
      <g>
       <use xlink:href="#m0056f47888" x="777.6" y="378" style="stroke: #000000; stroke-width: 0.8"/>
      </g>
     </g>
     <g id="text_9">
      <!-- 0.7 -->
      <g transform="translate(761.696875 400.196875)scale(0.2 -0.2)">
       <defs>
        <path id="DejaVuSans-37" d="M 525 4666 
L 3525 4666 
L 3525 4397 
L 1831 0 
L 1172 0 
L 2766 4134 
L 525 4134 
L 525 4666 
z
" transform="scale(0.015625)"/>
       </defs>
       <use xlink:href="#DejaVuSans-30"/>
       <use xlink:href="#DejaVuSans-2e" x="63.623047"/>
       <use xlink:href="#DejaVuSans-37" x="95.410156"/>
      </g>
     </g>
    </g>
   </g>
   <g id="matplotlib.axis_2">
    <g id="ytick_1">
     <g id="line2d_10">
      <defs>
       <path id="md45af70a3c" d="M 0 0 
L -3.5 0 
" style="stroke: #000000; stroke-width: 0.8"/>
      </defs>
      <g>
       <use xlink:href="#md45af70a3c" x="108" y="350.404359" style="stroke: #000000; stroke-width: 0.8"/>
      </g>
     </g>
     <g id="text_10">
      <!-- −3 -->
      <g transform="translate(71.515625 358.002796)scale(0.2 -0.2)">
       <use xlink:href="#DejaVuSans-2212"/>
       <use xlink:href="#DejaVuSans-33" x="83.789062"/>
      </g>
     </g>
    </g>
    <g id="ytick_2">
     <g id="line2d_11">
      <g>
       <use xlink:href="#md45af70a3c" x="108" y="305.127145" style="stroke: #000000; stroke-width: 0.8"/>
      </g>
     </g>
     <g id="text_11">
      <!-- −2 -->
      <g transform="translate(71.515625 312.725583)scale(0.2 -0.2)">
       <use xlink:href="#DejaVuSans-2212"/>
       <use xlink:href="#DejaVuSans-32" x="83.789062"/>
      </g>
     </g>
    </g>
    <g id="ytick_3">
     <g id="line2d_12">
      <g>
       <use xlink:href="#md45af70a3c" x="108" y="259.849932" style="stroke: #000000; stroke-width: 0.8"/>
      </g>
     </g>
     <g id="text_12">
      <!-- −1 -->
      <g transform="translate(71.515625 267.44837)scale(0.2 -0.2)">
       <use xlink:href="#DejaVuSans-2212"/>
       <use xlink:href="#DejaVuSans-31" x="83.789062"/>
      </g>
     </g>
    </g>
    <g id="ytick_4">
     <g id="line2d_13">
      <g>
       <use xlink:href="#md45af70a3c" x="108" y="214.572719" style="stroke: #000000; stroke-width: 0.8"/>
      </g>
     </g>
     <g id="text_13">
      <!-- 0 -->
      <g transform="translate(88.275 222.171157)scale(0.2 -0.2)">
       <use xlink:href="#DejaVuSans-30"/>
      </g>
     </g>
    </g>
    <g id="ytick_5">
     <g id="line2d_14">
      <g>
       <use xlink:href="#md45af70a3c" x="108" y="169.295506" style="stroke: #000000; stroke-width: 0.8"/>
      </g>
     </g>
     <g id="text_14">
      <!-- 1 -->
      <g transform="translate(88.275 176.893944)scale(0.2 -0.2)">
       <use xlink:href="#DejaVuSans-31"/>
      </g>
     </g>
    </g>
    <g id="ytick_6">
     <g id="line2d_15">
      <g>
       <use xlink:href="#md45af70a3c" x="108" y="124.018293" style="stroke: #000000; stroke-width: 0.8"/>
      </g>
     </g>
     <g id="text_15">
      <!-- 2 -->
      <g transform="translate(88.275 131.61673)scale(0.2 -0.2)">
       <use xlink:href="#DejaVuSans-32"/>
      </g>
     </g>
    </g>
    <g id="ytick_7">
     <g id="line2d_16">
      <g>
       <use xlink:href="#md45af70a3c" x="108" y="78.74108" style="stroke: #000000; stroke-width: 0.8"/>
      </g>
     </g>
     <g id="text_16">
      <!-- 3 -->
      <g transform="translate(88.275 86.339517)scale(0.2 -0.2)">
       <use xlink:href="#DejaVuSans-33"/>
      </g>
     </g>
    </g>
   </g>
   <g id="line2d_17">
    <path d="M 108 214.572719 
L 118.145455 214.572719 
L 128.290909 214.572719 
L 138.436364 214.572719 
L 148.581818 214.572741 
L 158.727273 214.577988 
L 168.872727 214.872265 
L 179.018182 218.491101 
L 189.163636 226.366911 
L 199.309091 222.741321 
L 209.454545 215.874523 
L 219.6 214.620457 
L 229.745455 214.573115 
L 239.890909 214.570179 
L 250.036364 214.36413 
L 260.181818 210.633083 
L 270.327273 197.450765 
L 280.472727 197.373527 
L 290.618182 208.348352 
L 300.763636 198.93499 
L 310.909091 190.594755 
L 321.054545 206.000183 
L 331.2 213.867426 
L 341.345455 214.559367 
L 351.490909 214.572662 
L 361.636364 214.573252 
L 371.781818 214.648665 
L 381.927273 217.061282 
L 392.072727 233.336108 
L 402.218182 247.125791 
L 412.363636 227.568153 
L 422.509091 215.766454 
L 432.654545 214.597951 
L 442.8 214.572842 
L 452.945455 214.572719 
L 463.090909 214.572719 
L 473.236364 214.572719 
L 483.381818 214.572719 
L 493.527273 214.572719 
L 503.672727 214.572719 
L 513.818182 214.572719 
L 523.963636 214.572719 
L 534.109091 214.572719 
L 544.254545 214.572719 
L 554.4 214.572719 
L 564.545455 214.572712 
L 574.690909 214.570177 
L 584.836364 214.364053 
L 594.981818 210.631642 
L 605.127273 197.445109 
L 615.272727 197.445109 
L 625.418182 210.631642 
L 635.563636 214.364053 
L 645.709091 214.570177 
L 655.854545 214.572712 
L 666 214.572719 
L 676.145455 214.572719 
L 686.290909 214.572719 
L 696.436364 214.572719 
L 706.581818 214.572719 
L 716.727273 214.572719 
L 726.872727 214.572719 
L 737.018182 214.572719 
L 747.163636 214.572719 
L 757.309091 214.572719 
L 767.454545 214.572719 
L 777.6 214.572719 
L 787.745455 214.572719 
L 797.890909 214.572719 
L 808.036364 214.572719 
L 818.181818 214.572719 
L 828.327273 214.572719 
L 838.472727 214.572719 
L 848.618182 214.572719 
L 858.763636 214.572719 
L 865 214.572719 
" clip-path="url(#pe808fd42aa)" style="fill: none; stroke: #1f77b4; stroke-width: 2; stroke-linecap: square"/>
   </g>
   <g id="line2d_18">
    <path d="M 108 194.383568 
L 118.145455 222.396945 
L 128.290909 174.067651 
L 138.436364 182.506427 
L 148.581818 240.035695 
L 158.727273 258.293831 
L 168.872727 239.423283 
L 179.018182 181.164214 
L 189.163636 215.395528 
L 199.309091 265.324168 
L 209.454545 265.423999 
L 219.6 197.954804 
L 229.745455 168.181658 
L 239.890909 204.072503 
L 250.036364 203.092044 
L 260.181818 238.400823 
L 270.327273 220.924112 
L 280.472727 190.562116 
L 290.618182 230.51393 
L 300.763636 227.641101 
L 310.909091 196.780368 
L 321.054545 231.673775 
L 331.2 258.156691 
L 341.345455 290.430235 
L 351.490909 292.737547 
L 361.636364 216.37265 
L 371.781818 196.145887 
L 381.927273 188.212479 
L 392.072727 205.476456 
L 402.218182 258.77822 
L 412.363636 235.269787 
L 422.509091 210.96136 
L 432.654545 261.457457 
L 442.8 232.266628 
L 452.945455 243.067874 
L 463.090909 245.152376 
L 473.236364 214.540996 
L 483.381818 194.994082 
L 493.527273 251.466729 
L 503.672727 260.090741 
L 513.818182 254.760244 
L 523.963636 273.063051 
L 534.109091 241.261954 
L 544.254545 243.151916 
L 554.4 200.190921 
L 564.545455 172.819917 
L 574.690909 122.372228 
L 584.836364 212.055111 
L 594.981818 248.847157 
L 605.127273 221.666933 
L 615.272727 157.364289 
L 625.418182 148.851646 
L 635.563636 175.246285 
L 645.709091 221.35673 
L 655.854545 213.802331 
L 666 201.796037 
L 676.145455 242.44343 
L 686.290909 220.708595 
L 696.436364 203.847844 
L 706.581818 250.443989 
L 716.727273 226.492698 
L 726.872727 190.825325 
L 737.018182 167.387983 
L 747.163636 211.330722 
L 757.309091 195.942705 
L 767.454545 269.917261 
L 777.6 242.756494 
L 787.745455 242.561985 
L 797.890909 244.085812 
L 808.036364 252.325606 
L 818.181818 254.918164 
L 828.327273 270.524182 
L 838.472727 242.453917 
L 848.618182 212.46794 
L 858.763636 231.543094 
L 865 215.186572 
" clip-path="url(#pe808fd42aa)" style="fill: none; stroke: #a2d2ff; stroke-width: 0.5; stroke-linecap: square"/>
   </g>
   <g id="line2d_19">
    <path d="M 108 149.374987 
L 118.145455 174.965632 
L 128.290909 254.806911 
L 138.436364 148.412047 
L 148.581818 205.243879 
L 158.727273 246.50586 
L 168.872727 252.488561 
L 179.018182 251.675394 
L 189.163636 217.485344 
L 199.309091 215.112888 
L 209.454545 202.052641 
L 219.6 245.621143 
L 229.745455 218.356581 
L 239.890909 228.889209 
L 250.036364 223.401071 
L 260.181818 206.683797 
L 270.327273 226.06801 
L 280.472727 188.433062 
L 290.618182 193.165932 
L 300.763636 199.788748 
L 310.909091 193.74409 
L 321.054545 224.473792 
L 331.2 290.703782 
L 341.345455 236.970416 
L 351.490909 203.422688 
L 361.636364 194.190233 
L 371.781818 205.94298 
L 381.927273 200.822842 
L 392.072727 202.413113 
L 402.218182 259.763421 
L 412.363636 287.473753 
L 422.509091 268.491189 
L 432.654545 232.940048 
L 442.8 277.452589 
L 452.945455 272.278821 
L 463.090909 311.13627 
L 473.236364 240.426853 
L 483.381818 162.109278 
L 493.527273 168.214899 
L 503.672727 185.509721 
L 513.818182 259.74565 
L 523.963636 255.745396 
L 534.109091 170.732814 
L 544.254545 256.456439 
L 554.4 329.51928 
L 564.545455 264.686224 
L 574.690909 184.574896 
L 584.836364 173.775481 
L 594.981818 132.614353 
L 605.127273 147.662554 
L 615.272727 224.880107 
L 625.418182 198.542382 
L 635.563636 177.97884 
L 645.709091 165.696796 
L 655.854545 208.099355 
L 666 203.651426 
L 676.145455 144.963904 
L 686.290909 156.453075 
L 696.436364 136.199589 
L 706.581818 223.685186 
L 716.727273 197.591995 
L 726.872727 129.933859 
L 737.018182 156.098118 
L 747.163636 139.877143 
L 757.309091 161.196038 
L 767.454545 161.714416 
L 777.6 201.322641 
L 787.745455 155.713047 
L 797.890909 164.992593 
L 808.036364 187.168431 
L 818.181818 196.063809 
L 828.327273 141.870479 
L 838.472727 128.070077 
L 848.618182 198.278788 
L 858.763636 239.257021 
L 865 250.76 
" clip-path="url(#pe808fd42aa)" style="fill: none; stroke: #a2d2ff; stroke-width: 0.5; stroke-linecap: square"/>
   </g>
   <g id="line2d_20">
    <path d="M 108 277.347051 
L 118.145455 249.366044 
L 128.290909 143.455633 
L 138.436364 167.841839 
L 148.581818 212.586459 
L 158.727273 166.951974 
L 168.872727 157.740438 
L 179.018182 211.456992 
L 189.163636 265.022582 
L 199.309091 157.252539 
L 209.454545 191.036971 
L 219.6 262.935611 
L 229.745455 322.947476 
L 239.890909 293.91675 
L 250.036364 201.193349 
L 260.181818 173.027291 
L 270.327273 192.184777 
L 280.472727 199.791147 
L 290.618182 248.663797 
L 300.763636 249.568461 
L 310.909091 172.411438 
L 321.054545 222.711143 
L 331.2 225.413816 
L 341.345455 219.886783 
L 351.490909 155.615974 
L 361.636364 210.34925 
L 371.781818 209.368103 
L 381.927273 245.682782 
L 392.072727 266.703219 
L 402.218182 232.075309 
L 412.363636 228.690821 
L 422.509091 216.26635 
L 432.654545 198.827931 
L 442.8 172.573905 
L 452.945455 182.002553 
L 463.090909 206.394726 
L 473.236364 211.13649 
L 483.381818 200.777073 
L 493.527273 294.684336 
L 503.672727 294.969264 
L 513.818182 251.515434 
L 523.963636 215.794417 
L 534.109091 211.239634 
L 544.254545 229.575609 
L 554.4 223.514458 
L 564.545455 222.066156 
L 574.690909 158.92964 
L 584.836364 145.608213 
L 594.981818 108.936489 
L 605.127273 153.061101 
L 615.272727 170.462339 
L 625.418182 192.839421 
L 635.563636 220.703641 
L 645.709091 189.518743 
L 655.854545 147.498513 
L 666 215.504541 
L 676.145455 230.513965 
L 686.290909 203.170444 
L 696.436364 203.475233 
L 706.581818 245.970414 
L 716.727273 243.772829 
L 726.872727 178.873153 
L 737.018182 145.799258 
L 747.163636 194.753435 
L 757.309091 177.547573 
L 767.454545 173.030356 
L 777.6 169.924535 
L 787.745455 109.914026 
L 797.890909 196.067097 
L 808.036364 195.802281 
L 818.181818 71.318842 
L 828.327273 110.808199 
L 838.472727 243.524316 
L 848.618182 233.600546 
L 858.763636 288.708018 
L 865 285.022704 
" clip-path="url(#pe808fd42aa)" style="fill: none; stroke: #a2d2ff; stroke-width: 0.5; stroke-linecap: square"/>
   </g>
   <g id="line2d_21">
    <path d="M 108 191.398685 
L 118.145455 157.934207 
L 128.290909 207.918478 
L 138.436364 180.119183 
L 148.581818 212.062827 
L 158.727273 220.388759 
L 168.872727 211.140896 
L 179.018182 169.488222 
L 189.163636 216.874053 
L 199.309091 237.887987 
L 209.454545 189.426026 
L 219.6 229.580831 
L 229.745455 285.818787 
L 239.890909 265.903123 
L 250.036364 232.983036 
L 260.181818 218.864792 
L 270.327273 206.16546 
L 280.472727 171.699466 
L 290.618182 150.425523 
L 300.763636 218.231697 
L 310.909091 168.892905 
L 321.054545 197.159331 
L 331.2 226.259011 
L 341.345455 194.557451 
L 351.490909 200.863276 
L 361.636364 221.451095 
L 371.781818 176.650795 
L 381.927273 172.578969 
L 392.072727 248.586198 
L 402.218182 245.18583 
L 412.363636 241.994051 
L 422.509091 180.423979 
L 432.654545 269.328907 
L 442.8 286.280902 
L 452.945455 260.524264 
L 463.090909 235.471014 
L 473.236364 208.463672 
L 483.381818 272.247498 
L 493.527273 216.518337 
L 503.672727 261.09132 
L 513.818182 239.655113 
L 523.963636 253.237888 
L 534.109091 154.547213 
L 544.254545 92.710835 
L 554.4 178.126381 
L 564.545455 285.642319 
L 574.690909 281.471901 
L 584.836364 250.298137 
L 594.981818 213.831852 
L 605.127273 197.508526 
L 615.272727 172.603521 
L 625.418182 179.540542 
L 635.563636 235.276403 
L 645.709091 266.591207 
L 655.854545 311.86236 
L 666 267.049564 
L 676.145455 245.722541 
L 686.290909 198.629179 
L 696.436364 257.045858 
L 706.581818 251.10536 
L 716.727273 252.407052 
L 726.872727 239.384119 
L 737.018182 231.722954 
L 747.163636 170.166175 
L 757.309091 214.269312 
L 767.454545 253.814406 
L 777.6 208.02903 
L 787.745455 175.29478 
L 797.890909 138.378325 
L 808.036364 175.60502 
L 818.181818 226.79873 
L 828.327273 260.632143 
L 838.472727 260.625571 
L 848.618182 232.610177 
L 858.763636 231.907202 
L 865 237.55754 
" clip-path="url(#pe808fd42aa)" style="fill: none; stroke: #a2d2ff; stroke-width: 0.5; stroke-linecap: square"/>
   </g>
   <g id="line2d_22">
    <path d="M 108 174.7451 
L 118.145455 231.999673 
L 128.290909 282.521278 
L 138.436364 265.885318 
L 148.581818 198.922754 
L 158.727273 206.309467 
L 168.872727 244.670314 
L 179.018182 283.328327 
L 189.163636 241.419799 
L 199.309091 158.460182 
L 209.454545 221.76552 
L 219.6 245.245731 
L 229.745455 221.844907 
L 239.890909 173.646387 
L 250.036364 291.675509 
L 260.181818 227.481482 
L 270.327273 213.798732 
L 280.472727 144.737733 
L 290.618182 153.501316 
L 300.763636 166.815426 
L 310.909091 218.38298 
L 321.054545 213.072125 
L 331.2 102.825676 
L 341.345455 117.663977 
L 351.490909 176.92294 
L 361.636364 104.910292 
L 371.781818 103.192866 
L 381.927273 184.094173 
L 392.072727 250.461941 
L 402.218182 242.030628 
L 412.363636 233.080217 
L 422.509091 202.390644 
L 432.654545 171.893491 
L 442.8 229.821841 
L 452.945455 205.075848 
L 463.090909 191.19989 
L 473.236364 227.960677 
L 483.381818 248.383135 
L 493.527273 236.985955 
L 503.672727 232.787074 
L 513.818182 281.032554 
L 523.963636 304.705442 
L 534.109091 241.940872 
L 544.254545 247.998755 
L 554.4 217.793008 
L 564.545455 258.322215 
L 574.690909 237.078291 
L 584.836364 214.668954 
L 594.981818 126.263597 
L 605.127273 141.350185 
L 615.272727 207.985673 
L 625.418182 265.529358 
L 635.563636 291.295855 
L 645.709091 282.82223 
L 655.854545 236.019985 
L 666 129.85498 
L 676.145455 168.759489 
L 686.290909 132.849598 
L 696.436364 140.625451 
L 706.581818 156.728095 
L 716.727273 137.617038 
L 726.872727 102.617961 
L 737.018182 225.207296 
L 747.163636 225.2785 
L 757.309091 277.537411 
L 767.454545 264.812467 
L 777.6 189.297291 
L 787.745455 208.115154 
L 797.890909 327.999591 
L 808.036364 319.986667 
L 818.181818 274.554303 
L 828.327273 295.378776 
L 838.472727 292.140591 
L 848.618182 282.015763 
L 858.763636 206.540128 
L 865 225.319999 
" clip-path="url(#pe808fd42aa)" style="fill: none; stroke: #a2d2ff; stroke-width: 0.5; stroke-linecap: square"/>
   </g>
   <g id="line2d_23">
    <path d="M 108 154.397383 
L 118.145455 154.137561 
L 128.290909 192.663672 
L 138.436364 176.386752 
L 148.581818 70.351697 
L 158.727273 162.321961 
L 168.872727 190.302475 
L 179.018182 198.908389 
L 189.163636 220.051142 
L 199.309091 246.939022 
L 209.454545 241.46138 
L 219.6 209.660132 
L 229.745455 152.778827 
L 239.890909 135.135998 
L 250.036364 144.37836 
L 260.181818 148.479484 
L 270.327273 216.422014 
L 280.472727 217.25453 
L 290.618182 238.420045 
L 300.763636 208.998004 
L 310.909091 191.334497 
L 321.054545 173.008375 
L 331.2 176.278199 
L 341.345455 202.991713 
L 351.490909 235.988833 
L 361.636364 243.529778 
L 371.781818 228.617454 
L 381.927273 277.044164 
L 392.072727 251.008311 
L 402.218182 239.238735 
L 412.363636 241.162779 
L 422.509091 221.346101 
L 432.654545 192.555164 
L 442.8 217.455907 
L 452.945455 289.773098 
L 463.090909 271.42791 
L 473.236364 241.13402 
L 483.381818 204.788496 
L 493.527273 143.874559 
L 503.672727 189.628686 
L 513.818182 223.676222 
L 523.963636 152.95912 
L 534.109091 214.213719 
L 544.254545 230.684718 
L 554.4 142.79168 
L 564.545455 180.452878 
L 574.690909 199.077261 
L 584.836364 229.300192 
L 594.981818 222.952962 
L 605.127273 200.600152 
L 615.272727 178.216933 
L 625.418182 213.063836 
L 635.563636 159.283778 
L 645.709091 174.524791 
L 655.854545 177.22117 
L 666 166.910135 
L 676.145455 171.438529 
L 686.290909 236.448477 
L 696.436364 221.566758 
L 706.581818 241.181645 
L 716.727273 212.221551 
L 726.872727 221.353725 
L 737.018182 201.840443 
L 747.163636 184.201386 
L 757.309091 243.731299 
L 767.454545 224.145236 
L 777.6 172.422981 
L 787.745455 196.703504 
L 797.890909 250.527379 
L 808.036364 224.016446 
L 818.181818 183.360682 
L 828.327273 228.480372 
L 838.472727 306.077869 
L 848.618182 273.138583 
L 858.763636 229.750987 
L 865 204.531175 
" clip-path="url(#pe808fd42aa)" style="fill: none; stroke: #a2d2ff; stroke-width: 0.5; stroke-linecap: square"/>
   </g>
   <g id="line2d_24">
    <path d="M 108 120.406115 
L 118.145455 170.858643 
L 128.290909 258.372225 
L 138.436364 244.460464 
L 148.581818 221.811004 
L 158.727273 176.216887 
L 168.872727 192.32369 
L 179.018182 141.876845 
L 189.163636 192.972955 
L 199.309091 285.514064 
L 209.454545 250.157728 
L 219.6 199.46223 
L 229.745455 189.251928 
L 239.890909 225.328444 
L 250.036364 241.167668 
L 260.181818 256.984 
L 270.327273 212.08246 
L 280.472727 210.856959 
L 290.618182 283.011358 
L 300.763636 262.902288 
L 310.909091 195.87851 
L 321.054545 134.127986 
L 331.2 258.550249 
L 341.345455 248.540312 
L 351.490909 227.413021 
L 361.636364 290.711745 
L 371.781818 270.444565 
L 381.927273 278.858678 
L 392.072727 270.175847 
L 402.218182 250.749714 
L 412.363636 235.168979 
L 422.509091 213.363138 
L 432.654545 236.818358 
L 442.8 257.80916 
L 452.945455 208.982563 
L 463.090909 164.279116 
L 473.236364 144.549775 
L 483.381818 216.151368 
L 493.527273 200.88336 
L 503.672727 112.297785 
L 513.818182 200.207455 
L 523.963636 167.825419 
L 534.109091 253.662983 
L 544.254545 249.550323 
L 554.4 199.025069 
L 564.545455 205.553305 
L 574.690909 182.03321 
L 584.836364 285.377075 
L 594.981818 270.667852 
L 605.127273 173.622608 
L 615.272727 236.681608 
L 625.418182 224.494688 
L 635.563636 217.15266 
L 645.709091 183.411794 
L 655.854545 126.253331 
L 666 165.013998 
L 676.145455 271.717735 
L 686.290909 268.060067 
L 696.436364 190.515228 
L 706.581818 179.313668 
L 716.727273 249.204029 
L 726.872727 178.617669 
L 737.018182 185.699419 
L 747.163636 154.495118 
L 757.309091 189.783539 
L 767.454545 223.680783 
L 777.6 174.149814 
L 787.745455 230.565395 
L 797.890909 191.689359 
L 808.036364 120.614688 
L 818.181818 219.274821 
L 828.327273 280.150348 
L 838.472727 226.62142 
L 848.618182 115.963926 
L 858.763636 176.637748 
L 865 193.672237 
" clip-path="url(#pe808fd42aa)" style="fill: none; stroke: #a2d2ff; stroke-width: 0.5; stroke-linecap: square"/>
   </g>
   <g id="line2d_25">
    <path d="M 108 218.00633 
L 118.145455 216.023258 
L 128.290909 224.62535 
L 138.436364 199.639039 
L 148.581818 179.937788 
L 158.727273 225.456244 
L 168.872727 251.088878 
L 179.018182 211.507372 
L 189.163636 250.312995 
L 199.309091 164.362275 
L 209.454545 213.949587 
L 219.6 193.868856 
L 229.745455 184.323549 
L 239.890909 197.131179 
L 250.036364 214.631611 
L 260.181818 220.725783 
L 270.327273 256.723386 
L 280.472727 182.794904 
L 290.618182 160.468712 
L 300.763636 171.531247 
L 310.909091 228.815057 
L 321.054545 230.359149 
L 331.2 190.551695 
L 341.345455 234.991019 
L 351.490909 200.30099 
L 361.636364 221.520389 
L 371.781818 250.296932 
L 381.927273 292.639244 
L 392.072727 269.831244 
L 402.218182 226.050613 
L 412.363636 276.313899 
L 422.509091 256.284403 
L 432.654545 224.612108 
L 442.8 232.100547 
L 452.945455 186.180173 
L 463.090909 134.869888 
L 473.236364 198.62086 
L 483.381818 208.680202 
L 493.527273 188.275293 
L 503.672727 241.62854 
L 513.818182 300.843389 
L 523.963636 241.65885 
L 534.109091 247.688742 
L 544.254545 244.661137 
L 554.4 254.289378 
L 564.545455 250.291429 
L 574.690909 240.168944 
L 584.836364 246.461098 
L 594.981818 243.642867 
L 605.127273 209.380914 
L 615.272727 193.133036 
L 625.418182 266.881162 
L 635.563636 274.882935 
L 645.709091 278.16455 
L 655.854545 268.060976 
L 666 203.254117 
L 676.145455 231.277746 
L 686.290909 304.135314 
L 696.436364 236.142618 
L 706.581818 197.040589 
L 716.727273 237.735022 
L 726.872727 253.734983 
L 737.018182 231.773355 
L 747.163636 162.315924 
L 757.309091 188.616115 
L 767.454545 260.032362 
L 777.6 253.206456 
L 787.745455 204.604668 
L 797.890909 166.887111 
L 808.036364 128.424476 
L 818.181818 121.034299 
L 828.327273 170.114622 
L 838.472727 157.791493 
L 848.618182 234.434167 
L 858.763636 192.337962 
L 865 193.442542 
" clip-path="url(#pe808fd42aa)" style="fill: none; stroke: #a2d2ff; stroke-width: 0.5; stroke-linecap: square"/>
   </g>
   <g id="line2d_26">
    <path d="M 108 187.171134 
L 118.145455 169.542808 
L 128.290909 237.540283 
L 138.436364 237.070746 
L 148.581818 221.798783 
L 158.727273 173.558613 
L 168.872727 164.420209 
L 179.018182 200.568842 
L 189.163636 242.859452 
L 199.309091 205.099394 
L 209.454545 158.210554 
L 219.6 248.854873 
L 229.745455 232.507185 
L 239.890909 201.850817 
L 250.036364 241.775781 
L 260.181818 234.620732 
L 270.327273 228.354986 
L 280.472727 179.937615 
L 290.618182 268.682038 
L 300.763636 250.957066 
L 310.909091 194.478667 
L 321.054545 167.950777 
L 331.2 167.826082 
L 341.345455 195.926973 
L 351.490909 277.782312 
L 361.636364 258.972598 
L 371.781818 178.760545 
L 381.927273 194.713809 
L 392.072727 219.694256 
L 402.218182 255.519036 
L 412.363636 255.282992 
L 422.509091 223.065589 
L 432.654545 272.285298 
L 442.8 195.194177 
L 452.945455 167.219311 
L 463.090909 214.74123 
L 473.236364 134.613257 
L 483.381818 178.522955 
L 493.527273 220.899109 
L 503.672727 182.862283 
L 513.818182 172.394991 
L 523.963636 185.536346 
L 534.109091 227.825547 
L 544.254545 274.540562 
L 554.4 288.708087 
L 564.545455 158.829164 
L 574.690909 181.81278 
L 584.836364 229.646699 
L 594.981818 216.112439 
L 605.127273 208.376095 
L 615.272727 163.040351 
L 625.418182 177.572514 
L 635.563636 163.198303 
L 645.709091 226.14139 
L 655.854545 244.418352 
L 666 224.153415 
L 676.145455 223.781458 
L 686.290909 221.910697 
L 696.436364 159.058136 
L 706.581818 164.324472 
L 716.727273 196.869052 
L 726.872727 227.610617 
L 737.018182 207.624416 
L 747.163636 184.383427 
L 757.309091 149.690066 
L 767.454545 181.767164 
L 777.6 230.355719 
L 787.745455 269.341192 
L 797.890909 252.970211 
L 808.036364 188.63139 
L 818.181818 161.553739 
L 828.327273 210.814447 
L 838.472727 198.293643 
L 848.618182 230.839853 
L 858.763636 220.51847 
L 865 163.616432 
" clip-path="url(#pe808fd42aa)" style="fill: none; stroke: #a2d2ff; stroke-width: 0.5; stroke-linecap: square"/>
   </g>
   <g id="line2d_27">
    <path d="M 108 171.266152 
L 118.145455 228.451278 
L 128.290909 229.058282 
L 138.436364 214.397871 
L 148.581818 180.776023 
L 158.727273 214.547301 
L 168.872727 226.756841 
L 179.018182 222.575452 
L 189.163636 214.60984 
L 199.309091 239.049086 
L 209.454545 237.804313 
L 219.6 320.537708 
L 229.745455 224.365318 
L 239.890909 248.993151 
L 250.036364 258.887428 
L 260.181818 231.096658 
L 270.327273 156.702174 
L 280.472727 224.288626 
L 290.618182 232.883213 
L 300.763636 216.952102 
L 310.909091 182.109453 
L 321.054545 209.398724 
L 331.2 224.877843 
L 341.345455 261.778705 
L 351.490909 260.105758 
L 361.636364 199.943721 
L 371.781818 203.157182 
L 381.927273 232.785572 
L 392.072727 262.348871 
L 402.218182 236.230272 
L 412.363636 283.669292 
L 422.509091 287.582624 
L 432.654545 152.774479 
L 442.8 174.49329 
L 452.945455 168.32879 
L 463.090909 192.431105 
L 473.236364 246.649924 
L 483.381818 271.060244 
L 493.527273 221.461517 
L 503.672727 218.35644 
L 513.818182 286.508511 
L 523.963636 271.659295 
L 534.109091 207.199027 
L 544.254545 174.487755 
L 554.4 143.892954 
L 564.545455 133.870828 
L 574.690909 105.89878 
L 584.836364 182.710723 
L 594.981818 155.998889 
L 605.127273 172.317373 
L 615.272727 225.744033 
L 625.418182 215.271078 
L 635.563636 184.228352 
L 645.709091 140.866706 
L 655.854545 179.669942 
L 666 202.07082 
L 676.145455 218.466918 
L 686.290909 221.122357 
L 696.436364 198.918565 
L 706.581818 218.813085 
L 716.727273 230.97923 
L 726.872727 239.181203 
L 737.018182 245.33049 
L 747.163636 257.744924 
L 757.309091 277.443947 
L 767.454545 222.089435 
L 777.6 165.488747 
L 787.745455 170.330792 
L 797.890909 219.761245 
L 808.036364 356.549543 
L 818.181818 263.932036 
L 828.327273 174.728908 
L 838.472727 240.333094 
L 848.618182 286.725503 
L 858.763636 264.248226 
L 865 241.784725 
" clip-path="url(#pe808fd42aa)" style="fill: none; stroke: #a2d2ff; stroke-width: 0.5; stroke-linecap: square"/>
   </g>
   <g id="line2d_28">
    <path d="M 108 244.059151 
L 118.145455 307.209211 
L 128.290909 238.996012 
L 138.436364 214.239428 
L 148.581818 239.421886 
L 158.727273 187.817745 
L 168.872727 220.057974 
L 179.018182 305.397708 
L 189.163636 244.191596 
L 199.309091 155.217806 
L 209.454545 146.693583 
L 219.6 188.477733 
L 229.745455 235.928916 
L 239.890909 206.522857 
L 250.036364 231.658837 
L 260.181818 213.869969 
L 270.327273 149.772302 
L 280.472727 207.056676 
L 290.618182 164.132535 
L 300.763636 158.985678 
L 310.909091 190.920878 
L 321.054545 223.582501 
L 331.2 228.301584 
L 341.345455 186.337383 
L 351.490909 172.669631 
L 361.636364 193.418667 
L 371.781818 249.979129 
L 381.927273 302.696002 
L 392.072727 281.382457 
L 402.218182 238.254731 
L 412.363636 262.432438 
L 422.509091 243.964534 
L 432.654545 213.160739 
L 442.8 205.927432 
L 452.945455 239.673145 
L 463.090909 262.367114 
L 473.236364 242.519396 
L 483.381818 206.998878 
L 493.527273 237.222744 
L 503.672727 238.148523 
L 513.818182 205.301587 
L 523.963636 231.831492 
L 534.109091 232.350825 
L 544.254545 248.443196 
L 554.4 261.351421 
L 564.545455 182.079704 
L 574.690909 169.452391 
L 584.836364 228.133119 
L 594.981818 223.216505 
L 605.127273 220.32208 
L 615.272727 193.709847 
L 625.418182 126.158582 
L 635.563636 156.587706 
L 645.709091 196.461244 
L 655.854545 233.449142 
L 666 177.571397 
L 676.145455 135.494107 
L 686.290909 221.524059 
L 696.436364 251.785072 
L 706.581818 205.661363 
L 716.727273 155.17482 
L 726.872727 137.130637 
L 737.018182 250.910402 
L 747.163636 269.688128 
L 757.309091 201.229878 
L 767.454545 206.485477 
L 777.6 191.190382 
L 787.745455 215.095703 
L 797.890909 312.737655 
L 808.036364 191.136362 
L 818.181818 181.288411 
L 828.327273 220.564362 
L 838.472727 192.364015 
L 848.618182 226.121823 
L 858.763636 285.392307 
L 865 260.260394 
" clip-path="url(#pe808fd42aa)" style="fill: none; stroke: #a2d2ff; stroke-width: 0.5; stroke-linecap: square"/>
   </g>
   <g id="line2d_29">
    <path d="M 108 278.532431 
L 118.145455 255.386173 
L 128.290909 242.722378 
L 138.436364 271.336713 
L 148.581818 262.719029 
L 158.727273 208.936325 
L 168.872727 213.341266 
L 179.018182 214.512949 
L 189.163636 215.910672 
L 199.309091 209.523185 
L 209.454545 222.461862 
L 219.6 191.235134 
L 229.745455 185.670776 
L 239.890909 183.566919 
L 250.036364 244.878368 
L 260.181818 188.788147 
L 270.327273 212.157332 
L 280.472727 181.97983 
L 290.618182 165.832788 
L 300.763636 158.74993 
L 310.909091 204.700912 
L 321.054545 262.653951 
L 331.2 290.849537 
L 341.345455 271.021144 
L 351.490909 253.703646 
L 361.636364 176.747127 
L 371.781818 205.886661 
L 381.927273 288.889452 
L 392.072727 294.553281 
L 402.218182 261.934704 
L 412.363636 156.812182 
L 422.509091 148.522038 
L 432.654545 186.964458 
L 442.8 227.246455 
L 452.945455 236.126594 
L 463.090909 279.465407 
L 473.236364 321.873873 
L 483.381818 313.694975 
L 493.527273 218.953975 
L 503.672727 190.385927 
L 513.818182 170.975049 
L 523.963636 206.050465 
L 534.109091 171.506476 
L 544.254545 157.625744 
L 554.4 151.51648 
L 564.545455 162.613845 
L 574.690909 174.612291 
L 584.836364 227.335033 
L 594.981818 200.057361 
L 605.127273 188.867899 
L 615.272727 191.170157 
L 625.418182 229.311087 
L 635.563636 239.631261 
L 645.709091 283.351474 
L 655.854545 200.14975 
L 666 141.403883 
L 676.145455 164.538531 
L 686.290909 257.850201 
L 696.436364 234.30395 
L 706.581818 205.623155 
L 716.727273 209.020509 
L 726.872727 206.60416 
L 737.018182 218.470884 
L 747.163636 187.521111 
L 757.309091 163.554595 
L 767.454545 164.929476 
L 777.6 201.575353 
L 787.745455 215.116711 
L 797.890909 214.917152 
L 808.036364 202.492946 
L 818.181818 271.35618 
L 828.327273 274.468174 
L 838.472727 202.724642 
L 848.618182 220.461163 
L 858.763636 252.302584 
L 865 282.133453 
" clip-path="url(#pe808fd42aa)" style="fill: none; stroke: #a2d2ff; stroke-width: 0.5; stroke-linecap: square"/>
   </g>
   <g id="line2d_30">
    <path d="M 108 351.506727 
L 118.145455 264.208856 
L 128.290909 202.242776 
L 138.436364 256.767359 
L 148.581818 255.825909 
L 158.727273 232.749899 
L 168.872727 234.849124 
L 179.018182 254.623418 
L 189.163636 258.121944 
L 199.309091 272.438407 
L 209.454545 217.562408 
L 219.6 122.889179 
L 229.745455 173.538322 
L 239.890909 253.524532 
L 250.036364 200.708237 
L 260.181818 203.746943 
L 270.327273 155.618326 
L 280.472727 225.835056 
L 290.618182 243.563045 
L 300.763636 239.209489 
L 310.909091 212.908686 
L 321.054545 182.975315 
L 331.2 148.395333 
L 341.345455 205.664899 
L 351.490909 259.936508 
L 361.636364 285.006075 
L 371.781818 262.957191 
L 381.927273 246.22999 
L 392.072727 264.586695 
L 402.218182 246.543533 
L 412.363636 215.394169 
L 422.509091 220.099539 
L 432.654545 213.800482 
L 442.8 217.150667 
L 452.945455 236.955265 
L 463.090909 231.100474 
L 473.236364 168.266991 
L 483.381818 188.629782 
L 493.527273 202.89545 
L 503.672727 247.864855 
L 513.818182 249.876009 
L 523.963636 265.156943 
L 534.109091 209.893628 
L 544.254545 253.921092 
L 554.4 201.336446 
L 564.545455 177.353658 
L 574.690909 202.140909 
L 584.836364 275.916973 
L 594.981818 226.397523 
L 605.127273 165.862396 
L 615.272727 209.738147 
L 625.418182 174.698897 
L 635.563636 209.956455 
L 645.709091 231.245021 
L 655.854545 252.154562 
L 666 258.661077 
L 676.145455 191.495554 
L 686.290909 179.01065 
L 696.436364 237.385276 
L 706.581818 274.711617 
L 716.727273 221.534559 
L 726.872727 209.544822 
L 737.018182 159.477766 
L 747.163636 225.500875 
L 757.309091 230.663838 
L 767.454545 182.540567 
L 777.6 189.549598 
L 787.745455 196.747761 
L 797.890909 292.366266 
L 808.036364 291.921024 
L 818.181818 197.210054 
L 828.327273 172.75777 
L 838.472727 184.395749 
L 848.618182 132.973513 
L 858.763636 164.953706 
L 865 136.448523 
" clip-path="url(#pe808fd42aa)" style="fill: none; stroke: #a2d2ff; stroke-width: 0.5; stroke-linecap: square"/>
   </g>
   <g id="line2d_31">
    <path d="M 108 195.665031 
L 118.145455 250.743452 
L 128.290909 242.286613 
L 138.436364 227.356328 
L 148.581818 239.061626 
L 158.727273 233.703245 
L 168.872727 181.987416 
L 179.018182 154.769069 
L 189.163636 194.802468 
L 199.309091 241.378723 
L 209.454545 203.153946 
L 219.6 179.022686 
L 229.745455 205.535935 
L 239.890909 168.913662 
L 250.036364 193.939785 
L 260.181818 269.02974 
L 270.327273 269.131124 
L 280.472727 205.466116 
L 290.618182 269.613226 
L 300.763636 190.393221 
L 310.909091 207.182669 
L 321.054545 242.692939 
L 331.2 250.641216 
L 341.345455 238.837593 
L 351.490909 236.992457 
L 361.636364 184.653549 
L 371.781818 182.11337 
L 381.927273 237.707347 
L 392.072727 245.049484 
L 402.218182 236.509902 
L 412.363636 214.683573 
L 422.509091 226.671474 
L 432.654545 274.541261 
L 442.8 204.923227 
L 452.945455 215.781636 
L 463.090909 246.117256 
L 473.236364 297.051508 
L 483.381818 263.802746 
L 493.527273 214.895359 
L 503.672727 193.599674 
L 513.818182 233.367372 
L 523.963636 288.513843 
L 534.109091 275.058446 
L 544.254545 248.55123 
L 554.4 254.725466 
L 564.545455 274.92919 
L 574.690909 207.949685 
L 584.836364 234.356798 
L 594.981818 249.203325 
L 605.127273 211.894069 
L 615.272727 224.472024 
L 625.418182 209.547562 
L 635.563636 290.052711 
L 645.709091 263.107388 
L 655.854545 271.066988 
L 666 294.782224 
L 676.145455 210.919406 
L 686.290909 195.67153 
L 696.436364 171.086972 
L 706.581818 184.796289 
L 716.727273 199.893773 
L 726.872727 187.964145 
L 737.018182 180.878941 
L 747.163636 206.839761 
L 757.309091 260.068619 
L 767.454545 225.443152 
L 777.6 294.39351 
L 787.745455 286.916502 
L 797.890909 329.987783 
L 808.036364 193.824589 
L 818.181818 160.451574 
L 828.327273 211.755985 
L 838.472727 194.862175 
L 848.618182 202.325699 
L 858.763636 258.633859 
L 865 263.799018 
" clip-path="url(#pe808fd42aa)" style="fill: none; stroke: #a2d2ff; stroke-width: 0.5; stroke-linecap: square"/>
   </g>
   <g id="line2d_32">
    <path d="M 108 110.312088 
L 118.145455 183.238747 
L 128.290909 190.834654 
L 138.436364 162.383564 
L 148.581818 210.831874 
L 158.727273 139.849746 
L 168.872727 185.832982 
L 179.018182 189.54074 
L 189.163636 210.808249 
L 199.309091 232.031304 
L 209.454545 166.512052 
L 219.6 166.471438 
L 229.745455 204.013013 
L 239.890909 188.310274 
L 250.036364 205.284044 
L 260.181818 164.621228 
L 270.327273 207.215284 
L 280.472727 194.480295 
L 290.618182 173.84154 
L 300.763636 123.667759 
L 310.909091 201.357864 
L 321.054545 226.875752 
L 331.2 166.990704 
L 341.345455 192.889603 
L 351.490909 161.568557 
L 361.636364 176.433795 
L 371.781818 200.128969 
L 381.927273 184.544032 
L 392.072727 212.30688 
L 402.218182 254.010648 
L 412.363636 216.659152 
L 422.509091 179.052867 
L 432.654545 133.545929 
L 442.8 193.746762 
L 452.945455 233.89151 
L 463.090909 137.012255 
L 473.236364 246.041937 
L 483.381818 265.465212 
L 493.527273 215.227433 
L 503.672727 245.486809 
L 513.818182 206.931386 
L 523.963636 258.125773 
L 534.109091 212.983183 
L 544.254545 205.470333 
L 554.4 218.57855 
L 564.545455 115.056415 
L 574.690909 189.108596 
L 584.836364 222.100656 
L 594.981818 192.855729 
L 605.127273 167.366486 
L 615.272727 246.799488 
L 625.418182 235.353147 
L 635.563636 264.123456 
L 645.709091 223.384296 
L 655.854545 215.218768 
L 666 245.986251 
L 676.145455 287.640555 
L 686.290909 213.672658 
L 696.436364 260.517389 
L 706.581818 280.593825 
L 716.727273 157.942551 
L 726.872727 171.079719 
L 737.018182 223.393087 
L 747.163636 248.756051 
L 757.309091 208.467016 
L 767.454545 159.109496 
L 777.6 154.881515 
L 787.745455 86.085256 
L 797.890909 104.611622 
L 808.036364 120.83831 
L 818.181818 174.960962 
L 828.327273 224.114967 
L 838.472727 212.74038 
L 848.618182 226.002501 
L 858.763636 170.372619 
L 865 176.887471 
" clip-path="url(#pe808fd42aa)" style="fill: none; stroke: #a2d2ff; stroke-width: 0.5; stroke-linecap: square"/>
   </g>
   <g id="line2d_33">
    <defs>
     <path id="me00cc16f45" d="M -3 3 
L 3 -3 
M -3 -3 
L 3 3 
" style="stroke: #000000; stroke-width: 2"/>
    </defs>
    <g clip-path="url(#pe808fd42aa)">
     <use xlink:href="#me00cc16f45" x="191.7" y="228.155883" style="stroke: #000000; stroke-width: 2"/>
     <use xlink:href="#me00cc16f45" x="275.4" y="191.934113" style="stroke: #000000; stroke-width: 2"/>
     <use xlink:href="#me00cc16f45" x="308.88" y="187.406391" style="stroke: #000000; stroke-width: 2"/>
     <use xlink:href="#me00cc16f45" x="400.95" y="250.79449" style="stroke: #000000; stroke-width: 2"/>
     <use xlink:href="#me00cc16f45" x="610.2" y="191.934113" style="stroke: #000000; stroke-width: 2"/>
    </g>
   </g>
   <g id="patch_3">
    <path d="M 108 378 
L 108 51.84 
" style="fill: none; stroke: #000000; stroke-width: 0.8; stroke-linejoin: miter; stroke-linecap: square"/>
   </g>
   <g id="patch_4">
    <path d="M 108 378 
L 777.6 378 
" style="fill: none; stroke: #000000; stroke-width: 0.8; stroke-linejoin: miter; stroke-linecap: square"/>
   </g>
  </g>
 </g>
 <defs>
  <clipPath id="pe808fd42aa">
   <rect x="108" y="51.84" width="669.6" height="326.16"/>
  </clipPath>
 </defs>
</svg>
