<?xml version="1.0" encoding="utf-8" standalone="no"?>
<!DOCTYPE svg PUBLIC "-//W3C//DTD SVG 1.1//EN"
  "http://www.w3.org/Graphics/SVG/1.1/DTD/svg11.dtd">
<svg xmlns:xlink="http://www.w3.org/1999/xlink" width="576pt" height="432pt" viewBox="0 0 576 432" xmlns="http://www.w3.org/2000/svg" version="1.1">
 <metadata>
  <rdf:RDF xmlns:dc="http://purl.org/dc/elements/1.1/" xmlns:cc="http://creativecommons.org/ns#" xmlns:rdf="http://www.w3.org/1999/02/22-rdf-syntax-ns#">
   <cc:Work>
    <dc:type rdf:resource="http://purl.org/dc/dcmitype/StillImage"/>
    <dc:date>2022-06-25T14:45:18.428288</dc:date>
    <dc:format>image/svg+xml</dc:format>
    <dc:creator>
     <cc:Agent>
      <dc:title>Matplotlib v3.5.1, https://matplotlib.org/</dc:title>
     </cc:Agent>
    </dc:creator>
   </cc:Work>
  </rdf:RDF>
 </metadata>
 <defs>
  <style type="text/css">*{stroke-linejoin: round; stroke-linecap: butt}</style>
 </defs>
 <g id="figure_1">
  <g id="patch_1">
   <path d="M 0 432 
L 576 432 
L 576 0 
L 0 0 
L 0 432 
z
" style="fill: none"/>
  </g>
  <g id="axes_1">
   <g id="patch_2">
    <path d="M 72 378 
L 518.4 378 
L 518.4 51.84 
L 72 51.84 
z
" style="fill: #ffffff"/>
   </g>
   <g id="patch_3">
    <path d="M 102.467439 378 
L 104.445648 378 
L 104.445648 377.384894 
L 102.467439 377.384894 
z
" clip-path="url(#pf588b3d729)" style="fill: #f58c8c"/>
   </g>
   <g id="patch_4">
    <path d="M 104.445648 378 
L 106.423856 378 
L 106.423856 378 
L 104.445648 378 
z
" clip-path="url(#pf588b3d729)" style="fill: #f58c8c"/>
   </g>
   <g id="patch_5">
    <path d="M 106.423856 378 
L 108.402064 378 
L 108.402064 378 
L 106.423856 378 
z
" clip-path="url(#pf588b3d729)" style="fill: #f58c8c"/>
   </g>
   <g id="patch_6">
    <path d="M 108.402064 378 
L 110.380272 378 
L 110.380272 378 
L 108.402064 378 
z
" clip-path="url(#pf588b3d729)" style="fill: #f58c8c"/>
   </g>
   <g id="patch_7">
    <path d="M 110.380272 378 
L 112.358481 378 
L 112.358481 378 
L 110.380272 378 
z
" clip-path="url(#pf588b3d729)" style="fill: #f58c8c"/>
   </g>
   <g id="patch_8">
    <path d="M 112.358481 378 
L 114.336689 378 
L 114.336689 378 
L 112.358481 378 
z
" clip-path="url(#pf588b3d729)" style="fill: #f58c8c"/>
   </g>
   <g id="patch_9">
    <path d="M 114.336689 378 
L 116.314897 378 
L 116.314897 378 
L 114.336689 378 
z
" clip-path="url(#pf588b3d729)" style="fill: #f58c8c"/>
   </g>
   <g id="patch_10">
    <path d="M 116.314897 378 
L 118.293105 378 
L 118.293105 378 
L 116.314897 378 
z
" clip-path="url(#pf588b3d729)" style="fill: #f58c8c"/>
   </g>
   <g id="patch_11">
    <path d="M 118.293105 378 
L 120.271314 378 
L 120.271314 378 
L 118.293105 378 
z
" clip-path="url(#pf588b3d729)" style="fill: #f58c8c"/>
   </g>
   <g id="patch_12">
    <path d="M 120.271314 378 
L 122.249522 378 
L 122.249522 378 
L 120.271314 378 
z
" clip-path="url(#pf588b3d729)" style="fill: #f58c8c"/>
   </g>
   <g id="patch_13">
    <path d="M 122.249522 378 
L 124.22773 378 
L 124.22773 378 
L 122.249522 378 
z
" clip-path="url(#pf588b3d729)" style="fill: #f58c8c"/>
   </g>
   <g id="patch_14">
    <path d="M 124.22773 378 
L 126.205939 378 
L 126.205939 378 
L 124.22773 378 
z
" clip-path="url(#pf588b3d729)" style="fill: #f58c8c"/>
   </g>
   <g id="patch_15">
    <path d="M 126.205939 378 
L 128.184147 378 
L 128.184147 378 
L 126.205939 378 
z
" clip-path="url(#pf588b3d729)" style="fill: #f58c8c"/>
   </g>
   <g id="patch_16">
    <path d="M 128.184147 378 
L 130.162355 378 
L 130.162355 378 
L 128.184147 378 
z
" clip-path="url(#pf588b3d729)" style="fill: #f58c8c"/>
   </g>
   <g id="patch_17">
    <path d="M 130.162355 378 
L 132.140563 378 
L 132.140563 378 
L 130.162355 378 
z
" clip-path="url(#pf588b3d729)" style="fill: #f58c8c"/>
   </g>
   <g id="patch_18">
    <path d="M 132.140563 378 
L 134.118772 378 
L 134.118772 378 
L 132.140563 378 
z
" clip-path="url(#pf588b3d729)" style="fill: #f58c8c"/>
   </g>
   <g id="patch_19">
    <path d="M 134.118772 378 
L 136.09698 378 
L 136.09698 378 
L 134.118772 378 
z
" clip-path="url(#pf588b3d729)" style="fill: #f58c8c"/>
   </g>
   <g id="patch_20">
    <path d="M 136.09698 378 
L 138.075188 378 
L 138.075188 378 
L 136.09698 378 
z
" clip-path="url(#pf588b3d729)" style="fill: #f58c8c"/>
   </g>
   <g id="patch_21">
    <path d="M 138.075188 378 
L 140.053396 378 
L 140.053396 378 
L 138.075188 378 
z
" clip-path="url(#pf588b3d729)" style="fill: #f58c8c"/>
   </g>
   <g id="patch_22">
    <path d="M 140.053396 378 
L 142.031605 378 
L 142.031605 378 
L 140.053396 378 
z
" clip-path="url(#pf588b3d729)" style="fill: #f58c8c"/>
   </g>
   <g id="patch_23">
    <path d="M 142.031605 378 
L 144.009813 378 
L 144.009813 378 
L 142.031605 378 
z
" clip-path="url(#pf588b3d729)" style="fill: #f58c8c"/>
   </g>
   <g id="patch_24">
    <path d="M 144.009813 378 
L 145.988021 378 
L 145.988021 378 
L 144.009813 378 
z
" clip-path="url(#pf588b3d729)" style="fill: #f58c8c"/>
   </g>
   <g id="patch_25">
    <path d="M 145.988021 378 
L 147.966229 378 
L 147.966229 378 
L 145.988021 378 
z
" clip-path="url(#pf588b3d729)" style="fill: #f58c8c"/>
   </g>
   <g id="patch_26">
    <path d="M 147.966229 378 
L 149.944438 378 
L 149.944438 378 
L 147.966229 378 
z
" clip-path="url(#pf588b3d729)" style="fill: #f58c8c"/>
   </g>
   <g id="patch_27">
    <path d="M 149.944438 378 
L 151.922646 378 
L 151.922646 378 
L 149.944438 378 
z
" clip-path="url(#pf588b3d729)" style="fill: #f58c8c"/>
   </g>
   <g id="patch_28">
    <path d="M 151.922646 378 
L 153.900854 378 
L 153.900854 378 
L 151.922646 378 
z
" clip-path="url(#pf588b3d729)" style="fill: #f58c8c"/>
   </g>
   <g id="patch_29">
    <path d="M 153.900854 378 
L 155.879062 378 
L 155.879062 377.384894 
L 153.900854 377.384894 
z
" clip-path="url(#pf588b3d729)" style="fill: #f58c8c"/>
   </g>
   <g id="patch_30">
    <path d="M 155.879062 378 
L 157.857271 378 
L 157.857271 378 
L 155.879062 378 
z
" clip-path="url(#pf588b3d729)" style="fill: #f58c8c"/>
   </g>
   <g id="patch_31">
    <path d="M 157.857271 378 
L 159.835479 378 
L 159.835479 378 
L 157.857271 378 
z
" clip-path="url(#pf588b3d729)" style="fill: #f58c8c"/>
   </g>
   <g id="patch_32">
    <path d="M 159.835479 378 
L 161.813687 378 
L 161.813687 378 
L 159.835479 378 
z
" clip-path="url(#pf588b3d729)" style="fill: #f58c8c"/>
   </g>
   <g id="patch_33">
    <path d="M 161.813687 378 
L 163.791895 378 
L 163.791895 378 
L 161.813687 378 
z
" clip-path="url(#pf588b3d729)" style="fill: #f58c8c"/>
   </g>
   <g id="patch_34">
    <path d="M 163.791895 378 
L 165.770104 378 
L 165.770104 378 
L 163.791895 378 
z
" clip-path="url(#pf588b3d729)" style="fill: #f58c8c"/>
   </g>
   <g id="patch_35">
    <path d="M 165.770104 378 
L 167.748312 378 
L 167.748312 378 
L 165.770104 378 
z
" clip-path="url(#pf588b3d729)" style="fill: #f58c8c"/>
   </g>
   <g id="patch_36">
    <path d="M 167.748312 378 
L 169.72652 378 
L 169.72652 378 
L 167.748312 378 
z
" clip-path="url(#pf588b3d729)" style="fill: #f58c8c"/>
   </g>
   <g id="patch_37">
    <path d="M 169.72652 378 
L 171.704728 378 
L 171.704728 378 
L 169.72652 378 
z
" clip-path="url(#pf588b3d729)" style="fill: #f58c8c"/>
   </g>
   <g id="patch_38">
    <path d="M 171.704728 378 
L 173.682937 378 
L 173.682937 378 
L 171.704728 378 
z
" clip-path="url(#pf588b3d729)" style="fill: #f58c8c"/>
   </g>
   <g id="patch_39">
    <path d="M 173.682937 378 
L 175.661145 378 
L 175.661145 378 
L 173.682937 378 
z
" clip-path="url(#pf588b3d729)" style="fill: #f58c8c"/>
   </g>
   <g id="patch_40">
    <path d="M 175.661145 378 
L 177.639353 378 
L 177.639353 378 
L 175.661145 378 
z
" clip-path="url(#pf588b3d729)" style="fill: #f58c8c"/>
   </g>
   <g id="patch_41">
    <path d="M 177.639353 378 
L 179.617561 378 
L 179.617561 378 
L 177.639353 378 
z
" clip-path="url(#pf588b3d729)" style="fill: #f58c8c"/>
   </g>
   <g id="patch_42">
    <path d="M 179.617561 378 
L 181.59577 378 
L 181.59577 378 
L 179.617561 378 
z
" clip-path="url(#pf588b3d729)" style="fill: #f58c8c"/>
   </g>
   <g id="patch_43">
    <path d="M 181.59577 378 
L 183.573978 378 
L 183.573978 378 
L 181.59577 378 
z
" clip-path="url(#pf588b3d729)" style="fill: #f58c8c"/>
   </g>
   <g id="patch_44">
    <path d="M 183.573978 378 
L 185.552186 378 
L 185.552186 378 
L 183.573978 378 
z
" clip-path="url(#pf588b3d729)" style="fill: #f58c8c"/>
   </g>
   <g id="patch_45">
    <path d="M 185.552186 378 
L 187.530395 378 
L 187.530395 378 
L 185.552186 378 
z
" clip-path="url(#pf588b3d729)" style="fill: #f58c8c"/>
   </g>
   <g id="patch_46">
    <path d="M 187.530395 378 
L 189.508603 378 
L 189.508603 378 
L 187.530395 378 
z
" clip-path="url(#pf588b3d729)" style="fill: #f58c8c"/>
   </g>
   <g id="patch_47">
    <path d="M 189.508603 378 
L 191.486811 378 
L 191.486811 377.384894 
L 189.508603 377.384894 
z
" clip-path="url(#pf588b3d729)" style="fill: #f58c8c"/>
   </g>
   <g id="patch_48">
    <path d="M 191.486811 378 
L 193.465019 378 
L 193.465019 378 
L 191.486811 378 
z
" clip-path="url(#pf588b3d729)" style="fill: #f58c8c"/>
   </g>
   <g id="patch_49">
    <path d="M 193.465019 378 
L 195.443228 378 
L 195.443228 378 
L 193.465019 378 
z
" clip-path="url(#pf588b3d729)" style="fill: #f58c8c"/>
   </g>
   <g id="patch_50">
    <path d="M 195.443228 378 
L 197.421436 378 
L 197.421436 376.769788 
L 195.443228 376.769788 
z
" clip-path="url(#pf588b3d729)" style="fill: #f58c8c"/>
   </g>
   <g id="patch_51">
    <path d="M 197.421436 378 
L 199.399644 378 
L 199.399644 376.769788 
L 197.421436 376.769788 
z
" clip-path="url(#pf588b3d729)" style="fill: #f58c8c"/>
   </g>
   <g id="patch_52">
    <path d="M 199.399644 378 
L 201.377852 378 
L 201.377852 378 
L 199.399644 378 
z
" clip-path="url(#pf588b3d729)" style="fill: #f58c8c"/>
   </g>
   <g id="patch_53">
    <path d="M 201.377852 378 
L 203.356061 378 
L 203.356061 375.539576 
L 201.377852 375.539576 
z
" clip-path="url(#pf588b3d729)" style="fill: #f58c8c"/>
   </g>
   <g id="patch_54">
    <path d="M 203.356061 378 
L 205.334269 378 
L 205.334269 377.384894 
L 203.356061 377.384894 
z
" clip-path="url(#pf588b3d729)" style="fill: #f58c8c"/>
   </g>
   <g id="patch_55">
    <path d="M 205.334269 378 
L 207.312477 378 
L 207.312477 376.154682 
L 205.334269 376.154682 
z
" clip-path="url(#pf588b3d729)" style="fill: #f58c8c"/>
   </g>
   <g id="patch_56">
    <path d="M 207.312477 378 
L 209.290685 378 
L 209.290685 378 
L 207.312477 378 
z
" clip-path="url(#pf588b3d729)" style="fill: #f58c8c"/>
   </g>
   <g id="patch_57">
    <path d="M 209.290685 378 
L 211.268894 378 
L 211.268894 374.92447 
L 209.290685 374.92447 
z
" clip-path="url(#pf588b3d729)" style="fill: #f58c8c"/>
   </g>
   <g id="patch_58">
    <path d="M 211.268894 378 
L 213.247102 378 
L 213.247102 378 
L 211.268894 378 
z
" clip-path="url(#pf588b3d729)" style="fill: #f58c8c"/>
   </g>
   <g id="patch_59">
    <path d="M 213.247102 378 
L 215.22531 378 
L 215.22531 377.384894 
L 213.247102 377.384894 
z
" clip-path="url(#pf588b3d729)" style="fill: #f58c8c"/>
   </g>
   <g id="patch_60">
    <path d="M 215.22531 378 
L 217.203518 378 
L 217.203518 375.539576 
L 215.22531 375.539576 
z
" clip-path="url(#pf588b3d729)" style="fill: #f58c8c"/>
   </g>
   <g id="patch_61">
    <path d="M 217.203518 378 
L 219.181727 378 
L 219.181727 376.769788 
L 217.203518 376.769788 
z
" clip-path="url(#pf588b3d729)" style="fill: #f58c8c"/>
   </g>
   <g id="patch_62">
    <path d="M 219.181727 378 
L 221.159935 378 
L 221.159935 376.769788 
L 219.181727 376.769788 
z
" clip-path="url(#pf588b3d729)" style="fill: #f58c8c"/>
   </g>
   <g id="patch_63">
    <path d="M 221.159935 378 
L 223.138143 378 
L 223.138143 374.309364 
L 221.159935 374.309364 
z
" clip-path="url(#pf588b3d729)" style="fill: #f58c8c"/>
   </g>
   <g id="patch_64">
    <path d="M 223.138143 378 
L 225.116351 378 
L 225.116351 374.309364 
L 223.138143 374.309364 
z
" clip-path="url(#pf588b3d729)" style="fill: #f58c8c"/>
   </g>
   <g id="patch_65">
    <path d="M 225.116351 378 
L 227.09456 378 
L 227.09456 373.694257 
L 225.116351 373.694257 
z
" clip-path="url(#pf588b3d729)" style="fill: #f58c8c"/>
   </g>
   <g id="patch_66">
    <path d="M 227.09456 378 
L 229.072768 378 
L 229.072768 374.309364 
L 227.09456 374.309364 
z
" clip-path="url(#pf588b3d729)" style="fill: #f58c8c"/>
   </g>
   <g id="patch_67">
    <path d="M 229.072768 378 
L 231.050976 378 
L 231.050976 373.079151 
L 229.072768 373.079151 
z
" clip-path="url(#pf588b3d729)" style="fill: #f58c8c"/>
   </g>
   <g id="patch_68">
    <path d="M 231.050976 378 
L 233.029184 378 
L 233.029184 376.154682 
L 231.050976 376.154682 
z
" clip-path="url(#pf588b3d729)" style="fill: #f58c8c"/>
   </g>
   <g id="patch_69">
    <path d="M 233.029184 378 
L 235.007393 378 
L 235.007393 368.773409 
L 233.029184 368.773409 
z
" clip-path="url(#pf588b3d729)" style="fill: #f58c8c"/>
   </g>
   <g id="patch_70">
    <path d="M 235.007393 378 
L 236.985601 378 
L 236.985601 371.848939 
L 235.007393 371.848939 
z
" clip-path="url(#pf588b3d729)" style="fill: #f58c8c"/>
   </g>
   <g id="patch_71">
    <path d="M 236.985601 378 
L 238.963809 378 
L 238.963809 369.388515 
L 236.985601 369.388515 
z
" clip-path="url(#pf588b3d729)" style="fill: #f58c8c"/>
   </g>
   <g id="patch_72">
    <path d="M 238.963809 378 
L 240.942017 378 
L 240.942017 371.233833 
L 238.963809 371.233833 
z
" clip-path="url(#pf588b3d729)" style="fill: #f58c8c"/>
   </g>
   <g id="patch_73">
    <path d="M 240.942017 378 
L 242.920226 378 
L 242.920226 364.467666 
L 240.942017 364.467666 
z
" clip-path="url(#pf588b3d729)" style="fill: #f58c8c"/>
   </g>
   <g id="patch_74">
    <path d="M 242.920226 378 
L 244.898434 378 
L 244.898434 363.237454 
L 242.920226 363.237454 
z
" clip-path="url(#pf588b3d729)" style="fill: #f58c8c"/>
   </g>
   <g id="patch_75">
    <path d="M 244.898434 378 
L 246.876642 378 
L 246.876642 367.543197 
L 244.898434 367.543197 
z
" clip-path="url(#pf588b3d729)" style="fill: #f58c8c"/>
   </g>
   <g id="patch_76">
    <path d="M 246.876642 378 
L 248.85485 378 
L 248.85485 365.082772 
L 246.876642 365.082772 
z
" clip-path="url(#pf588b3d729)" style="fill: #f58c8c"/>
   </g>
   <g id="patch_77">
    <path d="M 248.85485 378 
L 250.833059 378 
L 250.833059 362.007242 
L 248.85485 362.007242 
z
" clip-path="url(#pf588b3d729)" style="fill: #f58c8c"/>
   </g>
   <g id="patch_78">
    <path d="M 250.833059 378 
L 252.811267 378 
L 252.811267 360.161924 
L 250.833059 360.161924 
z
" clip-path="url(#pf588b3d729)" style="fill: #f58c8c"/>
   </g>
   <g id="patch_79">
    <path d="M 252.811267 378 
L 254.789475 378 
L 254.789475 361.392136 
L 252.811267 361.392136 
z
" clip-path="url(#pf588b3d729)" style="fill: #f58c8c"/>
   </g>
   <g id="patch_80">
    <path d="M 254.789475 378 
L 256.767684 378 
L 256.767684 352.165545 
L 254.789475 352.165545 
z
" clip-path="url(#pf588b3d729)" style="fill: #f58c8c"/>
   </g>
   <g id="patch_81">
    <path d="M 256.767684 378 
L 258.745892 378 
L 258.745892 365.697878 
L 256.767684 365.697878 
z
" clip-path="url(#pf588b3d729)" style="fill: #f58c8c"/>
   </g>
   <g id="patch_82">
    <path d="M 258.745892 378 
L 260.7241 378 
L 260.7241 357.701499 
L 258.745892 357.701499 
z
" clip-path="url(#pf588b3d729)" style="fill: #f58c8c"/>
   </g>
   <g id="patch_83">
    <path d="M 260.7241 378 
L 262.702308 378 
L 262.702308 355.856181 
L 260.7241 355.856181 
z
" clip-path="url(#pf588b3d729)" style="fill: #f58c8c"/>
   </g>
   <g id="patch_84">
    <path d="M 262.702308 378 
L 264.680517 378 
L 264.680517 346.014484 
L 262.702308 346.014484 
z
" clip-path="url(#pf588b3d729)" style="fill: #f58c8c"/>
   </g>
   <g id="patch_85">
    <path d="M 264.680517 378 
L 266.658725 378 
L 266.658725 354.010863 
L 264.680517 354.010863 
z
" clip-path="url(#pf588b3d729)" style="fill: #f58c8c"/>
   </g>
   <g id="patch_86">
    <path d="M 266.658725 378 
L 268.636933 378 
L 268.636933 347.244696 
L 266.658725 347.244696 
z
" clip-path="url(#pf588b3d729)" style="fill: #f58c8c"/>
   </g>
   <g id="patch_87">
    <path d="M 268.636933 378 
L 270.615141 378 
L 270.615141 341.093635 
L 268.636933 341.093635 
z
" clip-path="url(#pf588b3d729)" style="fill: #f58c8c"/>
   </g>
   <g id="patch_88">
    <path d="M 270.615141 378 
L 272.59335 378 
L 272.59335 329.40662 
L 270.615141 329.40662 
z
" clip-path="url(#pf588b3d729)" style="fill: #f58c8c"/>
   </g>
   <g id="patch_89">
    <path d="M 272.59335 378 
L 274.571558 378 
L 274.571558 330.021726 
L 272.59335 330.021726 
z
" clip-path="url(#pf588b3d729)" style="fill: #f58c8c"/>
   </g>
   <g id="patch_90">
    <path d="M 274.571558 378 
L 276.549766 378 
L 276.549766 330.021726 
L 274.571558 330.021726 
z
" clip-path="url(#pf588b3d729)" style="fill: #f58c8c"/>
   </g>
   <g id="patch_91">
    <path d="M 276.549766 378 
L 278.527974 378 
L 278.527974 305.417482 
L 276.549766 305.417482 
z
" clip-path="url(#pf588b3d729)" style="fill: #f58c8c"/>
   </g>
   <g id="patch_92">
    <path d="M 278.527974 378 
L 280.506183 378 
L 280.506183 313.413861 
L 278.527974 313.413861 
z
" clip-path="url(#pf588b3d729)" style="fill: #f58c8c"/>
   </g>
   <g id="patch_93">
    <path d="M 280.506183 378 
L 282.484391 378 
L 282.484391 292.500255 
L 280.506183 292.500255 
z
" clip-path="url(#pf588b3d729)" style="fill: #f58c8c"/>
   </g>
   <g id="patch_94">
    <path d="M 282.484391 378 
L 284.462599 378 
L 284.462599 302.341952 
L 282.484391 302.341952 
z
" clip-path="url(#pf588b3d729)" style="fill: #f58c8c"/>
   </g>
   <g id="patch_95">
    <path d="M 284.462599 378 
L 286.440807 378 
L 286.440807 288.809618 
L 284.462599 288.809618 
z
" clip-path="url(#pf588b3d729)" style="fill: #f58c8c"/>
   </g>
   <g id="patch_96">
    <path d="M 286.440807 378 
L 288.419016 378 
L 288.419016 266.050693 
L 286.440807 266.050693 
z
" clip-path="url(#pf588b3d729)" style="fill: #f58c8c"/>
   </g>
   <g id="patch_97">
    <path d="M 288.419016 378 
L 290.397224 378 
L 290.397224 254.363678 
L 288.419016 254.363678 
z
" clip-path="url(#pf588b3d729)" style="fill: #f58c8c"/>
   </g>
   <g id="patch_98">
    <path d="M 290.397224 378 
L 292.375432 378 
L 292.375432 243.906874 
L 290.397224 243.906874 
z
" clip-path="url(#pf588b3d729)" style="fill: #f58c8c"/>
   </g>
   <g id="patch_99">
    <path d="M 292.375432 378 
L 294.35364 378 
L 294.35364 236.525601 
L 292.375432 236.525601 
z
" clip-path="url(#pf588b3d729)" style="fill: #f58c8c"/>
   </g>
   <g id="patch_100">
    <path d="M 294.35364 378 
L 296.331849 378 
L 296.331849 238.986025 
L 294.35364 238.986025 
z
" clip-path="url(#pf588b3d729)" style="fill: #f58c8c"/>
   </g>
   <g id="patch_101">
    <path d="M 296.331849 378 
L 298.310057 378 
L 298.310057 210.691146 
L 296.331849 210.691146 
z
" clip-path="url(#pf588b3d729)" style="fill: #f58c8c"/>
   </g>
   <g id="patch_102">
    <path d="M 298.310057 378 
L 300.288265 378 
L 300.288265 172.554569 
L 298.310057 172.554569 
z
" clip-path="url(#pf588b3d729)" style="fill: #f58c8c"/>
   </g>
   <g id="patch_103">
    <path d="M 300.288265 378 
L 302.266473 378 
L 302.266473 152.871174 
L 300.288265 152.871174 
z
" clip-path="url(#pf588b3d729)" style="fill: #f58c8c"/>
   </g>
   <g id="patch_104">
    <path d="M 302.266473 378 
L 304.244682 378 
L 304.244682 119.655446 
L 302.266473 119.655446 
z
" clip-path="url(#pf588b3d729)" style="fill: #f58c8c"/>
   </g>
   <g id="patch_105">
    <path d="M 304.244682 378 
L 306.22289 378 
L 306.22289 114.734597 
L 304.244682 114.734597 
z
" clip-path="url(#pf588b3d729)" style="fill: #f58c8c"/>
   </g>
   <g id="patch_106">
    <path d="M 306.22289 378 
L 308.201098 378 
L 308.201098 90.130354 
L 306.22289 90.130354 
z
" clip-path="url(#pf588b3d729)" style="fill: #f58c8c"/>
   </g>
   <g id="patch_107">
    <path d="M 308.201098 378 
L 310.179306 378 
L 310.179306 67.371429 
L 308.201098 67.371429 
z
" clip-path="url(#pf588b3d729)" style="fill: #f58c8c"/>
   </g>
   <g id="patch_108">
    <path d="M 310.179306 378 
L 312.157515 378 
L 312.157515 69.831853 
L 310.179306 69.831853 
z
" clip-path="url(#pf588b3d729)" style="fill: #f58c8c"/>
   </g>
   <g id="patch_109">
    <path d="M 312.157515 378 
L 314.135723 378 
L 314.135723 97.511627 
L 312.157515 97.511627 
z
" clip-path="url(#pf588b3d729)" style="fill: #f58c8c"/>
   </g>
   <g id="patch_110">
    <path d="M 314.135723 378 
L 316.113931 378 
L 316.113931 143.644583 
L 314.135723 143.644583 
z
" clip-path="url(#pf588b3d729)" style="fill: #f58c8c"/>
   </g>
   <g id="patch_111">
    <path d="M 316.113931 378 
L 318.092139 378 
L 318.092139 140.569052 
L 316.113931 140.569052 
z
" clip-path="url(#pf588b3d729)" style="fill: #f58c8c"/>
   </g>
   <g id="patch_112">
    <path d="M 318.092139 378 
L 320.070348 378 
L 320.070348 183.626478 
L 318.092139 183.626478 
z
" clip-path="url(#pf588b3d729)" style="fill: #f58c8c"/>
   </g>
   <g id="patch_113">
    <path d="M 320.070348 378 
L 322.048556 378 
L 322.048556 209.460934 
L 320.070348 209.460934 
z
" clip-path="url(#pf588b3d729)" style="fill: #f58c8c"/>
   </g>
   <g id="patch_114">
    <path d="M 322.048556 378 
L 324.026764 378 
L 324.026764 227.914116 
L 322.048556 227.914116 
z
" clip-path="url(#pf588b3d729)" style="fill: #f58c8c"/>
   </g>
   <g id="patch_115">
    <path d="M 324.026764 378 
L 326.004973 378 
L 326.004973 250.057935 
L 324.026764 250.057935 
z
" clip-path="url(#pf588b3d729)" style="fill: #f58c8c"/>
   </g>
   <g id="patch_116">
    <path d="M 326.004973 378 
L 327.983181 378 
L 327.983181 259.284526 
L 326.004973 259.284526 
z
" clip-path="url(#pf588b3d729)" style="fill: #f58c8c"/>
   </g>
   <g id="patch_117">
    <path d="M 327.983181 378 
L 329.961389 378 
L 329.961389 257.439208 
L 327.983181 257.439208 
z
" clip-path="url(#pf588b3d729)" style="fill: #f58c8c"/>
   </g>
   <g id="patch_118">
    <path d="M 329.961389 378 
L 331.939597 378 
L 331.939597 275.89239 
L 329.961389 275.89239 
z
" clip-path="url(#pf588b3d729)" style="fill: #f58c8c"/>
   </g>
   <g id="patch_119">
    <path d="M 331.939597 378 
L 333.917806 378 
L 333.917806 304.18727 
L 331.939597 304.18727 
z
" clip-path="url(#pf588b3d729)" style="fill: #f58c8c"/>
   </g>
   <g id="patch_120">
    <path d="M 333.917806 378 
L 335.896014 378 
L 335.896014 296.190891 
L 333.917806 296.190891 
z
" clip-path="url(#pf588b3d729)" style="fill: #f58c8c"/>
   </g>
   <g id="patch_121">
    <path d="M 335.896014 378 
L 337.874222 378 
L 337.874222 306.032588 
L 335.896014 306.032588 
z
" clip-path="url(#pf588b3d729)" style="fill: #f58c8c"/>
   </g>
   <g id="patch_122">
    <path d="M 337.874222 378 
L 339.85243 378 
L 339.85243 306.647694 
L 337.874222 306.647694 
z
" clip-path="url(#pf588b3d729)" style="fill: #f58c8c"/>
   </g>
   <g id="patch_123">
    <path d="M 339.85243 378 
L 341.830639 378 
L 341.830639 322.025347 
L 339.85243 322.025347 
z
" clip-path="url(#pf588b3d729)" style="fill: #f58c8c"/>
   </g>
   <g id="patch_124">
    <path d="M 341.830639 378 
L 343.808847 378 
L 343.808847 325.715983 
L 341.830639 325.715983 
z
" clip-path="url(#pf588b3d729)" style="fill: #f58c8c"/>
   </g>
   <g id="patch_125">
    <path d="M 343.808847 378 
L 345.787055 378 
L 345.787055 334.327468 
L 343.808847 334.327468 
z
" clip-path="url(#pf588b3d729)" style="fill: #f58c8c"/>
   </g>
   <g id="patch_126">
    <path d="M 345.787055 378 
L 347.765263 378 
L 347.765263 346.014484 
L 345.787055 346.014484 
z
" clip-path="url(#pf588b3d729)" style="fill: #f58c8c"/>
   </g>
   <g id="patch_127">
    <path d="M 347.765263 378 
L 349.743472 378 
L 349.743472 347.859802 
L 347.765263 347.859802 
z
" clip-path="url(#pf588b3d729)" style="fill: #f58c8c"/>
   </g>
   <g id="patch_128">
    <path d="M 349.743472 378 
L 351.72168 378 
L 351.72168 335.55768 
L 349.743472 335.55768 
z
" clip-path="url(#pf588b3d729)" style="fill: #f58c8c"/>
   </g>
   <g id="patch_129">
    <path d="M 351.72168 378 
L 353.699888 378 
L 353.699888 352.780651 
L 351.72168 352.780651 
z
" clip-path="url(#pf588b3d729)" style="fill: #f58c8c"/>
   </g>
   <g id="patch_130">
    <path d="M 353.699888 378 
L 355.678096 378 
L 355.678096 354.010863 
L 353.699888 354.010863 
z
" clip-path="url(#pf588b3d729)" style="fill: #f58c8c"/>
   </g>
   <g id="patch_131">
    <path d="M 355.678096 378 
L 357.656305 378 
L 357.656305 353.395757 
L 355.678096 353.395757 
z
" clip-path="url(#pf588b3d729)" style="fill: #f58c8c"/>
   </g>
   <g id="patch_132">
    <path d="M 357.656305 378 
L 359.634513 378 
L 359.634513 356.471287 
L 357.656305 356.471287 
z
" clip-path="url(#pf588b3d729)" style="fill: #f58c8c"/>
   </g>
   <g id="patch_133">
    <path d="M 359.634513 378 
L 361.612721 378 
L 361.612721 358.931711 
L 359.634513 358.931711 
z
" clip-path="url(#pf588b3d729)" style="fill: #f58c8c"/>
   </g>
   <g id="patch_134">
    <path d="M 361.612721 378 
L 363.590929 378 
L 363.590929 358.931711 
L 361.612721 358.931711 
z
" clip-path="url(#pf588b3d729)" style="fill: #f58c8c"/>
   </g>
   <g id="patch_135">
    <path d="M 363.590929 378 
L 365.569138 378 
L 365.569138 364.467666 
L 363.590929 364.467666 
z
" clip-path="url(#pf588b3d729)" style="fill: #f58c8c"/>
   </g>
   <g id="patch_136">
    <path d="M 365.569138 378 
L 367.547346 378 
L 367.547346 367.543197 
L 365.569138 367.543197 
z
" clip-path="url(#pf588b3d729)" style="fill: #f58c8c"/>
   </g>
   <g id="patch_137">
    <path d="M 367.547346 378 
L 369.525554 378 
L 369.525554 365.697878 
L 367.547346 365.697878 
z
" clip-path="url(#pf588b3d729)" style="fill: #f58c8c"/>
   </g>
   <g id="patch_138">
    <path d="M 369.525554 378 
L 371.503762 378 
L 371.503762 368.158303 
L 369.525554 368.158303 
z
" clip-path="url(#pf588b3d729)" style="fill: #f58c8c"/>
   </g>
   <g id="patch_139">
    <path d="M 371.503762 378 
L 373.481971 378 
L 373.481971 368.158303 
L 371.503762 368.158303 
z
" clip-path="url(#pf588b3d729)" style="fill: #f58c8c"/>
   </g>
   <g id="patch_140">
    <path d="M 373.481971 378 
L 375.460179 378 
L 375.460179 369.388515 
L 373.481971 369.388515 
z
" clip-path="url(#pf588b3d729)" style="fill: #f58c8c"/>
   </g>
   <g id="patch_141">
    <path d="M 375.460179 378 
L 377.438387 378 
L 377.438387 372.464045 
L 375.460179 372.464045 
z
" clip-path="url(#pf588b3d729)" style="fill: #f58c8c"/>
   </g>
   <g id="patch_142">
    <path d="M 377.438387 378 
L 379.416595 378 
L 379.416595 370.618727 
L 377.438387 370.618727 
z
" clip-path="url(#pf588b3d729)" style="fill: #f58c8c"/>
   </g>
   <g id="patch_143">
    <path d="M 379.416595 378 
L 381.394804 378 
L 381.394804 374.309364 
L 379.416595 374.309364 
z
" clip-path="url(#pf588b3d729)" style="fill: #f58c8c"/>
   </g>
   <g id="patch_144">
    <path d="M 381.394804 378 
L 383.373012 378 
L 383.373012 370.003621 
L 381.394804 370.003621 
z
" clip-path="url(#pf588b3d729)" style="fill: #f58c8c"/>
   </g>
   <g id="patch_145">
    <path d="M 383.373012 378 
L 385.35122 378 
L 385.35122 371.848939 
L 383.373012 371.848939 
z
" clip-path="url(#pf588b3d729)" style="fill: #f58c8c"/>
   </g>
   <g id="patch_146">
    <path d="M 385.35122 378 
L 387.329428 378 
L 387.329428 370.003621 
L 385.35122 370.003621 
z
" clip-path="url(#pf588b3d729)" style="fill: #f58c8c"/>
   </g>
   <g id="patch_147">
    <path d="M 387.329428 378 
L 389.307637 378 
L 389.307637 375.539576 
L 387.329428 375.539576 
z
" clip-path="url(#pf588b3d729)" style="fill: #f58c8c"/>
   </g>
   <g id="patch_148">
    <path d="M 389.307637 378 
L 391.285845 378 
L 391.285845 374.309364 
L 389.307637 374.309364 
z
" clip-path="url(#pf588b3d729)" style="fill: #f58c8c"/>
   </g>
   <g id="patch_149">
    <path d="M 391.285845 378 
L 393.264053 378 
L 393.264053 375.539576 
L 391.285845 375.539576 
z
" clip-path="url(#pf588b3d729)" style="fill: #f58c8c"/>
   </g>
   <g id="patch_150">
    <path d="M 393.264053 378 
L 395.242262 378 
L 395.242262 374.92447 
L 393.264053 374.92447 
z
" clip-path="url(#pf588b3d729)" style="fill: #f58c8c"/>
   </g>
   <g id="patch_151">
    <path d="M 395.242262 378 
L 397.22047 378 
L 397.22047 376.154682 
L 395.242262 376.154682 
z
" clip-path="url(#pf588b3d729)" style="fill: #f58c8c"/>
   </g>
   <g id="patch_152">
    <path d="M 397.22047 378 
L 399.198678 378 
L 399.198678 375.539576 
L 397.22047 375.539576 
z
" clip-path="url(#pf588b3d729)" style="fill: #f58c8c"/>
   </g>
   <g id="patch_153">
    <path d="M 399.198678 378 
L 401.176886 378 
L 401.176886 377.384894 
L 399.198678 377.384894 
z
" clip-path="url(#pf588b3d729)" style="fill: #f58c8c"/>
   </g>
   <g id="patch_154">
    <path d="M 401.176886 378 
L 403.155095 378 
L 403.155095 376.769788 
L 401.176886 376.769788 
z
" clip-path="url(#pf588b3d729)" style="fill: #f58c8c"/>
   </g>
   <g id="patch_155">
    <path d="M 403.155095 378 
L 405.133303 378 
L 405.133303 376.154682 
L 403.155095 376.154682 
z
" clip-path="url(#pf588b3d729)" style="fill: #f58c8c"/>
   </g>
   <g id="patch_156">
    <path d="M 405.133303 378 
L 407.111511 378 
L 407.111511 374.92447 
L 405.133303 374.92447 
z
" clip-path="url(#pf588b3d729)" style="fill: #f58c8c"/>
   </g>
   <g id="patch_157">
    <path d="M 407.111511 378 
L 409.089719 378 
L 409.089719 377.384894 
L 407.111511 377.384894 
z
" clip-path="url(#pf588b3d729)" style="fill: #f58c8c"/>
   </g>
   <g id="patch_158">
    <path d="M 409.089719 378 
L 411.067928 378 
L 411.067928 376.769788 
L 409.089719 376.769788 
z
" clip-path="url(#pf588b3d729)" style="fill: #f58c8c"/>
   </g>
   <g id="patch_159">
    <path d="M 411.067928 378 
L 413.046136 378 
L 413.046136 377.384894 
L 411.067928 377.384894 
z
" clip-path="url(#pf588b3d729)" style="fill: #f58c8c"/>
   </g>
   <g id="patch_160">
    <path d="M 413.046136 378 
L 415.024344 378 
L 415.024344 377.384894 
L 413.046136 377.384894 
z
" clip-path="url(#pf588b3d729)" style="fill: #f58c8c"/>
   </g>
   <g id="patch_161">
    <path d="M 415.024344 378 
L 417.002552 378 
L 417.002552 375.539576 
L 415.024344 375.539576 
z
" clip-path="url(#pf588b3d729)" style="fill: #f58c8c"/>
   </g>
   <g id="patch_162">
    <path d="M 417.002552 378 
L 418.980761 378 
L 418.980761 376.769788 
L 417.002552 376.769788 
z
" clip-path="url(#pf588b3d729)" style="fill: #f58c8c"/>
   </g>
   <g id="patch_163">
    <path d="M 418.980761 378 
L 420.958969 378 
L 420.958969 378 
L 418.980761 378 
z
" clip-path="url(#pf588b3d729)" style="fill: #f58c8c"/>
   </g>
   <g id="patch_164">
    <path d="M 420.958969 378 
L 422.937177 378 
L 422.937177 378 
L 420.958969 378 
z
" clip-path="url(#pf588b3d729)" style="fill: #f58c8c"/>
   </g>
   <g id="patch_165">
    <path d="M 422.937177 378 
L 424.915385 378 
L 424.915385 377.384894 
L 422.937177 377.384894 
z
" clip-path="url(#pf588b3d729)" style="fill: #f58c8c"/>
   </g>
   <g id="patch_166">
    <path d="M 424.915385 378 
L 426.893594 378 
L 426.893594 376.154682 
L 424.915385 376.154682 
z
" clip-path="url(#pf588b3d729)" style="fill: #f58c8c"/>
   </g>
   <g id="patch_167">
    <path d="M 426.893594 378 
L 428.871802 378 
L 428.871802 378 
L 426.893594 378 
z
" clip-path="url(#pf588b3d729)" style="fill: #f58c8c"/>
   </g>
   <g id="patch_168">
    <path d="M 428.871802 378 
L 430.85001 378 
L 430.85001 376.769788 
L 428.871802 376.769788 
z
" clip-path="url(#pf588b3d729)" style="fill: #f58c8c"/>
   </g>
   <g id="patch_169">
    <path d="M 430.85001 378 
L 432.828218 378 
L 432.828218 377.384894 
L 430.85001 377.384894 
z
" clip-path="url(#pf588b3d729)" style="fill: #f58c8c"/>
   </g>
   <g id="patch_170">
    <path d="M 432.828218 378 
L 434.806427 378 
L 434.806427 377.384894 
L 432.828218 377.384894 
z
" clip-path="url(#pf588b3d729)" style="fill: #f58c8c"/>
   </g>
   <g id="patch_171">
    <path d="M 434.806427 378 
L 436.784635 378 
L 436.784635 378 
L 434.806427 378 
z
" clip-path="url(#pf588b3d729)" style="fill: #f58c8c"/>
   </g>
   <g id="patch_172">
    <path d="M 436.784635 378 
L 438.762843 378 
L 438.762843 377.384894 
L 436.784635 377.384894 
z
" clip-path="url(#pf588b3d729)" style="fill: #f58c8c"/>
   </g>
   <g id="patch_173">
    <path d="M 438.762843 378 
L 440.741051 378 
L 440.741051 378 
L 438.762843 378 
z
" clip-path="url(#pf588b3d729)" style="fill: #f58c8c"/>
   </g>
   <g id="patch_174">
    <path d="M 440.741051 378 
L 442.71926 378 
L 442.71926 378 
L 440.741051 378 
z
" clip-path="url(#pf588b3d729)" style="fill: #f58c8c"/>
   </g>
   <g id="patch_175">
    <path d="M 442.71926 378 
L 444.697468 378 
L 444.697468 378 
L 442.71926 378 
z
" clip-path="url(#pf588b3d729)" style="fill: #f58c8c"/>
   </g>
   <g id="patch_176">
    <path d="M 444.697468 378 
L 446.675676 378 
L 446.675676 377.384894 
L 444.697468 377.384894 
z
" clip-path="url(#pf588b3d729)" style="fill: #f58c8c"/>
   </g>
   <g id="patch_177">
    <path d="M 446.675676 378 
L 448.653884 378 
L 448.653884 378 
L 446.675676 378 
z
" clip-path="url(#pf588b3d729)" style="fill: #f58c8c"/>
   </g>
   <g id="patch_178">
    <path d="M 448.653884 378 
L 450.632093 378 
L 450.632093 378 
L 448.653884 378 
z
" clip-path="url(#pf588b3d729)" style="fill: #f58c8c"/>
   </g>
   <g id="patch_179">
    <path d="M 450.632093 378 
L 452.610301 378 
L 452.610301 378 
L 450.632093 378 
z
" clip-path="url(#pf588b3d729)" style="fill: #f58c8c"/>
   </g>
   <g id="patch_180">
    <path d="M 452.610301 378 
L 454.588509 378 
L 454.588509 377.384894 
L 452.610301 377.384894 
z
" clip-path="url(#pf588b3d729)" style="fill: #f58c8c"/>
   </g>
   <g id="patch_181">
    <path d="M 454.588509 378 
L 456.566718 378 
L 456.566718 378 
L 454.588509 378 
z
" clip-path="url(#pf588b3d729)" style="fill: #f58c8c"/>
   </g>
   <g id="patch_182">
    <path d="M 456.566718 378 
L 458.544926 378 
L 458.544926 377.384894 
L 456.566718 377.384894 
z
" clip-path="url(#pf588b3d729)" style="fill: #f58c8c"/>
   </g>
   <g id="patch_183">
    <path d="M 458.544926 378 
L 460.523134 378 
L 460.523134 378 
L 458.544926 378 
z
" clip-path="url(#pf588b3d729)" style="fill: #f58c8c"/>
   </g>
   <g id="patch_184">
    <path d="M 460.523134 378 
L 462.501342 378 
L 462.501342 378 
L 460.523134 378 
z
" clip-path="url(#pf588b3d729)" style="fill: #f58c8c"/>
   </g>
   <g id="patch_185">
    <path d="M 462.501342 378 
L 464.479551 378 
L 464.479551 377.384894 
L 462.501342 377.384894 
z
" clip-path="url(#pf588b3d729)" style="fill: #f58c8c"/>
   </g>
   <g id="patch_186">
    <path d="M 464.479551 378 
L 466.457759 378 
L 466.457759 378 
L 464.479551 378 
z
" clip-path="url(#pf588b3d729)" style="fill: #f58c8c"/>
   </g>
   <g id="patch_187">
    <path d="M 466.457759 378 
L 468.435967 378 
L 468.435967 378 
L 466.457759 378 
z
" clip-path="url(#pf588b3d729)" style="fill: #f58c8c"/>
   </g>
   <g id="patch_188">
    <path d="M 468.435967 378 
L 470.414175 378 
L 470.414175 378 
L 468.435967 378 
z
" clip-path="url(#pf588b3d729)" style="fill: #f58c8c"/>
   </g>
   <g id="patch_189">
    <path d="M 470.414175 378 
L 472.392384 378 
L 472.392384 378 
L 470.414175 378 
z
" clip-path="url(#pf588b3d729)" style="fill: #f58c8c"/>
   </g>
   <g id="patch_190">
    <path d="M 472.392384 378 
L 474.370592 378 
L 474.370592 378 
L 472.392384 378 
z
" clip-path="url(#pf588b3d729)" style="fill: #f58c8c"/>
   </g>
   <g id="patch_191">
    <path d="M 474.370592 378 
L 476.3488 378 
L 476.3488 377.384894 
L 474.370592 377.384894 
z
" clip-path="url(#pf588b3d729)" style="fill: #f58c8c"/>
   </g>
   <g id="patch_192">
    <path d="M 476.3488 378 
L 478.327008 378 
L 478.327008 378 
L 476.3488 378 
z
" clip-path="url(#pf588b3d729)" style="fill: #f58c8c"/>
   </g>
   <g id="patch_193">
    <path d="M 478.327008 378 
L 480.305217 378 
L 480.305217 378 
L 478.327008 378 
z
" clip-path="url(#pf588b3d729)" style="fill: #f58c8c"/>
   </g>
   <g id="patch_194">
    <path d="M 480.305217 378 
L 482.283425 378 
L 482.283425 378 
L 480.305217 378 
z
" clip-path="url(#pf588b3d729)" style="fill: #f58c8c"/>
   </g>
   <g id="patch_195">
    <path d="M 482.283425 378 
L 484.261633 378 
L 484.261633 378 
L 482.283425 378 
z
" clip-path="url(#pf588b3d729)" style="fill: #f58c8c"/>
   </g>
   <g id="patch_196">
    <path d="M 484.261633 378 
L 486.239841 378 
L 486.239841 378 
L 484.261633 378 
z
" clip-path="url(#pf588b3d729)" style="fill: #f58c8c"/>
   </g>
   <g id="patch_197">
    <path d="M 486.239841 378 
L 488.21805 378 
L 488.21805 378 
L 486.239841 378 
z
" clip-path="url(#pf588b3d729)" style="fill: #f58c8c"/>
   </g>
   <g id="patch_198">
    <path d="M 488.21805 378 
L 490.196258 378 
L 490.196258 378 
L 488.21805 378 
z
" clip-path="url(#pf588b3d729)" style="fill: #f58c8c"/>
   </g>
   <g id="patch_199">
    <path d="M 490.196258 378 
L 492.174466 378 
L 492.174466 378 
L 490.196258 378 
z
" clip-path="url(#pf588b3d729)" style="fill: #f58c8c"/>
   </g>
   <g id="patch_200">
    <path d="M 492.174466 378 
L 494.152674 378 
L 494.152674 378 
L 492.174466 378 
z
" clip-path="url(#pf588b3d729)" style="fill: #f58c8c"/>
   </g>
   <g id="patch_201">
    <path d="M 494.152674 378 
L 496.130883 378 
L 496.130883 378 
L 494.152674 378 
z
" clip-path="url(#pf588b3d729)" style="fill: #f58c8c"/>
   </g>
   <g id="patch_202">
    <path d="M 496.130883 378 
L 498.109091 378 
L 498.109091 377.384894 
L 496.130883 377.384894 
z
" clip-path="url(#pf588b3d729)" style="fill: #f58c8c"/>
   </g>
   <g id="patch_203">
    <path d="M 92.290909 378 
L 94.198519 378 
L 94.198519 377.384894 
L 92.290909 377.384894 
z
" clip-path="url(#pf588b3d729)" style="fill: #a30000"/>
   </g>
   <g id="patch_204">
    <path d="M 94.198519 378 
L 96.10613 378 
L 96.10613 378 
L 94.198519 378 
z
" clip-path="url(#pf588b3d729)" style="fill: #a30000"/>
   </g>
   <g id="patch_205">
    <path d="M 96.10613 378 
L 98.01374 378 
L 98.01374 378 
L 96.10613 378 
z
" clip-path="url(#pf588b3d729)" style="fill: #a30000"/>
   </g>
   <g id="patch_206">
    <path d="M 98.01374 378 
L 99.92135 378 
L 99.92135 378 
L 98.01374 378 
z
" clip-path="url(#pf588b3d729)" style="fill: #a30000"/>
   </g>
   <g id="patch_207">
    <path d="M 99.92135 378 
L 101.82896 378 
L 101.82896 378 
L 99.92135 378 
z
" clip-path="url(#pf588b3d729)" style="fill: #a30000"/>
   </g>
   <g id="patch_208">
    <path d="M 101.82896 378 
L 103.736571 378 
L 103.736571 378 
L 101.82896 378 
z
" clip-path="url(#pf588b3d729)" style="fill: #a30000"/>
   </g>
   <g id="patch_209">
    <path d="M 103.736571 378 
L 105.644181 378 
L 105.644181 378 
L 103.736571 378 
z
" clip-path="url(#pf588b3d729)" style="fill: #a30000"/>
   </g>
   <g id="patch_210">
    <path d="M 105.644181 378 
L 107.551791 378 
L 107.551791 378 
L 105.644181 378 
z
" clip-path="url(#pf588b3d729)" style="fill: #a30000"/>
   </g>
   <g id="patch_211">
    <path d="M 107.551791 378 
L 109.459402 378 
L 109.459402 378 
L 107.551791 378 
z
" clip-path="url(#pf588b3d729)" style="fill: #a30000"/>
   </g>
   <g id="patch_212">
    <path d="M 109.459402 378 
L 111.367012 378 
L 111.367012 378 
L 109.459402 378 
z
" clip-path="url(#pf588b3d729)" style="fill: #a30000"/>
   </g>
   <g id="patch_213">
    <path d="M 111.367012 378 
L 113.274622 378 
L 113.274622 378 
L 111.367012 378 
z
" clip-path="url(#pf588b3d729)" style="fill: #a30000"/>
   </g>
   <g id="patch_214">
    <path d="M 113.274622 378 
L 115.182232 378 
L 115.182232 378 
L 113.274622 378 
z
" clip-path="url(#pf588b3d729)" style="fill: #a30000"/>
   </g>
   <g id="patch_215">
    <path d="M 115.182232 378 
L 117.089843 378 
L 117.089843 377.384894 
L 115.182232 377.384894 
z
" clip-path="url(#pf588b3d729)" style="fill: #a30000"/>
   </g>
   <g id="patch_216">
    <path d="M 117.089843 378 
L 118.997453 378 
L 118.997453 378 
L 117.089843 378 
z
" clip-path="url(#pf588b3d729)" style="fill: #a30000"/>
   </g>
   <g id="patch_217">
    <path d="M 118.997453 378 
L 120.905063 378 
L 120.905063 377.384894 
L 118.997453 377.384894 
z
" clip-path="url(#pf588b3d729)" style="fill: #a30000"/>
   </g>
   <g id="patch_218">
    <path d="M 120.905063 378 
L 122.812673 378 
L 122.812673 377.384894 
L 120.905063 377.384894 
z
" clip-path="url(#pf588b3d729)" style="fill: #a30000"/>
   </g>
   <g id="patch_219">
    <path d="M 122.812673 378 
L 124.720284 378 
L 124.720284 378 
L 122.812673 378 
z
" clip-path="url(#pf588b3d729)" style="fill: #a30000"/>
   </g>
   <g id="patch_220">
    <path d="M 124.720284 378 
L 126.627894 378 
L 126.627894 378 
L 124.720284 378 
z
" clip-path="url(#pf588b3d729)" style="fill: #a30000"/>
   </g>
   <g id="patch_221">
    <path d="M 126.627894 378 
L 128.535504 378 
L 128.535504 376.769788 
L 126.627894 376.769788 
z
" clip-path="url(#pf588b3d729)" style="fill: #a30000"/>
   </g>
   <g id="patch_222">
    <path d="M 128.535504 378 
L 130.443114 378 
L 130.443114 376.154682 
L 128.535504 376.154682 
z
" clip-path="url(#pf588b3d729)" style="fill: #a30000"/>
   </g>
   <g id="patch_223">
    <path d="M 130.443114 378 
L 132.350725 378 
L 132.350725 378 
L 130.443114 378 
z
" clip-path="url(#pf588b3d729)" style="fill: #a30000"/>
   </g>
   <g id="patch_224">
    <path d="M 132.350725 378 
L 134.258335 378 
L 134.258335 378 
L 132.350725 378 
z
" clip-path="url(#pf588b3d729)" style="fill: #a30000"/>
   </g>
   <g id="patch_225">
    <path d="M 134.258335 378 
L 136.165945 378 
L 136.165945 378 
L 134.258335 378 
z
" clip-path="url(#pf588b3d729)" style="fill: #a30000"/>
   </g>
   <g id="patch_226">
    <path d="M 136.165945 378 
L 138.073556 378 
L 138.073556 378 
L 136.165945 378 
z
" clip-path="url(#pf588b3d729)" style="fill: #a30000"/>
   </g>
   <g id="patch_227">
    <path d="M 138.073556 378 
L 139.981166 378 
L 139.981166 378 
L 138.073556 378 
z
" clip-path="url(#pf588b3d729)" style="fill: #a30000"/>
   </g>
   <g id="patch_228">
    <path d="M 139.981166 378 
L 141.888776 378 
L 141.888776 378 
L 139.981166 378 
z
" clip-path="url(#pf588b3d729)" style="fill: #a30000"/>
   </g>
   <g id="patch_229">
    <path d="M 141.888776 378 
L 143.796386 378 
L 143.796386 377.384894 
L 141.888776 377.384894 
z
" clip-path="url(#pf588b3d729)" style="fill: #a30000"/>
   </g>
   <g id="patch_230">
    <path d="M 143.796386 378 
L 145.703997 378 
L 145.703997 378 
L 143.796386 378 
z
" clip-path="url(#pf588b3d729)" style="fill: #a30000"/>
   </g>
   <g id="patch_231">
    <path d="M 145.703997 378 
L 147.611607 378 
L 147.611607 377.384894 
L 145.703997 377.384894 
z
" clip-path="url(#pf588b3d729)" style="fill: #a30000"/>
   </g>
   <g id="patch_232">
    <path d="M 147.611607 378 
L 149.519217 378 
L 149.519217 377.384894 
L 147.611607 377.384894 
z
" clip-path="url(#pf588b3d729)" style="fill: #a30000"/>
   </g>
   <g id="patch_233">
    <path d="M 149.519217 378 
L 151.426827 378 
L 151.426827 377.384894 
L 149.519217 377.384894 
z
" clip-path="url(#pf588b3d729)" style="fill: #a30000"/>
   </g>
   <g id="patch_234">
    <path d="M 151.426827 378 
L 153.334438 378 
L 153.334438 377.384894 
L 151.426827 377.384894 
z
" clip-path="url(#pf588b3d729)" style="fill: #a30000"/>
   </g>
   <g id="patch_235">
    <path d="M 153.334438 378 
L 155.242048 378 
L 155.242048 378 
L 153.334438 378 
z
" clip-path="url(#pf588b3d729)" style="fill: #a30000"/>
   </g>
   <g id="patch_236">
    <path d="M 155.242048 378 
L 157.149658 378 
L 157.149658 378 
L 155.242048 378 
z
" clip-path="url(#pf588b3d729)" style="fill: #a30000"/>
   </g>
   <g id="patch_237">
    <path d="M 157.149658 378 
L 159.057268 378 
L 159.057268 375.539576 
L 157.149658 375.539576 
z
" clip-path="url(#pf588b3d729)" style="fill: #a30000"/>
   </g>
   <g id="patch_238">
    <path d="M 159.057268 378 
L 160.964879 378 
L 160.964879 377.384894 
L 159.057268 377.384894 
z
" clip-path="url(#pf588b3d729)" style="fill: #a30000"/>
   </g>
   <g id="patch_239">
    <path d="M 160.964879 378 
L 162.872489 378 
L 162.872489 377.384894 
L 160.964879 377.384894 
z
" clip-path="url(#pf588b3d729)" style="fill: #a30000"/>
   </g>
   <g id="patch_240">
    <path d="M 162.872489 378 
L 164.780099 378 
L 164.780099 376.154682 
L 162.872489 376.154682 
z
" clip-path="url(#pf588b3d729)" style="fill: #a30000"/>
   </g>
   <g id="patch_241">
    <path d="M 164.780099 378 
L 166.68771 378 
L 166.68771 374.92447 
L 164.780099 374.92447 
z
" clip-path="url(#pf588b3d729)" style="fill: #a30000"/>
   </g>
   <g id="patch_242">
    <path d="M 166.68771 378 
L 168.59532 378 
L 168.59532 378 
L 166.68771 378 
z
" clip-path="url(#pf588b3d729)" style="fill: #a30000"/>
   </g>
   <g id="patch_243">
    <path d="M 168.59532 378 
L 170.50293 378 
L 170.50293 376.769788 
L 168.59532 376.769788 
z
" clip-path="url(#pf588b3d729)" style="fill: #a30000"/>
   </g>
   <g id="patch_244">
    <path d="M 170.50293 378 
L 172.41054 378 
L 172.41054 376.154682 
L 170.50293 376.154682 
z
" clip-path="url(#pf588b3d729)" style="fill: #a30000"/>
   </g>
   <g id="patch_245">
    <path d="M 172.41054 378 
L 174.318151 378 
L 174.318151 376.769788 
L 172.41054 376.769788 
z
" clip-path="url(#pf588b3d729)" style="fill: #a30000"/>
   </g>
   <g id="patch_246">
    <path d="M 174.318151 378 
L 176.225761 378 
L 176.225761 375.539576 
L 174.318151 375.539576 
z
" clip-path="url(#pf588b3d729)" style="fill: #a30000"/>
   </g>
   <g id="patch_247">
    <path d="M 176.225761 378 
L 178.133371 378 
L 178.133371 378 
L 176.225761 378 
z
" clip-path="url(#pf588b3d729)" style="fill: #a30000"/>
   </g>
   <g id="patch_248">
    <path d="M 178.133371 378 
L 180.040981 378 
L 180.040981 377.384894 
L 178.133371 377.384894 
z
" clip-path="url(#pf588b3d729)" style="fill: #a30000"/>
   </g>
   <g id="patch_249">
    <path d="M 180.040981 378 
L 181.948592 378 
L 181.948592 375.539576 
L 180.040981 375.539576 
z
" clip-path="url(#pf588b3d729)" style="fill: #a30000"/>
   </g>
   <g id="patch_250">
    <path d="M 181.948592 378 
L 183.856202 378 
L 183.856202 377.384894 
L 181.948592 377.384894 
z
" clip-path="url(#pf588b3d729)" style="fill: #a30000"/>
   </g>
   <g id="patch_251">
    <path d="M 183.856202 378 
L 185.763812 378 
L 185.763812 376.154682 
L 183.856202 376.154682 
z
" clip-path="url(#pf588b3d729)" style="fill: #a30000"/>
   </g>
   <g id="patch_252">
    <path d="M 185.763812 378 
L 187.671423 378 
L 187.671423 374.92447 
L 185.763812 374.92447 
z
" clip-path="url(#pf588b3d729)" style="fill: #a30000"/>
   </g>
   <g id="patch_253">
    <path d="M 187.671423 378 
L 189.579033 378 
L 189.579033 371.848939 
L 187.671423 371.848939 
z
" clip-path="url(#pf588b3d729)" style="fill: #a30000"/>
   </g>
   <g id="patch_254">
    <path d="M 189.579033 378 
L 191.486643 378 
L 191.486643 374.92447 
L 189.579033 374.92447 
z
" clip-path="url(#pf588b3d729)" style="fill: #a30000"/>
   </g>
   <g id="patch_255">
    <path d="M 191.486643 378 
L 193.394253 378 
L 193.394253 373.694257 
L 191.486643 373.694257 
z
" clip-path="url(#pf588b3d729)" style="fill: #a30000"/>
   </g>
   <g id="patch_256">
    <path d="M 193.394253 378 
L 195.301864 378 
L 195.301864 374.309364 
L 193.394253 374.309364 
z
" clip-path="url(#pf588b3d729)" style="fill: #a30000"/>
   </g>
   <g id="patch_257">
    <path d="M 195.301864 378 
L 197.209474 378 
L 197.209474 373.694257 
L 195.301864 373.694257 
z
" clip-path="url(#pf588b3d729)" style="fill: #a30000"/>
   </g>
   <g id="patch_258">
    <path d="M 197.209474 378 
L 199.117084 378 
L 199.117084 375.539576 
L 197.209474 375.539576 
z
" clip-path="url(#pf588b3d729)" style="fill: #a30000"/>
   </g>
   <g id="patch_259">
    <path d="M 199.117084 378 
L 201.024694 378 
L 201.024694 374.309364 
L 199.117084 374.309364 
z
" clip-path="url(#pf588b3d729)" style="fill: #a30000"/>
   </g>
   <g id="patch_260">
    <path d="M 201.024694 378 
L 202.932305 378 
L 202.932305 370.618727 
L 201.024694 370.618727 
z
" clip-path="url(#pf588b3d729)" style="fill: #a30000"/>
   </g>
   <g id="patch_261">
    <path d="M 202.932305 378 
L 204.839915 378 
L 204.839915 369.388515 
L 202.932305 369.388515 
z
" clip-path="url(#pf588b3d729)" style="fill: #a30000"/>
   </g>
   <g id="patch_262">
    <path d="M 204.839915 378 
L 206.747525 378 
L 206.747525 372.464045 
L 204.839915 372.464045 
z
" clip-path="url(#pf588b3d729)" style="fill: #a30000"/>
   </g>
   <g id="patch_263">
    <path d="M 206.747525 378 
L 208.655135 378 
L 208.655135 371.848939 
L 206.747525 371.848939 
z
" clip-path="url(#pf588b3d729)" style="fill: #a30000"/>
   </g>
   <g id="patch_264">
    <path d="M 208.655135 378 
L 210.562746 378 
L 210.562746 371.233833 
L 208.655135 371.233833 
z
" clip-path="url(#pf588b3d729)" style="fill: #a30000"/>
   </g>
   <g id="patch_265">
    <path d="M 210.562746 378 
L 212.470356 378 
L 212.470356 368.773409 
L 210.562746 368.773409 
z
" clip-path="url(#pf588b3d729)" style="fill: #a30000"/>
   </g>
   <g id="patch_266">
    <path d="M 212.470356 378 
L 214.377966 378 
L 214.377966 363.237454 
L 212.470356 363.237454 
z
" clip-path="url(#pf588b3d729)" style="fill: #a30000"/>
   </g>
   <g id="patch_267">
    <path d="M 214.377966 378 
L 216.285577 378 
L 216.285577 363.237454 
L 214.377966 363.237454 
z
" clip-path="url(#pf588b3d729)" style="fill: #a30000"/>
   </g>
   <g id="patch_268">
    <path d="M 216.285577 378 
L 218.193187 378 
L 218.193187 359.546818 
L 216.285577 359.546818 
z
" clip-path="url(#pf588b3d729)" style="fill: #a30000"/>
   </g>
   <g id="patch_269">
    <path d="M 218.193187 378 
L 220.100797 378 
L 220.100797 362.007242 
L 218.193187 362.007242 
z
" clip-path="url(#pf588b3d729)" style="fill: #a30000"/>
   </g>
   <g id="patch_270">
    <path d="M 220.100797 378 
L 222.008407 378 
L 222.008407 362.007242 
L 220.100797 362.007242 
z
" clip-path="url(#pf588b3d729)" style="fill: #a30000"/>
   </g>
   <g id="patch_271">
    <path d="M 222.008407 378 
L 223.916018 378 
L 223.916018 359.546818 
L 222.008407 359.546818 
z
" clip-path="url(#pf588b3d729)" style="fill: #a30000"/>
   </g>
   <g id="patch_272">
    <path d="M 223.916018 378 
L 225.823628 378 
L 225.823628 357.086393 
L 223.916018 357.086393 
z
" clip-path="url(#pf588b3d729)" style="fill: #a30000"/>
   </g>
   <g id="patch_273">
    <path d="M 225.823628 378 
L 227.731238 378 
L 227.731238 347.244696 
L 225.823628 347.244696 
z
" clip-path="url(#pf588b3d729)" style="fill: #a30000"/>
   </g>
   <g id="patch_274">
    <path d="M 227.731238 378 
L 229.638848 378 
L 229.638848 344.169165 
L 227.731238 344.169165 
z
" clip-path="url(#pf588b3d729)" style="fill: #a30000"/>
   </g>
   <g id="patch_275">
    <path d="M 229.638848 378 
L 231.546459 378 
L 231.546459 346.014484 
L 229.638848 346.014484 
z
" clip-path="url(#pf588b3d729)" style="fill: #a30000"/>
   </g>
   <g id="patch_276">
    <path d="M 231.546459 378 
L 233.454069 378 
L 233.454069 336.172786 
L 231.546459 336.172786 
z
" clip-path="url(#pf588b3d729)" style="fill: #a30000"/>
   </g>
   <g id="patch_277">
    <path d="M 233.454069 378 
L 235.361679 378 
L 235.361679 346.014484 
L 233.454069 346.014484 
z
" clip-path="url(#pf588b3d729)" style="fill: #a30000"/>
   </g>
   <g id="patch_278">
    <path d="M 235.361679 378 
L 237.269289 378 
L 237.269289 341.708741 
L 235.361679 341.708741 
z
" clip-path="url(#pf588b3d729)" style="fill: #a30000"/>
   </g>
   <g id="patch_279">
    <path d="M 237.269289 378 
L 239.1769 378 
L 239.1769 330.636832 
L 237.269289 330.636832 
z
" clip-path="url(#pf588b3d729)" style="fill: #a30000"/>
   </g>
   <g id="patch_280">
    <path d="M 239.1769 378 
L 241.08451 378 
L 241.08451 330.021726 
L 239.1769 330.021726 
z
" clip-path="url(#pf588b3d729)" style="fill: #a30000"/>
   </g>
   <g id="patch_281">
    <path d="M 241.08451 378 
L 242.99212 378 
L 242.99212 320.795134 
L 241.08451 320.795134 
z
" clip-path="url(#pf588b3d729)" style="fill: #a30000"/>
   </g>
   <g id="patch_282">
    <path d="M 242.99212 378 
L 244.899731 378 
L 244.899731 306.032588 
L 242.99212 306.032588 
z
" clip-path="url(#pf588b3d729)" style="fill: #a30000"/>
   </g>
   <g id="patch_283">
    <path d="M 244.899731 378 
L 246.807341 378 
L 246.807341 299.881528 
L 244.899731 299.881528 
z
" clip-path="url(#pf588b3d729)" style="fill: #a30000"/>
   </g>
   <g id="patch_284">
    <path d="M 246.807341 378 
L 248.714951 378 
L 248.714951 283.273663 
L 246.807341 283.273663 
z
" clip-path="url(#pf588b3d729)" style="fill: #a30000"/>
   </g>
   <g id="patch_285">
    <path d="M 248.714951 378 
L 250.622561 378 
L 250.622561 279.583027 
L 248.714951 279.583027 
z
" clip-path="url(#pf588b3d729)" style="fill: #a30000"/>
   </g>
   <g id="patch_286">
    <path d="M 250.622561 378 
L 252.530172 378 
L 252.530172 280.198133 
L 250.622561 280.198133 
z
" clip-path="url(#pf588b3d729)" style="fill: #a30000"/>
   </g>
   <g id="patch_287">
    <path d="M 252.530172 378 
L 254.437782 378 
L 254.437782 272.201754 
L 252.530172 272.201754 
z
" clip-path="url(#pf588b3d729)" style="fill: #a30000"/>
   </g>
   <g id="patch_288">
    <path d="M 254.437782 378 
L 256.345392 378 
L 256.345392 238.986025 
L 254.437782 238.986025 
z
" clip-path="url(#pf588b3d729)" style="fill: #a30000"/>
   </g>
   <g id="patch_289">
    <path d="M 256.345392 378 
L 258.253002 378 
L 258.253002 238.986025 
L 256.345392 238.986025 
z
" clip-path="url(#pf588b3d729)" style="fill: #a30000"/>
   </g>
   <g id="patch_290">
    <path d="M 258.253002 378 
L 260.160613 378 
L 260.160613 240.831344 
L 258.253002 240.831344 
z
" clip-path="url(#pf588b3d729)" style="fill: #a30000"/>
   </g>
   <g id="patch_291">
    <path d="M 260.160613 378 
L 262.068223 378 
L 262.068223 210.691146 
L 260.160613 210.691146 
z
" clip-path="url(#pf588b3d729)" style="fill: #a30000"/>
   </g>
   <g id="patch_292">
    <path d="M 262.068223 378 
L 263.975833 378 
L 263.975833 185.471796 
L 262.068223 185.471796 
z
" clip-path="url(#pf588b3d729)" style="fill: #a30000"/>
   </g>
   <g id="patch_293">
    <path d="M 263.975833 378 
L 265.883444 378 
L 265.883444 160.252447 
L 263.975833 160.252447 
z
" clip-path="url(#pf588b3d729)" style="fill: #a30000"/>
   </g>
   <g id="patch_294">
    <path d="M 265.883444 378 
L 267.791054 378 
L 267.791054 146.105007 
L 265.883444 146.105007 
z
" clip-path="url(#pf588b3d729)" style="fill: #a30000"/>
   </g>
   <g id="patch_295">
    <path d="M 267.791054 378 
L 269.698664 378 
L 269.698664 89.515248 
L 267.791054 89.515248 
z
" clip-path="url(#pf588b3d729)" style="fill: #a30000"/>
   </g>
   <g id="patch_296">
    <path d="M 269.698664 378 
L 271.606274 378 
L 271.606274 95.666308 
L 269.698664 95.666308 
z
" clip-path="url(#pf588b3d729)" style="fill: #a30000"/>
   </g>
   <g id="patch_297">
    <path d="M 271.606274 378 
L 273.513885 378 
L 273.513885 70.446959 
L 271.606274 70.446959 
z
" clip-path="url(#pf588b3d729)" style="fill: #a30000"/>
   </g>
   <g id="patch_298">
    <path d="M 273.513885 378 
L 275.421495 378 
L 275.421495 94.436096 
L 273.513885 94.436096 
z
" clip-path="url(#pf588b3d729)" style="fill: #a30000"/>
   </g>
   <g id="patch_299">
    <path d="M 275.421495 378 
L 277.329105 378 
L 277.329105 138.108628 
L 275.421495 138.108628 
z
" clip-path="url(#pf588b3d729)" style="fill: #a30000"/>
   </g>
   <g id="patch_300">
    <path d="M 277.329105 378 
L 279.236715 378 
L 279.236715 122.11587 
L 277.329105 122.11587 
z
" clip-path="url(#pf588b3d729)" style="fill: #a30000"/>
   </g>
   <g id="patch_301">
    <path d="M 279.236715 378 
L 281.144326 378 
L 281.144326 173.784781 
L 279.236715 173.784781 
z
" clip-path="url(#pf588b3d729)" style="fill: #a30000"/>
   </g>
   <g id="patch_302">
    <path d="M 281.144326 378 
L 283.051936 378 
L 283.051936 164.55819 
L 281.144326 164.55819 
z
" clip-path="url(#pf588b3d729)" style="fill: #a30000"/>
   </g>
   <g id="patch_303">
    <path d="M 283.051936 378 
L 284.959546 378 
L 284.959546 217.457313 
L 283.051936 217.457313 
z
" clip-path="url(#pf588b3d729)" style="fill: #a30000"/>
   </g>
   <g id="patch_304">
    <path d="M 284.959546 378 
L 286.867156 378 
L 286.867156 233.450071 
L 284.959546 233.450071 
z
" clip-path="url(#pf588b3d729)" style="fill: #a30000"/>
   </g>
   <g id="patch_305">
    <path d="M 286.867156 378 
L 288.774767 378 
L 288.774767 237.140707 
L 286.867156 237.140707 
z
" clip-path="url(#pf588b3d729)" style="fill: #a30000"/>
   </g>
   <g id="patch_306">
    <path d="M 288.774767 378 
L 290.682377 378 
L 290.682377 258.66942 
L 288.774767 258.66942 
z
" clip-path="url(#pf588b3d729)" style="fill: #a30000"/>
   </g>
   <g id="patch_307">
    <path d="M 290.682377 378 
L 292.589987 378 
L 292.589987 262.360057 
L 290.682377 262.360057 
z
" clip-path="url(#pf588b3d729)" style="fill: #a30000"/>
   </g>
   <g id="patch_308">
    <path d="M 292.589987 378 
L 294.497598 378 
L 294.497598 276.507496 
L 292.589987 276.507496 
z
" clip-path="url(#pf588b3d729)" style="fill: #a30000"/>
   </g>
   <g id="patch_309">
    <path d="M 294.497598 378 
L 296.405208 378 
L 296.405208 280.813239 
L 294.497598 280.813239 
z
" clip-path="url(#pf588b3d729)" style="fill: #a30000"/>
   </g>
   <g id="patch_310">
    <path d="M 296.405208 378 
L 298.312818 378 
L 298.312818 302.957058 
L 296.405208 302.957058 
z
" clip-path="url(#pf588b3d729)" style="fill: #a30000"/>
   </g>
   <g id="patch_311">
    <path d="M 298.312818 378 
L 300.220428 378 
L 300.220428 306.032588 
L 298.312818 306.032588 
z
" clip-path="url(#pf588b3d729)" style="fill: #a30000"/>
   </g>
   <g id="patch_312">
    <path d="M 300.220428 378 
L 302.128039 378 
L 302.128039 300.496634 
L 300.220428 300.496634 
z
" clip-path="url(#pf588b3d729)" style="fill: #a30000"/>
   </g>
   <g id="patch_313">
    <path d="M 302.128039 378 
L 304.035649 378 
L 304.035649 320.180028 
L 302.128039 320.180028 
z
" clip-path="url(#pf588b3d729)" style="fill: #a30000"/>
   </g>
   <g id="patch_314">
    <path d="M 304.035649 378 
L 305.943259 378 
L 305.943259 314.028967 
L 304.035649 314.028967 
z
" clip-path="url(#pf588b3d729)" style="fill: #a30000"/>
   </g>
   <g id="patch_315">
    <path d="M 305.943259 378 
L 307.850869 378 
L 307.850869 328.176407 
L 305.943259 328.176407 
z
" clip-path="url(#pf588b3d729)" style="fill: #a30000"/>
   </g>
   <g id="patch_316">
    <path d="M 307.850869 378 
L 309.75848 378 
L 309.75848 334.942574 
L 307.850869 334.942574 
z
" clip-path="url(#pf588b3d729)" style="fill: #a30000"/>
   </g>
   <g id="patch_317">
    <path d="M 309.75848 378 
L 311.66609 378 
L 311.66609 331.867044 
L 309.75848 331.867044 
z
" clip-path="url(#pf588b3d729)" style="fill: #a30000"/>
   </g>
   <g id="patch_318">
    <path d="M 311.66609 378 
L 313.5737 378 
L 313.5737 341.708741 
L 311.66609 341.708741 
z
" clip-path="url(#pf588b3d729)" style="fill: #a30000"/>
   </g>
   <g id="patch_319">
    <path d="M 313.5737 378 
L 315.48131 378 
L 315.48131 342.938953 
L 313.5737 342.938953 
z
" clip-path="url(#pf588b3d729)" style="fill: #a30000"/>
   </g>
   <g id="patch_320">
    <path d="M 315.48131 378 
L 317.388921 378 
L 317.388921 355.856181 
L 315.48131 355.856181 
z
" clip-path="url(#pf588b3d729)" style="fill: #a30000"/>
   </g>
   <g id="patch_321">
    <path d="M 317.388921 378 
L 319.296531 378 
L 319.296531 350.320226 
L 317.388921 350.320226 
z
" clip-path="url(#pf588b3d729)" style="fill: #a30000"/>
   </g>
   <g id="patch_322">
    <path d="M 319.296531 378 
L 321.204141 378 
L 321.204141 350.935332 
L 319.296531 350.935332 
z
" clip-path="url(#pf588b3d729)" style="fill: #a30000"/>
   </g>
   <g id="patch_323">
    <path d="M 321.204141 378 
L 323.111752 378 
L 323.111752 360.77703 
L 321.204141 360.77703 
z
" clip-path="url(#pf588b3d729)" style="fill: #a30000"/>
   </g>
   <g id="patch_324">
    <path d="M 323.111752 378 
L 325.019362 378 
L 325.019362 358.931711 
L 323.111752 358.931711 
z
" clip-path="url(#pf588b3d729)" style="fill: #a30000"/>
   </g>
   <g id="patch_325">
    <path d="M 325.019362 378 
L 326.926972 378 
L 326.926972 356.471287 
L 325.019362 356.471287 
z
" clip-path="url(#pf588b3d729)" style="fill: #a30000"/>
   </g>
   <g id="patch_326">
    <path d="M 326.926972 378 
L 328.834582 378 
L 328.834582 363.85256 
L 326.926972 363.85256 
z
" clip-path="url(#pf588b3d729)" style="fill: #a30000"/>
   </g>
   <g id="patch_327">
    <path d="M 328.834582 378 
L 330.742193 378 
L 330.742193 365.697878 
L 328.834582 365.697878 
z
" clip-path="url(#pf588b3d729)" style="fill: #a30000"/>
   </g>
   <g id="patch_328">
    <path d="M 330.742193 378 
L 332.649803 378 
L 332.649803 366.312984 
L 330.742193 366.312984 
z
" clip-path="url(#pf588b3d729)" style="fill: #a30000"/>
   </g>
   <g id="patch_329">
    <path d="M 332.649803 378 
L 334.557413 378 
L 334.557413 368.773409 
L 332.649803 368.773409 
z
" clip-path="url(#pf588b3d729)" style="fill: #a30000"/>
   </g>
   <g id="patch_330">
    <path d="M 334.557413 378 
L 336.465023 378 
L 336.465023 365.082772 
L 334.557413 365.082772 
z
" clip-path="url(#pf588b3d729)" style="fill: #a30000"/>
   </g>
   <g id="patch_331">
    <path d="M 336.465023 378 
L 338.372634 378 
L 338.372634 368.158303 
L 336.465023 368.158303 
z
" clip-path="url(#pf588b3d729)" style="fill: #a30000"/>
   </g>
   <g id="patch_332">
    <path d="M 338.372634 378 
L 340.280244 378 
L 340.280244 366.928091 
L 338.372634 366.928091 
z
" clip-path="url(#pf588b3d729)" style="fill: #a30000"/>
   </g>
   <g id="patch_333">
    <path d="M 340.280244 378 
L 342.187854 378 
L 342.187854 371.233833 
L 340.280244 371.233833 
z
" clip-path="url(#pf588b3d729)" style="fill: #a30000"/>
   </g>
   <g id="patch_334">
    <path d="M 342.187854 378 
L 344.095465 378 
L 344.095465 375.539576 
L 342.187854 375.539576 
z
" clip-path="url(#pf588b3d729)" style="fill: #a30000"/>
   </g>
   <g id="patch_335">
    <path d="M 344.095465 378 
L 346.003075 378 
L 346.003075 374.309364 
L 344.095465 374.309364 
z
" clip-path="url(#pf588b3d729)" style="fill: #a30000"/>
   </g>
   <g id="patch_336">
    <path d="M 346.003075 378 
L 347.910685 378 
L 347.910685 374.309364 
L 346.003075 374.309364 
z
" clip-path="url(#pf588b3d729)" style="fill: #a30000"/>
   </g>
   <g id="patch_337">
    <path d="M 347.910685 378 
L 349.818295 378 
L 349.818295 373.079151 
L 347.910685 373.079151 
z
" clip-path="url(#pf588b3d729)" style="fill: #a30000"/>
   </g>
   <g id="patch_338">
    <path d="M 349.818295 378 
L 351.725906 378 
L 351.725906 373.079151 
L 349.818295 373.079151 
z
" clip-path="url(#pf588b3d729)" style="fill: #a30000"/>
   </g>
   <g id="patch_339">
    <path d="M 351.725906 378 
L 353.633516 378 
L 353.633516 375.539576 
L 351.725906 375.539576 
z
" clip-path="url(#pf588b3d729)" style="fill: #a30000"/>
   </g>
   <g id="patch_340">
    <path d="M 353.633516 378 
L 355.541126 378 
L 355.541126 373.079151 
L 353.633516 373.079151 
z
" clip-path="url(#pf588b3d729)" style="fill: #a30000"/>
   </g>
   <g id="patch_341">
    <path d="M 355.541126 378 
L 357.448736 378 
L 357.448736 371.233833 
L 355.541126 371.233833 
z
" clip-path="url(#pf588b3d729)" style="fill: #a30000"/>
   </g>
   <g id="patch_342">
    <path d="M 357.448736 378 
L 359.356347 378 
L 359.356347 375.539576 
L 357.448736 375.539576 
z
" clip-path="url(#pf588b3d729)" style="fill: #a30000"/>
   </g>
   <g id="patch_343">
    <path d="M 359.356347 378 
L 361.263957 378 
L 361.263957 375.539576 
L 359.356347 375.539576 
z
" clip-path="url(#pf588b3d729)" style="fill: #a30000"/>
   </g>
   <g id="patch_344">
    <path d="M 361.263957 378 
L 363.171567 378 
L 363.171567 377.384894 
L 361.263957 377.384894 
z
" clip-path="url(#pf588b3d729)" style="fill: #a30000"/>
   </g>
   <g id="patch_345">
    <path d="M 363.171567 378 
L 365.079177 378 
L 365.079177 376.154682 
L 363.171567 376.154682 
z
" clip-path="url(#pf588b3d729)" style="fill: #a30000"/>
   </g>
   <g id="patch_346">
    <path d="M 365.079177 378 
L 366.986788 378 
L 366.986788 374.309364 
L 365.079177 374.309364 
z
" clip-path="url(#pf588b3d729)" style="fill: #a30000"/>
   </g>
   <g id="patch_347">
    <path d="M 366.986788 378 
L 368.894398 378 
L 368.894398 375.539576 
L 366.986788 375.539576 
z
" clip-path="url(#pf588b3d729)" style="fill: #a30000"/>
   </g>
   <g id="patch_348">
    <path d="M 368.894398 378 
L 370.802008 378 
L 370.802008 376.769788 
L 368.894398 376.769788 
z
" clip-path="url(#pf588b3d729)" style="fill: #a30000"/>
   </g>
   <g id="patch_349">
    <path d="M 370.802008 378 
L 372.709619 378 
L 372.709619 377.384894 
L 370.802008 377.384894 
z
" clip-path="url(#pf588b3d729)" style="fill: #a30000"/>
   </g>
   <g id="patch_350">
    <path d="M 372.709619 378 
L 374.617229 378 
L 374.617229 377.384894 
L 372.709619 377.384894 
z
" clip-path="url(#pf588b3d729)" style="fill: #a30000"/>
   </g>
   <g id="patch_351">
    <path d="M 374.617229 378 
L 376.524839 378 
L 376.524839 376.769788 
L 374.617229 376.769788 
z
" clip-path="url(#pf588b3d729)" style="fill: #a30000"/>
   </g>
   <g id="patch_352">
    <path d="M 376.524839 378 
L 378.432449 378 
L 378.432449 376.769788 
L 376.524839 376.769788 
z
" clip-path="url(#pf588b3d729)" style="fill: #a30000"/>
   </g>
   <g id="patch_353">
    <path d="M 378.432449 378 
L 380.34006 378 
L 380.34006 376.769788 
L 378.432449 376.769788 
z
" clip-path="url(#pf588b3d729)" style="fill: #a30000"/>
   </g>
   <g id="patch_354">
    <path d="M 380.34006 378 
L 382.24767 378 
L 382.24767 377.384894 
L 380.34006 377.384894 
z
" clip-path="url(#pf588b3d729)" style="fill: #a30000"/>
   </g>
   <g id="patch_355">
    <path d="M 382.24767 378 
L 384.15528 378 
L 384.15528 376.154682 
L 382.24767 376.154682 
z
" clip-path="url(#pf588b3d729)" style="fill: #a30000"/>
   </g>
   <g id="patch_356">
    <path d="M 384.15528 378 
L 386.06289 378 
L 386.06289 378 
L 384.15528 378 
z
" clip-path="url(#pf588b3d729)" style="fill: #a30000"/>
   </g>
   <g id="patch_357">
    <path d="M 386.06289 378 
L 387.970501 378 
L 387.970501 376.769788 
L 386.06289 376.769788 
z
" clip-path="url(#pf588b3d729)" style="fill: #a30000"/>
   </g>
   <g id="patch_358">
    <path d="M 387.970501 378 
L 389.878111 378 
L 389.878111 377.384894 
L 387.970501 377.384894 
z
" clip-path="url(#pf588b3d729)" style="fill: #a30000"/>
   </g>
   <g id="patch_359">
    <path d="M 389.878111 378 
L 391.785721 378 
L 391.785721 378 
L 389.878111 378 
z
" clip-path="url(#pf588b3d729)" style="fill: #a30000"/>
   </g>
   <g id="patch_360">
    <path d="M 391.785721 378 
L 393.693331 378 
L 393.693331 378 
L 391.785721 378 
z
" clip-path="url(#pf588b3d729)" style="fill: #a30000"/>
   </g>
   <g id="patch_361">
    <path d="M 393.693331 378 
L 395.600942 378 
L 395.600942 377.384894 
L 393.693331 377.384894 
z
" clip-path="url(#pf588b3d729)" style="fill: #a30000"/>
   </g>
   <g id="patch_362">
    <path d="M 395.600942 378 
L 397.508552 378 
L 397.508552 377.384894 
L 395.600942 377.384894 
z
" clip-path="url(#pf588b3d729)" style="fill: #a30000"/>
   </g>
   <g id="patch_363">
    <path d="M 397.508552 378 
L 399.416162 378 
L 399.416162 377.384894 
L 397.508552 377.384894 
z
" clip-path="url(#pf588b3d729)" style="fill: #a30000"/>
   </g>
   <g id="patch_364">
    <path d="M 399.416162 378 
L 401.323773 378 
L 401.323773 377.384894 
L 399.416162 377.384894 
z
" clip-path="url(#pf588b3d729)" style="fill: #a30000"/>
   </g>
   <g id="patch_365">
    <path d="M 401.323773 378 
L 403.231383 378 
L 403.231383 377.384894 
L 401.323773 377.384894 
z
" clip-path="url(#pf588b3d729)" style="fill: #a30000"/>
   </g>
   <g id="patch_366">
    <path d="M 403.231383 378 
L 405.138993 378 
L 405.138993 378 
L 403.231383 378 
z
" clip-path="url(#pf588b3d729)" style="fill: #a30000"/>
   </g>
   <g id="patch_367">
    <path d="M 405.138993 378 
L 407.046603 378 
L 407.046603 378 
L 405.138993 378 
z
" clip-path="url(#pf588b3d729)" style="fill: #a30000"/>
   </g>
   <g id="patch_368">
    <path d="M 407.046603 378 
L 408.954214 378 
L 408.954214 378 
L 407.046603 378 
z
" clip-path="url(#pf588b3d729)" style="fill: #a30000"/>
   </g>
   <g id="patch_369">
    <path d="M 408.954214 378 
L 410.861824 378 
L 410.861824 377.384894 
L 408.954214 377.384894 
z
" clip-path="url(#pf588b3d729)" style="fill: #a30000"/>
   </g>
   <g id="patch_370">
    <path d="M 410.861824 378 
L 412.769434 378 
L 412.769434 378 
L 410.861824 378 
z
" clip-path="url(#pf588b3d729)" style="fill: #a30000"/>
   </g>
   <g id="patch_371">
    <path d="M 412.769434 378 
L 414.677044 378 
L 414.677044 378 
L 412.769434 378 
z
" clip-path="url(#pf588b3d729)" style="fill: #a30000"/>
   </g>
   <g id="patch_372">
    <path d="M 414.677044 378 
L 416.584655 378 
L 416.584655 378 
L 414.677044 378 
z
" clip-path="url(#pf588b3d729)" style="fill: #a30000"/>
   </g>
   <g id="patch_373">
    <path d="M 416.584655 378 
L 418.492265 378 
L 418.492265 378 
L 416.584655 378 
z
" clip-path="url(#pf588b3d729)" style="fill: #a30000"/>
   </g>
   <g id="patch_374">
    <path d="M 418.492265 378 
L 420.399875 378 
L 420.399875 378 
L 418.492265 378 
z
" clip-path="url(#pf588b3d729)" style="fill: #a30000"/>
   </g>
   <g id="patch_375">
    <path d="M 420.399875 378 
L 422.307486 378 
L 422.307486 378 
L 420.399875 378 
z
" clip-path="url(#pf588b3d729)" style="fill: #a30000"/>
   </g>
   <g id="patch_376">
    <path d="M 422.307486 378 
L 424.215096 378 
L 424.215096 378 
L 422.307486 378 
z
" clip-path="url(#pf588b3d729)" style="fill: #a30000"/>
   </g>
   <g id="patch_377">
    <path d="M 424.215096 378 
L 426.122706 378 
L 426.122706 378 
L 424.215096 378 
z
" clip-path="url(#pf588b3d729)" style="fill: #a30000"/>
   </g>
   <g id="patch_378">
    <path d="M 426.122706 378 
L 428.030316 378 
L 428.030316 377.384894 
L 426.122706 377.384894 
z
" clip-path="url(#pf588b3d729)" style="fill: #a30000"/>
   </g>
   <g id="patch_379">
    <path d="M 428.030316 378 
L 429.937927 378 
L 429.937927 378 
L 428.030316 378 
z
" clip-path="url(#pf588b3d729)" style="fill: #a30000"/>
   </g>
   <g id="patch_380">
    <path d="M 429.937927 378 
L 431.845537 378 
L 431.845537 378 
L 429.937927 378 
z
" clip-path="url(#pf588b3d729)" style="fill: #a30000"/>
   </g>
   <g id="patch_381">
    <path d="M 431.845537 378 
L 433.753147 378 
L 433.753147 378 
L 431.845537 378 
z
" clip-path="url(#pf588b3d729)" style="fill: #a30000"/>
   </g>
   <g id="patch_382">
    <path d="M 433.753147 378 
L 435.660757 378 
L 435.660757 378 
L 433.753147 378 
z
" clip-path="url(#pf588b3d729)" style="fill: #a30000"/>
   </g>
   <g id="patch_383">
    <path d="M 435.660757 378 
L 437.568368 378 
L 437.568368 378 
L 435.660757 378 
z
" clip-path="url(#pf588b3d729)" style="fill: #a30000"/>
   </g>
   <g id="patch_384">
    <path d="M 437.568368 378 
L 439.475978 378 
L 439.475978 378 
L 437.568368 378 
z
" clip-path="url(#pf588b3d729)" style="fill: #a30000"/>
   </g>
   <g id="patch_385">
    <path d="M 439.475978 378 
L 441.383588 378 
L 441.383588 378 
L 439.475978 378 
z
" clip-path="url(#pf588b3d729)" style="fill: #a30000"/>
   </g>
   <g id="patch_386">
    <path d="M 441.383588 378 
L 443.291198 378 
L 443.291198 378 
L 441.383588 378 
z
" clip-path="url(#pf588b3d729)" style="fill: #a30000"/>
   </g>
   <g id="patch_387">
    <path d="M 443.291198 378 
L 445.198809 378 
L 445.198809 378 
L 443.291198 378 
z
" clip-path="url(#pf588b3d729)" style="fill: #a30000"/>
   </g>
   <g id="patch_388">
    <path d="M 445.198809 378 
L 447.106419 378 
L 447.106419 378 
L 445.198809 378 
z
" clip-path="url(#pf588b3d729)" style="fill: #a30000"/>
   </g>
   <g id="patch_389">
    <path d="M 447.106419 378 
L 449.014029 378 
L 449.014029 378 
L 447.106419 378 
z
" clip-path="url(#pf588b3d729)" style="fill: #a30000"/>
   </g>
   <g id="patch_390">
    <path d="M 449.014029 378 
L 450.92164 378 
L 450.92164 378 
L 449.014029 378 
z
" clip-path="url(#pf588b3d729)" style="fill: #a30000"/>
   </g>
   <g id="patch_391">
    <path d="M 450.92164 378 
L 452.82925 378 
L 452.82925 378 
L 450.92164 378 
z
" clip-path="url(#pf588b3d729)" style="fill: #a30000"/>
   </g>
   <g id="patch_392">
    <path d="M 452.82925 378 
L 454.73686 378 
L 454.73686 378 
L 452.82925 378 
z
" clip-path="url(#pf588b3d729)" style="fill: #a30000"/>
   </g>
   <g id="patch_393">
    <path d="M 454.73686 378 
L 456.64447 378 
L 456.64447 378 
L 454.73686 378 
z
" clip-path="url(#pf588b3d729)" style="fill: #a30000"/>
   </g>
   <g id="patch_394">
    <path d="M 456.64447 378 
L 458.552081 378 
L 458.552081 378 
L 456.64447 378 
z
" clip-path="url(#pf588b3d729)" style="fill: #a30000"/>
   </g>
   <g id="patch_395">
    <path d="M 458.552081 378 
L 460.459691 378 
L 460.459691 378 
L 458.552081 378 
z
" clip-path="url(#pf588b3d729)" style="fill: #a30000"/>
   </g>
   <g id="patch_396">
    <path d="M 460.459691 378 
L 462.367301 378 
L 462.367301 378 
L 460.459691 378 
z
" clip-path="url(#pf588b3d729)" style="fill: #a30000"/>
   </g>
   <g id="patch_397">
    <path d="M 462.367301 378 
L 464.274911 378 
L 464.274911 378 
L 462.367301 378 
z
" clip-path="url(#pf588b3d729)" style="fill: #a30000"/>
   </g>
   <g id="patch_398">
    <path d="M 464.274911 378 
L 466.182522 378 
L 466.182522 378 
L 464.274911 378 
z
" clip-path="url(#pf588b3d729)" style="fill: #a30000"/>
   </g>
   <g id="patch_399">
    <path d="M 466.182522 378 
L 468.090132 378 
L 468.090132 378 
L 466.182522 378 
z
" clip-path="url(#pf588b3d729)" style="fill: #a30000"/>
   </g>
   <g id="patch_400">
    <path d="M 468.090132 378 
L 469.997742 378 
L 469.997742 378 
L 468.090132 378 
z
" clip-path="url(#pf588b3d729)" style="fill: #a30000"/>
   </g>
   <g id="patch_401">
    <path d="M 469.997742 378 
L 471.905352 378 
L 471.905352 378 
L 469.997742 378 
z
" clip-path="url(#pf588b3d729)" style="fill: #a30000"/>
   </g>
   <g id="patch_402">
    <path d="M 471.905352 378 
L 473.812963 378 
L 473.812963 377.384894 
L 471.905352 377.384894 
z
" clip-path="url(#pf588b3d729)" style="fill: #a30000"/>
   </g>
   <g id="matplotlib.axis_1">
    <g id="xtick_1">
     <g id="line2d_1">
      <defs>
       <path id="mb19c0f8d64" d="M 0 0 
L 0 3.5 
" style="stroke: #000000; stroke-width: 0.8"/>
      </defs>
      <g>
       <use xlink:href="#mb19c0f8d64" x="92.089338" y="378" style="stroke: #000000; stroke-width: 0.8"/>
      </g>
     </g>
     <g id="text_1">
      <!-- 10 -->
      <g transform="translate(68.874182 401.716563)scale(0.22 -0.22)">
       <defs>
        <path id="DejaVuSans-2212" d="M 678 2272 
L 4684 2272 
L 4684 1741 
L 678 1741 
L 678 2272 
z
" transform="scale(0.015625)"/>
        <path id="DejaVuSans-31" d="M 794 531 
L 1825 531 
L 1825 4091 
L 703 3866 
L 703 4441 
L 1819 4666 
L 2450 4666 
L 2450 531 
L 3481 531 
L 3481 0 
L 794 0 
L 794 531 
z
" transform="scale(0.015625)"/>
        <path id="DejaVuSans-30" d="M 2034 4250 
Q 1547 4250 1301 3770 
Q 1056 3291 1056 2328 
Q 1056 1369 1301 889 
Q 1547 409 2034 409 
Q 2525 409 2770 889 
Q 3016 1369 3016 2328 
Q 3016 3291 2770 3770 
Q 2525 4250 2034 4250 
z
M 2034 4750 
Q 2819 4750 3233 4129 
Q 3647 3509 3647 2328 
Q 3647 1150 3233 529 
Q 2819 -91 2034 -91 
Q 1250 -91 836 529 
Q 422 1150 422 2328 
Q 422 3509 836 4129 
Q 1250 4750 2034 4750 
z
" transform="scale(0.015625)"/>
       </defs>
       <use xlink:href="#DejaVuSans-2212"/>
       <use xlink:href="#DejaVuSans-31" x="83.789062"/>
       <use xlink:href="#DejaVuSans-30" x="147.412109"/>
      </g>
     </g>
    </g>
    <g id="xtick_2">
     <g id="line2d_2">
      <g>
       <use xlink:href="#mb19c0f8d64" x="182.473508" y="378" style="stroke: #000000; stroke-width: 0.8"/>
      </g>
     </g>
     <g id="text_2">
      <!-- 5 -->
      <g transform="translate(166.257102 401.716563)scale(0.22 -0.22)">
       <defs>
        <path id="DejaVuSans-35" d="M 691 4666 
L 3169 4666 
L 3169 4134 
L 1269 4134 
L 1269 2991 
Q 1406 3038 1543 3061 
Q 1681 3084 1819 3084 
Q 2600 3084 3056 2656 
Q 3513 2228 3513 1497 
Q 3513 744 3044 326 
Q 2575 -91 1722 -91 
Q 1428 -91 1123 -41 
Q 819 9 494 109 
L 494 744 
Q 775 591 1075 516 
Q 1375 441 1709 441 
Q 2250 441 2565 725 
Q 2881 1009 2881 1497 
Q 2881 1984 2565 2268 
Q 2250 2553 1709 2553 
Q 1456 2553 1204 2497 
Q 953 2441 691 2322 
L 691 4666 
z
" transform="scale(0.015625)"/>
       </defs>
       <use xlink:href="#DejaVuSans-2212"/>
       <use xlink:href="#DejaVuSans-35" x="83.789062"/>
      </g>
     </g>
    </g>
    <g id="xtick_3">
     <g id="line2d_3">
      <g>
       <use xlink:href="#mb19c0f8d64" x="272.857678" y="378" style="stroke: #000000; stroke-width: 0.8"/>
      </g>
     </g>
     <g id="text_3">
      <!-- 0 -->
      <g transform="translate(265.858928 401.716563)scale(0.22 -0.22)">
       <use xlink:href="#DejaVuSans-30"/>
      </g>
     </g>
    </g>
    <g id="xtick_4">
     <g id="line2d_4">
      <g>
       <use xlink:href="#mb19c0f8d64" x="363.241847" y="378" style="stroke: #000000; stroke-width: 0.8"/>
      </g>
     </g>
     <g id="text_4">
      <!-- 5 -->
      <g transform="translate(356.243097 401.716563)scale(0.22 -0.22)">
       <use xlink:href="#DejaVuSans-35"/>
      </g>
     </g>
    </g>
    <g id="xtick_5">
     <g id="line2d_5">
      <g>
       <use xlink:href="#mb19c0f8d64" x="453.626017" y="378" style="stroke: #000000; stroke-width: 0.8"/>
      </g>
     </g>
     <g id="text_5">
      <!-- 10 -->
      <g transform="translate(439.628517 401.716563)scale(0.22 -0.22)">
       <use xlink:href="#DejaVuSans-31"/>
       <use xlink:href="#DejaVuSans-30" x="63.623047"/>
      </g>
     </g>
    </g>
   </g>
   <g id="matplotlib.axis_2">
    <g id="ytick_1">
     <g id="line2d_6">
      <defs>
       <path id="m0d71b1e3b7" d="M 0 0 
L -3.5 0 
" style="stroke: #000000; stroke-width: 0.8"/>
      </defs>
      <g>
       <use xlink:href="#m0d71b1e3b7" x="72" y="378" style="stroke: #000000; stroke-width: 0.8"/>
      </g>
     </g>
     <g id="text_6">
      <!-- 0 -->
      <g transform="translate(51.0025 386.358281)scale(0.22 -0.22)">
       <use xlink:href="#DejaVuSans-30"/>
      </g>
     </g>
    </g>
    <g id="ytick_2">
     <g id="line2d_7">
      <g>
       <use xlink:href="#m0d71b1e3b7" x="72" y="316.489392" style="stroke: #000000; stroke-width: 0.8"/>
      </g>
     </g>
     <g id="text_7">
      <!-- 100 -->
      <g transform="translate(23.0075 324.847673)scale(0.22 -0.22)">
       <use xlink:href="#DejaVuSans-31"/>
       <use xlink:href="#DejaVuSans-30" x="63.623047"/>
       <use xlink:href="#DejaVuSans-30" x="127.246094"/>
      </g>
     </g>
    </g>
    <g id="ytick_3">
     <g id="line2d_8">
      <g>
       <use xlink:href="#m0d71b1e3b7" x="72" y="254.978784" style="stroke: #000000; stroke-width: 0.8"/>
      </g>
     </g>
     <g id="text_8">
      <!-- 200 -->
      <g transform="translate(23.0075 263.337065)scale(0.22 -0.22)">
       <defs>
        <path id="DejaVuSans-32" d="M 1228 531 
L 3431 531 
L 3431 0 
L 469 0 
L 469 531 
Q 828 903 1448 1529 
Q 2069 2156 2228 2338 
Q 2531 2678 2651 2914 
Q 2772 3150 2772 3378 
Q 2772 3750 2511 3984 
Q 2250 4219 1831 4219 
Q 1534 4219 1204 4116 
Q 875 4013 500 3803 
L 500 4441 
Q 881 4594 1212 4672 
Q 1544 4750 1819 4750 
Q 2544 4750 2975 4387 
Q 3406 4025 3406 3419 
Q 3406 3131 3298 2873 
Q 3191 2616 2906 2266 
Q 2828 2175 2409 1742 
Q 1991 1309 1228 531 
z
" transform="scale(0.015625)"/>
       </defs>
       <use xlink:href="#DejaVuSans-32"/>
       <use xlink:href="#DejaVuSans-30" x="63.623047"/>
       <use xlink:href="#DejaVuSans-30" x="127.246094"/>
      </g>
     </g>
    </g>
    <g id="ytick_4">
     <g id="line2d_9">
      <g>
       <use xlink:href="#m0d71b1e3b7" x="72" y="193.468175" style="stroke: #000000; stroke-width: 0.8"/>
      </g>
     </g>
     <g id="text_9">
      <!-- 300 -->
      <g transform="translate(23.0075 201.826457)scale(0.22 -0.22)">
       <defs>
        <path id="DejaVuSans-33" d="M 2597 2516 
Q 3050 2419 3304 2112 
Q 3559 1806 3559 1356 
Q 3559 666 3084 287 
Q 2609 -91 1734 -91 
Q 1441 -91 1130 -33 
Q 819 25 488 141 
L 488 750 
Q 750 597 1062 519 
Q 1375 441 1716 441 
Q 2309 441 2620 675 
Q 2931 909 2931 1356 
Q 2931 1769 2642 2001 
Q 2353 2234 1838 2234 
L 1294 2234 
L 1294 2753 
L 1863 2753 
Q 2328 2753 2575 2939 
Q 2822 3125 2822 3475 
Q 2822 3834 2567 4026 
Q 2313 4219 1838 4219 
Q 1578 4219 1281 4162 
Q 984 4106 628 3988 
L 628 4550 
Q 988 4650 1302 4700 
Q 1616 4750 1894 4750 
Q 2613 4750 3031 4423 
Q 3450 4097 3450 3541 
Q 3450 3153 3228 2886 
Q 3006 2619 2597 2516 
z
" transform="scale(0.015625)"/>
       </defs>
       <use xlink:href="#DejaVuSans-33"/>
       <use xlink:href="#DejaVuSans-30" x="63.623047"/>
       <use xlink:href="#DejaVuSans-30" x="127.246094"/>
      </g>
     </g>
    </g>
    <g id="ytick_5">
     <g id="line2d_10">
      <g>
       <use xlink:href="#m0d71b1e3b7" x="72" y="131.957567" style="stroke: #000000; stroke-width: 0.8"/>
      </g>
     </g>
     <g id="text_10">
      <!-- 400 -->
      <g transform="translate(23.0075 140.315848)scale(0.22 -0.22)">
       <defs>
        <path id="DejaVuSans-34" d="M 2419 4116 
L 825 1625 
L 2419 1625 
L 2419 4116 
z
M 2253 4666 
L 3047 4666 
L 3047 1625 
L 3713 1625 
L 3713 1100 
L 3047 1100 
L 3047 0 
L 2419 0 
L 2419 1100 
L 313 1100 
L 313 1709 
L 2253 4666 
z
" transform="scale(0.015625)"/>
       </defs>
       <use xlink:href="#DejaVuSans-34"/>
       <use xlink:href="#DejaVuSans-30" x="63.623047"/>
       <use xlink:href="#DejaVuSans-30" x="127.246094"/>
      </g>
     </g>
    </g>
    <g id="ytick_6">
     <g id="line2d_11">
      <g>
       <use xlink:href="#m0d71b1e3b7" x="72" y="70.446959" style="stroke: #000000; stroke-width: 0.8"/>
      </g>
     </g>
     <g id="text_11">
      <!-- 500 -->
      <g transform="translate(23.0075 78.80524)scale(0.22 -0.22)">
       <use xlink:href="#DejaVuSans-35"/>
       <use xlink:href="#DejaVuSans-30" x="63.623047"/>
       <use xlink:href="#DejaVuSans-30" x="127.246094"/>
      </g>
     </g>
    </g>
   </g>
   <g id="patch_403">
    <path d="M 72 378 
L 72 51.84 
" style="fill: none; stroke: #000000; stroke-width: 0.8; stroke-linejoin: miter; stroke-linecap: square"/>
   </g>
   <g id="patch_404">
    <path d="M 72 378 
L 518.4 378 
" style="fill: none; stroke: #000000; stroke-width: 0.8; stroke-linejoin: miter; stroke-linecap: square"/>
   </g>
   <g id="legend_1">
    <g id="patch_405">
     <path d="M 87.4 134.02375 
L 248.06875 134.02375 
Q 252.46875 134.02375 252.46875 129.62375 
L 252.46875 67.24 
Q 252.46875 62.84 248.06875 62.84 
L 87.4 62.84 
Q 83 62.84 83 67.24 
L 83 129.62375 
Q 83 134.02375 87.4 134.02375 
z
" style="fill: #ffffff; opacity: 0.8; stroke: #cccccc; stroke-linejoin: miter"/>
    </g>
    <g id="patch_406">
     <path d="M 91.8 88.356562 
L 135.8 88.356562 
L 135.8 72.956562 
L 91.8 72.956562 
z
" style="fill: #f58c8c"/>
    </g>
    <g id="text_12">
     <!-- M(q(D)) -->
     <g transform="translate(153.4 88.356562)scale(0.22 -0.22)">
      <defs>
       <path id="DejaVuSans-4d" d="M 628 4666 
L 1569 4666 
L 2759 1491 
L 3956 4666 
L 4897 4666 
L 4897 0 
L 4281 0 
L 4281 4097 
L 3078 897 
L 2444 897 
L 1241 4097 
L 1241 0 
L 628 0 
L 628 4666 
z
" transform="scale(0.015625)"/>
       <path id="DejaVuSans-28" d="M 1984 4856 
Q 1566 4138 1362 3434 
Q 1159 2731 1159 2009 
Q 1159 1288 1364 580 
Q 1569 -128 1984 -844 
L 1484 -844 
Q 1016 -109 783 600 
Q 550 1309 550 2009 
Q 550 2706 781 3412 
Q 1013 4119 1484 4856 
L 1984 4856 
z
" transform="scale(0.015625)"/>
       <path id="DejaVuSans-71" d="M 947 1747 
Q 947 1113 1208 752 
Q 1469 391 1925 391 
Q 2381 391 2643 752 
Q 2906 1113 2906 1747 
Q 2906 2381 2643 2742 
Q 2381 3103 1925 3103 
Q 1469 3103 1208 2742 
Q 947 2381 947 1747 
z
M 2906 525 
Q 2725 213 2448 61 
Q 2172 -91 1784 -91 
Q 1150 -91 751 415 
Q 353 922 353 1747 
Q 353 2572 751 3078 
Q 1150 3584 1784 3584 
Q 2172 3584 2448 3432 
Q 2725 3281 2906 2969 
L 2906 3500 
L 3481 3500 
L 3481 -1331 
L 2906 -1331 
L 2906 525 
z
" transform="scale(0.015625)"/>
       <path id="DejaVuSans-44" d="M 1259 4147 
L 1259 519 
L 2022 519 
Q 2988 519 3436 956 
Q 3884 1394 3884 2338 
Q 3884 3275 3436 3711 
Q 2988 4147 2022 4147 
L 1259 4147 
z
M 628 4666 
L 1925 4666 
Q 3281 4666 3915 4102 
Q 4550 3538 4550 2338 
Q 4550 1131 3912 565 
Q 3275 0 1925 0 
L 628 0 
L 628 4666 
z
" transform="scale(0.015625)"/>
       <path id="DejaVuSans-29" d="M 513 4856 
L 1013 4856 
Q 1481 4119 1714 3412 
Q 1947 2706 1947 2009 
Q 1947 1309 1714 600 
Q 1481 -109 1013 -844 
L 513 -844 
Q 928 -128 1133 580 
Q 1338 1288 1338 2009 
Q 1338 2731 1133 3434 
Q 928 4138 513 4856 
z
" transform="scale(0.015625)"/>
      </defs>
      <use xlink:href="#DejaVuSans-4d"/>
      <use xlink:href="#DejaVuSans-28" x="86.279297"/>
      <use xlink:href="#DejaVuSans-71" x="125.292969"/>
      <use xlink:href="#DejaVuSans-28" x="188.769531"/>
      <use xlink:href="#DejaVuSans-44" x="227.783203"/>
      <use xlink:href="#DejaVuSans-29" x="304.785156"/>
      <use xlink:href="#DejaVuSans-29" x="343.798828"/>
     </g>
    </g>
    <g id="patch_407">
     <path d="M 91.8 120.648437 
L 135.8 120.648437 
L 135.8 105.248437 
L 91.8 105.248437 
z
" style="fill: #a30000"/>
    </g>
    <g id="text_13">
     <!-- M(q(D')) -->
     <g transform="translate(153.4 120.648437)scale(0.22 -0.22)">
      <defs>
       <path id="DejaVuSans-27" d="M 1147 4666 
L 1147 2931 
L 616 2931 
L 616 4666 
L 1147 4666 
z
" transform="scale(0.015625)"/>
      </defs>
      <use xlink:href="#DejaVuSans-4d"/>
      <use xlink:href="#DejaVuSans-28" x="86.279297"/>
      <use xlink:href="#DejaVuSans-71" x="125.292969"/>
      <use xlink:href="#DejaVuSans-28" x="188.769531"/>
      <use xlink:href="#DejaVuSans-44" x="227.783203"/>
      <use xlink:href="#DejaVuSans-27" x="304.785156"/>
      <use xlink:href="#DejaVuSans-29" x="332.275391"/>
      <use xlink:href="#DejaVuSans-29" x="371.289062"/>
     </g>
    </g>
   </g>
  </g>
 </g>
 <defs>
  <clipPath id="pf588b3d729">
   <rect x="72" y="51.84" width="446.4" height="326.16"/>
  </clipPath>
 </defs>
</svg>
