<?xml version="1.0" encoding="utf-8" standalone="no"?>
<!DOCTYPE svg PUBLIC "-//W3C//DTD SVG 1.1//EN"
  "http://www.w3.org/Graphics/SVG/1.1/DTD/svg11.dtd">
<!-- Created with matplotlib (https://matplotlib.org/) -->
<svg height="504pt" version="1.1" viewBox="0 0 720 504" width="720pt" xmlns="http://www.w3.org/2000/svg" xmlns:xlink="http://www.w3.org/1999/xlink">
 <metadata>
  <rdf:RDF xmlns:cc="http://creativecommons.org/ns#" xmlns:dc="http://purl.org/dc/elements/1.1/" xmlns:rdf="http://www.w3.org/1999/02/22-rdf-syntax-ns#">
   <cc:Work>
    <dc:type rdf:resource="http://purl.org/dc/dcmitype/StillImage"/>
    <dc:date>2022-06-22T17:34:29.813948</dc:date>
    <dc:format>image/svg+xml</dc:format>
    <dc:creator>
     <cc:Agent>
      <dc:title>Matplotlib v3.3.4, https://matplotlib.org/</dc:title>
     </cc:Agent>
    </dc:creator>
   </cc:Work>
  </rdf:RDF>
 </metadata>
 <defs>
  <style type="text/css">*{stroke-linecap:butt;stroke-linejoin:round;}</style>
 </defs>
 <g id="figure_1">
  <g id="patch_1">
   <path d="M 0 504 
L 720 504 
L 720 0 
L 0 0 
z
" style="fill:none;"/>
  </g>
  <g id="axes_1">
   <g id="patch_2">
    <path d="M 90 441 
L 648 441 
L 648 60.48 
L 90 60.48 
z
" style="fill:#ffffff;"/>
   </g>
   <g id="matplotlib.axis_1">
    <g id="xtick_1">
     <g id="line2d_1">
      <defs>
       <path d="M 0 0 
L 0 3.5 
" id="m34ef64a588" style="stroke:#000000;stroke-width:0.8;"/>
      </defs>
      <g>
       <use style="stroke:#000000;stroke-width:0.8;" x="115.363636" xlink:href="#m34ef64a588" y="441"/>
      </g>
     </g>
     <g id="text_1">
      <!-- −2 -->
      <g transform="translate(102.095668 461.677188)scale(0.18 -0.18)">
       <defs>
        <path d="M 10.59375 35.5 
L 73.1875 35.5 
L 73.1875 27.203125 
L 10.59375 27.203125 
z
" id="DejaVuSans-8722"/>
        <path d="M 19.1875 8.296875 
L 53.609375 8.296875 
L 53.609375 0 
L 7.328125 0 
L 7.328125 8.296875 
Q 12.9375 14.109375 22.625 23.890625 
Q 32.328125 33.6875 34.8125 36.53125 
Q 39.546875 41.84375 41.421875 45.53125 
Q 43.3125 49.21875 43.3125 52.78125 
Q 43.3125 58.59375 39.234375 62.25 
Q 35.15625 65.921875 28.609375 65.921875 
Q 23.96875 65.921875 18.8125 64.3125 
Q 13.671875 62.703125 7.8125 59.421875 
L 7.8125 69.390625 
Q 13.765625 71.78125 18.9375 73 
Q 24.125 74.21875 28.421875 74.21875 
Q 39.75 74.21875 46.484375 68.546875 
Q 53.21875 62.890625 53.21875 53.421875 
Q 53.21875 48.921875 51.53125 44.890625 
Q 49.859375 40.875 45.40625 35.40625 
Q 44.1875 33.984375 37.640625 27.21875 
Q 31.109375 20.453125 19.1875 8.296875 
z
" id="DejaVuSans-50"/>
       </defs>
       <use xlink:href="#DejaVuSans-8722"/>
       <use x="83.789062" xlink:href="#DejaVuSans-50"/>
      </g>
     </g>
    </g>
    <g id="xtick_2">
     <g id="line2d_2">
      <g>
       <use style="stroke:#000000;stroke-width:0.8;" x="216.818182" xlink:href="#m34ef64a588" y="441"/>
      </g>
     </g>
     <g id="text_2">
      <!-- 0 -->
      <g transform="translate(211.091932 461.677188)scale(0.18 -0.18)">
       <defs>
        <path d="M 31.78125 66.40625 
Q 24.171875 66.40625 20.328125 58.90625 
Q 16.5 51.421875 16.5 36.375 
Q 16.5 21.390625 20.328125 13.890625 
Q 24.171875 6.390625 31.78125 6.390625 
Q 39.453125 6.390625 43.28125 13.890625 
Q 47.125 21.390625 47.125 36.375 
Q 47.125 51.421875 43.28125 58.90625 
Q 39.453125 66.40625 31.78125 66.40625 
z
M 31.78125 74.21875 
Q 44.046875 74.21875 50.515625 64.515625 
Q 56.984375 54.828125 56.984375 36.375 
Q 56.984375 17.96875 50.515625 8.265625 
Q 44.046875 -1.421875 31.78125 -1.421875 
Q 19.53125 -1.421875 13.0625 8.265625 
Q 6.59375 17.96875 6.59375 36.375 
Q 6.59375 54.828125 13.0625 64.515625 
Q 19.53125 74.21875 31.78125 74.21875 
z
" id="DejaVuSans-48"/>
       </defs>
       <use xlink:href="#DejaVuSans-48"/>
      </g>
     </g>
    </g>
    <g id="xtick_3">
     <g id="line2d_3">
      <g>
       <use style="stroke:#000000;stroke-width:0.8;" x="318.272727" xlink:href="#m34ef64a588" y="441"/>
      </g>
     </g>
     <g id="text_3">
      <!-- 2 -->
      <g transform="translate(312.546477 461.677188)scale(0.18 -0.18)">
       <use xlink:href="#DejaVuSans-50"/>
      </g>
     </g>
    </g>
    <g id="xtick_4">
     <g id="line2d_4">
      <g>
       <use style="stroke:#000000;stroke-width:0.8;" x="419.727273" xlink:href="#m34ef64a588" y="441"/>
      </g>
     </g>
     <g id="text_4">
      <!-- 4 -->
      <g transform="translate(414.001023 461.677188)scale(0.18 -0.18)">
       <defs>
        <path d="M 37.796875 64.3125 
L 12.890625 25.390625 
L 37.796875 25.390625 
z
M 35.203125 72.90625 
L 47.609375 72.90625 
L 47.609375 25.390625 
L 58.015625 25.390625 
L 58.015625 17.1875 
L 47.609375 17.1875 
L 47.609375 0 
L 37.796875 0 
L 37.796875 17.1875 
L 4.890625 17.1875 
L 4.890625 26.703125 
z
" id="DejaVuSans-52"/>
       </defs>
       <use xlink:href="#DejaVuSans-52"/>
      </g>
     </g>
    </g>
    <g id="xtick_5">
     <g id="line2d_5">
      <g>
       <use style="stroke:#000000;stroke-width:0.8;" x="521.181818" xlink:href="#m34ef64a588" y="441"/>
      </g>
     </g>
     <g id="text_5">
      <!-- 6 -->
      <g transform="translate(515.455568 461.677188)scale(0.18 -0.18)">
       <defs>
        <path d="M 33.015625 40.375 
Q 26.375 40.375 22.484375 35.828125 
Q 18.609375 31.296875 18.609375 23.390625 
Q 18.609375 15.53125 22.484375 10.953125 
Q 26.375 6.390625 33.015625 6.390625 
Q 39.65625 6.390625 43.53125 10.953125 
Q 47.40625 15.53125 47.40625 23.390625 
Q 47.40625 31.296875 43.53125 35.828125 
Q 39.65625 40.375 33.015625 40.375 
z
M 52.59375 71.296875 
L 52.59375 62.3125 
Q 48.875 64.0625 45.09375 64.984375 
Q 41.3125 65.921875 37.59375 65.921875 
Q 27.828125 65.921875 22.671875 59.328125 
Q 17.53125 52.734375 16.796875 39.40625 
Q 19.671875 43.65625 24.015625 45.921875 
Q 28.375 48.1875 33.59375 48.1875 
Q 44.578125 48.1875 50.953125 41.515625 
Q 57.328125 34.859375 57.328125 23.390625 
Q 57.328125 12.15625 50.6875 5.359375 
Q 44.046875 -1.421875 33.015625 -1.421875 
Q 20.359375 -1.421875 13.671875 8.265625 
Q 6.984375 17.96875 6.984375 36.375 
Q 6.984375 53.65625 15.1875 63.9375 
Q 23.390625 74.21875 37.203125 74.21875 
Q 40.921875 74.21875 44.703125 73.484375 
Q 48.484375 72.75 52.59375 71.296875 
z
" id="DejaVuSans-54"/>
       </defs>
       <use xlink:href="#DejaVuSans-54"/>
      </g>
     </g>
    </g>
    <g id="xtick_6">
     <g id="line2d_6">
      <g>
       <use style="stroke:#000000;stroke-width:0.8;" x="622.636364" xlink:href="#m34ef64a588" y="441"/>
      </g>
     </g>
     <g id="text_6">
      <!-- 8 -->
      <g transform="translate(616.910114 461.677188)scale(0.18 -0.18)">
       <defs>
        <path d="M 31.78125 34.625 
Q 24.75 34.625 20.71875 30.859375 
Q 16.703125 27.09375 16.703125 20.515625 
Q 16.703125 13.921875 20.71875 10.15625 
Q 24.75 6.390625 31.78125 6.390625 
Q 38.8125 6.390625 42.859375 10.171875 
Q 46.921875 13.96875 46.921875 20.515625 
Q 46.921875 27.09375 42.890625 30.859375 
Q 38.875 34.625 31.78125 34.625 
z
M 21.921875 38.8125 
Q 15.578125 40.375 12.03125 44.71875 
Q 8.5 49.078125 8.5 55.328125 
Q 8.5 64.0625 14.71875 69.140625 
Q 20.953125 74.21875 31.78125 74.21875 
Q 42.671875 74.21875 48.875 69.140625 
Q 55.078125 64.0625 55.078125 55.328125 
Q 55.078125 49.078125 51.53125 44.71875 
Q 48 40.375 41.703125 38.8125 
Q 48.828125 37.15625 52.796875 32.3125 
Q 56.78125 27.484375 56.78125 20.515625 
Q 56.78125 9.90625 50.3125 4.234375 
Q 43.84375 -1.421875 31.78125 -1.421875 
Q 19.734375 -1.421875 13.25 4.234375 
Q 6.78125 9.90625 6.78125 20.515625 
Q 6.78125 27.484375 10.78125 32.3125 
Q 14.796875 37.15625 21.921875 38.8125 
z
M 18.3125 54.390625 
Q 18.3125 48.734375 21.84375 45.5625 
Q 25.390625 42.390625 31.78125 42.390625 
Q 38.140625 42.390625 41.71875 45.5625 
Q 45.3125 48.734375 45.3125 54.390625 
Q 45.3125 60.0625 41.71875 63.234375 
Q 38.140625 66.40625 31.78125 66.40625 
Q 25.390625 66.40625 21.84375 63.234375 
Q 18.3125 60.0625 18.3125 54.390625 
z
" id="DejaVuSans-56"/>
       </defs>
       <use xlink:href="#DejaVuSans-56"/>
      </g>
     </g>
    </g>
   </g>
   <g id="matplotlib.axis_2">
    <g id="ytick_1">
     <g id="line2d_7">
      <defs>
       <path d="M 0 0 
L -3.5 0 
" id="m361f7e39ff" style="stroke:#000000;stroke-width:0.8;"/>
      </defs>
      <g>
       <use style="stroke:#000000;stroke-width:0.8;" x="90" xlink:href="#m361f7e39ff" y="441"/>
      </g>
     </g>
     <g id="text_7">
      <!-- −3 -->
      <g transform="translate(56.464062 447.838594)scale(0.18 -0.18)">
       <defs>
        <path d="M 40.578125 39.3125 
Q 47.65625 37.796875 51.625 33 
Q 55.609375 28.21875 55.609375 21.1875 
Q 55.609375 10.40625 48.1875 4.484375 
Q 40.765625 -1.421875 27.09375 -1.421875 
Q 22.515625 -1.421875 17.65625 -0.515625 
Q 12.796875 0.390625 7.625 2.203125 
L 7.625 11.71875 
Q 11.71875 9.328125 16.59375 8.109375 
Q 21.484375 6.890625 26.8125 6.890625 
Q 36.078125 6.890625 40.9375 10.546875 
Q 45.796875 14.203125 45.796875 21.1875 
Q 45.796875 27.640625 41.28125 31.265625 
Q 36.765625 34.90625 28.71875 34.90625 
L 20.21875 34.90625 
L 20.21875 43.015625 
L 29.109375 43.015625 
Q 36.375 43.015625 40.234375 45.921875 
Q 44.09375 48.828125 44.09375 54.296875 
Q 44.09375 59.90625 40.109375 62.90625 
Q 36.140625 65.921875 28.71875 65.921875 
Q 24.65625 65.921875 20.015625 65.03125 
Q 15.375 64.15625 9.8125 62.3125 
L 9.8125 71.09375 
Q 15.4375 72.65625 20.34375 73.4375 
Q 25.25 74.21875 29.59375 74.21875 
Q 40.828125 74.21875 47.359375 69.109375 
Q 53.90625 64.015625 53.90625 55.328125 
Q 53.90625 49.265625 50.4375 45.09375 
Q 46.96875 40.921875 40.578125 39.3125 
z
" id="DejaVuSans-51"/>
       </defs>
       <use xlink:href="#DejaVuSans-8722"/>
       <use x="83.789062" xlink:href="#DejaVuSans-51"/>
      </g>
     </g>
    </g>
    <g id="ytick_2">
     <g id="line2d_8">
      <g>
       <use style="stroke:#000000;stroke-width:0.8;" x="90" xlink:href="#m361f7e39ff" y="377.58"/>
      </g>
     </g>
     <g id="text_8">
      <!-- −2 -->
      <g transform="translate(56.464062 384.418594)scale(0.18 -0.18)">
       <use xlink:href="#DejaVuSans-8722"/>
       <use x="83.789062" xlink:href="#DejaVuSans-50"/>
      </g>
     </g>
    </g>
    <g id="ytick_3">
     <g id="line2d_9">
      <g>
       <use style="stroke:#000000;stroke-width:0.8;" x="90" xlink:href="#m361f7e39ff" y="314.16"/>
      </g>
     </g>
     <g id="text_9">
      <!-- −1 -->
      <g transform="translate(56.464062 320.998594)scale(0.18 -0.18)">
       <defs>
        <path d="M 12.40625 8.296875 
L 28.515625 8.296875 
L 28.515625 63.921875 
L 10.984375 60.40625 
L 10.984375 69.390625 
L 28.421875 72.90625 
L 38.28125 72.90625 
L 38.28125 8.296875 
L 54.390625 8.296875 
L 54.390625 0 
L 12.40625 0 
z
" id="DejaVuSans-49"/>
       </defs>
       <use xlink:href="#DejaVuSans-8722"/>
       <use x="83.789062" xlink:href="#DejaVuSans-49"/>
      </g>
     </g>
    </g>
    <g id="ytick_4">
     <g id="line2d_10">
      <g>
       <use style="stroke:#000000;stroke-width:0.8;" x="90" xlink:href="#m361f7e39ff" y="250.74"/>
      </g>
     </g>
     <g id="text_10">
      <!-- 0 -->
      <g transform="translate(71.5475 257.578594)scale(0.18 -0.18)">
       <use xlink:href="#DejaVuSans-48"/>
      </g>
     </g>
    </g>
    <g id="ytick_5">
     <g id="line2d_11">
      <g>
       <use style="stroke:#000000;stroke-width:0.8;" x="90" xlink:href="#m361f7e39ff" y="187.32"/>
      </g>
     </g>
     <g id="text_11">
      <!-- 1 -->
      <g transform="translate(71.5475 194.158594)scale(0.18 -0.18)">
       <use xlink:href="#DejaVuSans-49"/>
      </g>
     </g>
    </g>
    <g id="ytick_6">
     <g id="line2d_12">
      <g>
       <use style="stroke:#000000;stroke-width:0.8;" x="90" xlink:href="#m361f7e39ff" y="123.9"/>
      </g>
     </g>
     <g id="text_12">
      <!-- 2 -->
      <g transform="translate(71.5475 130.738594)scale(0.18 -0.18)">
       <use xlink:href="#DejaVuSans-50"/>
      </g>
     </g>
    </g>
    <g id="ytick_7">
     <g id="line2d_13">
      <g>
       <use style="stroke:#000000;stroke-width:0.8;" x="90" xlink:href="#m361f7e39ff" y="60.48"/>
      </g>
     </g>
     <g id="text_13">
      <!-- 3 -->
      <g transform="translate(71.5475 67.318594)scale(0.18 -0.18)">
       <use xlink:href="#DejaVuSans-51"/>
      </g>
     </g>
    </g>
   </g>
   <g id="line2d_14">
    <path clip-path="url(#p552a2ff0f7)" d="M 115.363636 173.531303 
L 117.396794 172.871217 
L 119.429951 172.180974 
L 120.446529 171.915032 
L 123.496265 171.488875 
L 125.529422 171.557412 
L 126.546001 171.381436 
L 127.56258 171.634642 
L 128.579158 171.671115 
L 129.595737 171.931601 
L 130.612316 172.044746 
L 134.67863 173.31335 
L 138.744944 175.299646 
L 139.761523 175.97767 
L 140.778102 176.471911 
L 143.827837 178.684623 
L 144.844416 179.340638 
L 145.860995 180.302488 
L 146.877573 181.04857 
L 155.010202 188.333998 
L 158.059938 191.34256 
L 161.109674 194.143241 
L 162.126253 195.228926 
L 163.142831 196.079079 
L 165.175988 198.062899 
L 167.209146 199.871332 
L 168.225724 200.828568 
L 169.242303 201.55453 
L 172.292039 204.265632 
L 180.424668 210.303285 
L 181.441246 210.895406 
L 183.474403 212.224575 
L 184.490982 212.740812 
L 185.507561 213.488975 
L 187.540718 214.647918 
L 188.557296 214.923902 
L 189.573875 215.590477 
L 191.607032 216.623601 
L 192.623611 216.915836 
L 193.640189 217.474151 
L 194.656768 217.867019 
L 195.673347 218.534825 
L 196.689925 218.706414 
L 198.723083 219.724737 
L 199.739661 219.988735 
L 200.75624 220.549197 
L 205.839133 222.143581 
L 206.855711 222.615709 
L 208.888869 223.259114 
L 209.905447 223.653676 
L 210.922026 223.832157 
L 211.938604 224.2987 
L 214.98834 225.080257 
L 217.021498 225.689991 
L 218.038076 225.936391 
L 220.071233 226.567599 
L 222.104391 227.001615 
L 223.120969 227.191834 
L 224.137548 227.253709 
L 226.170705 227.774411 
L 231.253598 228.448912 
L 232.270177 228.383125 
L 234.303334 228.481387 
L 238.369648 228.204656 
L 244.46912 227.029991 
L 245.485699 226.816511 
L 252.601749 223.890464 
L 254.634906 222.646428 
L 256.668063 221.600129 
L 257.684642 220.846984 
L 258.701221 220.28024 
L 259.717799 219.52358 
L 260.734378 219.086541 
L 261.750956 218.198289 
L 262.767535 217.698527 
L 264.800692 216.381862 
L 269.883585 213.235674 
L 271.916743 212.032285 
L 273.9499 211.295152 
L 275.983057 210.283882 
L 276.999636 210.13209 
L 279.032793 209.613085 
L 280.049371 209.388106 
L 282.082529 209.272859 
L 283.099107 209.279507 
L 285.132265 209.694041 
L 286.148843 209.806706 
L 289.198579 211.267169 
L 291.231736 212.455222 
L 293.264893 214.082128 
L 295.298051 216.036427 
L 298.347786 219.942489 
L 299.364365 221.500081 
L 300.380944 222.832184 
L 302.414101 226.100864 
L 305.463837 231.88853 
L 307.496994 235.943059 
L 311.563308 245.34237 
L 317.66278 261.196089 
L 322.745673 275.417016 
L 330.878302 298.684449 
L 334.944617 309.827638 
L 337.994352 317.607893 
L 340.02751 322.503566 
L 345.110403 333.369535 
L 349.176717 340.431087 
L 352.226453 344.789783 
L 355.276189 348.117108 
L 358.325925 350.469189 
L 359.342503 351.122086 
L 360.359082 351.59445 
L 362.392239 352.11302 
L 363.408818 352.293534 
L 364.425396 352.301444 
L 366.458553 352.13492 
L 367.475132 351.758498 
L 368.491711 351.506352 
L 369.508289 351.049454 
L 371.541447 349.886873 
L 374.591182 347.418606 
L 376.62434 345.437806 
L 379.674075 341.707376 
L 382.723811 337.708057 
L 384.756968 334.557057 
L 387.806704 329.652578 
L 389.839862 326.208464 
L 395.939333 315.230436 
L 396.955912 313.405754 
L 398.989069 309.313826 
L 401.022226 305.602269 
L 406.105119 295.875072 
L 409.154855 290.217145 
L 412.204591 284.627007 
L 421.353799 268.262695 
L 427.45327 257.909901 
L 430.503006 252.775614 
L 435.585899 244.001372 
L 444.735107 227.977889 
L 446.768264 224.196963 
L 455.917471 206.452207 
L 476.249044 165.243976 
L 481.331937 156.062507 
L 484.381672 150.75868 
L 487.431408 146.081838 
L 491.497723 140.418892 
L 496.580616 134.87853 
L 498.613773 133.227715 
L 499.630352 132.288038 
L 502.680087 130.280044 
L 504.713245 129.279196 
L 507.762981 128.169096 
L 508.779559 127.952377 
L 511.829295 127.749775 
L 512.845874 127.812115 
L 513.862452 128.067276 
L 514.879031 128.080555 
L 515.895609 128.267413 
L 516.912188 128.611221 
L 517.928767 129.095991 
L 518.945345 129.275319 
L 520.978502 130.276266 
L 523.01166 131.467229 
L 524.028238 132.072184 
L 527.077974 134.284736 
L 529.111131 136.085666 
L 530.12771 136.894517 
L 537.24376 144.113439 
L 539.276917 146.62813 
L 541.310075 149.176705 
L 546.392968 155.553765 
L 555.542175 168.350396 
L 556.558754 170.040459 
L 557.575332 171.345665 
L 571.807433 192.11205 
L 577.906905 200.614239 
L 581.973219 206.010782 
L 582.989798 207.120221 
L 584.006376 208.528178 
L 589.089269 214.382136 
L 594.172163 219.344885 
L 597.221898 221.923692 
L 598.238477 222.555774 
L 599.255056 223.351957 
L 600.271634 223.865795 
L 602.304791 225.1242 
L 605.354527 226.474499 
L 606.371106 226.765209 
L 607.387684 227.20157 
L 609.420842 227.705662 
L 612.470578 227.837654 
L 615.520313 227.636574 
L 616.536892 227.482049 
L 617.553471 227.456308 
L 619.586628 226.572087 
L 620.603206 226.420724 
L 621.619785 226.083365 
L 622.636364 225.619891 
L 622.636364 225.619891 
" style="fill:none;stroke:#808080;stroke-linecap:square;stroke-opacity:0.5;stroke-width:2;"/>
   </g>
   <g id="line2d_15">
    <path clip-path="url(#p552a2ff0f7)" d="M 115.363636 248.640448 
L 120.446529 246.107748 
L 122.479687 245.179909 
L 123.496265 244.947953 
L 124.512844 244.546526 
L 125.529422 244.272378 
L 126.546001 243.834508 
L 131.628894 243.003574 
L 136.711787 243.103475 
L 137.728366 243.386503 
L 138.744944 243.362814 
L 140.778102 243.926867 
L 141.79468 244.355694 
L 143.827837 244.917819 
L 144.844416 245.551334 
L 145.860995 245.944928 
L 149.927309 248.284537 
L 151.960466 249.731955 
L 155.010202 251.961029 
L 156.026781 252.710388 
L 157.043359 253.687059 
L 158.059938 254.433517 
L 161.109674 257.237504 
L 163.142831 259.099166 
L 164.15941 260.237905 
L 173.308617 268.635921 
L 178.39151 272.699192 
L 180.424668 274.139772 
L 181.441246 274.553013 
L 183.474403 275.766852 
L 184.490982 276.071177 
L 186.524139 276.905398 
L 187.540718 277.17977 
L 189.573875 277.473527 
L 192.623611 277.557661 
L 193.640189 277.412401 
L 196.689925 276.534179 
L 198.723083 275.704836 
L 201.772818 273.875465 
L 202.789397 272.948075 
L 203.805976 272.230736 
L 207.87229 267.871163 
L 209.905447 265.501567 
L 210.922026 264.020242 
L 211.938604 262.743419 
L 217.021498 254.828834 
L 219.054655 251.445409 
L 221.087812 247.777171 
L 224.137548 242.179566 
L 225.154126 240.021435 
L 226.170705 238.275625 
L 227.187284 236.11342 
L 229.220441 232.371095 
L 237.35307 217.093232 
L 241.419384 210.172842 
L 244.46912 205.499331 
L 247.518856 201.413153 
L 248.535435 200.349222 
L 250.568592 198.002421 
L 253.618328 195.409823 
L 254.634906 194.755119 
L 255.651485 193.92589 
L 257.684642 193.157025 
L 258.701221 192.571203 
L 259.717799 192.535121 
L 261.750956 192.32294 
L 264.800692 192.781088 
L 266.83385 193.65335 
L 267.850428 194.212438 
L 271.916743 197.545975 
L 273.9499 199.801377 
L 275.983057 202.416448 
L 276.999636 203.813264 
L 278.016214 205.548954 
L 280.049371 208.629598 
L 282.082529 212.325473 
L 284.115686 216.145325 
L 288.182 224.66409 
L 290.215158 229.251407 
L 299.364365 251.070049 
L 307.496994 270.587954 
L 312.579887 281.75133 
L 316.646201 289.735931 
L 320.712516 296.457422 
L 321.729095 298.007424 
L 325.795409 303.128072 
L 327.828566 305.210321 
L 330.878302 307.544904 
L 332.911459 308.626865 
L 334.944617 309.271525 
L 336.977774 309.63302 
L 339.010931 309.63063 
L 340.02751 309.410755 
L 341.044088 308.941976 
L 342.060667 308.700945 
L 343.077245 308.313792 
L 344.093824 307.594121 
L 345.110403 307.088935 
L 348.160138 304.638506 
L 352.226453 300.165591 
L 357.309346 292.918023 
L 361.37566 286.040439 
L 363.408818 282.40236 
L 369.508289 270.291041 
L 375.607761 257.186601 
L 380.690654 246.181982 
L 383.74039 239.552598 
L 393.906176 218.719996 
L 395.939333 214.964427 
L 396.955912 213.323372 
L 397.97249 211.253658 
L 400.005648 207.920765 
L 401.022226 206.013005 
L 406.105119 198.368525 
L 407.121698 197.145091 
L 408.138277 195.68279 
L 411.188012 192.056023 
L 414.237748 188.985926 
L 417.287484 186.137515 
L 419.320641 184.86014 
L 420.33722 184.048571 
L 421.353799 183.63721 
L 422.370377 183.089555 
L 425.420113 182.007216 
L 428.469849 181.489858 
L 429.486427 181.493142 
L 431.519585 181.757497 
L 432.536163 181.711222 
L 435.585899 182.715604 
L 436.602478 183.261493 
L 437.619056 183.56862 
L 438.635635 184.225862 
L 439.652214 184.747321 
L 442.701949 186.990901 
L 444.735107 188.673401 
L 449.818 193.953621 
L 450.834578 195.057673 
L 451.851157 196.538138 
L 454.900893 200.492077 
L 457.950629 204.645656 
L 459.983786 207.832453 
L 461.000364 209.253623 
L 473.199308 229.040018 
L 475.232465 232.52366 
L 479.298779 239.468539 
L 482.348515 244.415405 
L 484.381672 247.80933 
L 488.447987 254.405741 
L 492.514301 260.995826 
L 493.53088 262.464783 
L 495.564037 265.772962 
L 507.762981 284.313158 
L 511.829295 290.23921 
L 513.862452 293.059116 
L 514.879031 294.445681 
L 515.895609 296.02645 
L 518.945345 299.902652 
L 523.01166 305.153849 
L 524.028238 306.36409 
L 525.044817 307.3728 
L 527.077974 309.887257 
L 528.094553 310.851182 
L 529.111131 312.043666 
L 530.12771 312.871833 
L 531.144289 314.078772 
L 532.160867 314.836943 
L 533.177446 315.798097 
L 538.260339 319.350761 
L 539.276917 319.730558 
L 540.293496 320.253136 
L 543.343232 321.151019 
L 544.359811 321.263766 
L 545.376389 321.523529 
L 546.392968 321.571119 
L 547.409546 321.452905 
L 548.426125 321.207117 
L 549.442704 321.132804 
L 550.459282 320.859042 
L 553.509018 319.605304 
L 554.525597 318.869134 
L 555.542175 318.29586 
L 556.558754 317.390361 
L 557.575332 316.678134 
L 558.591911 315.782162 
L 559.60849 314.655738 
L 560.625068 313.754537 
L 562.658226 311.375199 
L 566.72454 306.023625 
L 568.757697 302.908715 
L 570.790854 299.603086 
L 572.824012 296.218195 
L 581.973219 279.563016 
L 585.022955 273.98714 
L 588.072691 268.596959 
L 591.122427 263.431341 
L 594.172163 258.736519 
L 596.20532 255.739037 
L 598.238477 253.008342 
L 603.32137 247.114597 
L 607.387684 243.493066 
L 611.453999 240.754232 
L 612.470578 240.352819 
L 614.503735 239.258546 
L 616.536892 238.554073 
L 617.553471 238.092446 
L 619.586628 237.57522 
L 620.603206 237.226931 
L 622.636364 236.776498 
L 622.636364 236.776498 
" style="fill:none;stroke:#808080;stroke-linecap:square;stroke-opacity:0.5;stroke-width:2;"/>
   </g>
   <g id="line2d_16">
    <path clip-path="url(#p552a2ff0f7)" d="M 115.363636 152.744765 
L 118.413372 155.862641 
L 119.429951 156.700189 
L 121.463108 159.189745 
L 123.496265 161.498815 
L 126.546001 165.581898 
L 132.645473 174.639358 
L 137.728366 183.098113 
L 141.79468 190.584779 
L 142.811259 192.401167 
L 144.844416 196.359218 
L 148.910731 204.034437 
L 151.960466 210.298935 
L 152.977045 212.148861 
L 156.026781 218.190565 
L 159.076517 224.220804 
L 160.093095 226.065866 
L 161.109674 228.148818 
L 163.142831 231.966615 
L 165.175988 235.754612 
L 168.225724 241.040696 
L 169.242303 243.047778 
L 174.325196 251.420902 
L 180.424668 260.660092 
L 181.441246 261.828999 
L 182.457825 263.251647 
L 185.507561 266.844454 
L 186.524139 268.192931 
L 187.540718 269.210746 
L 188.557296 270.537352 
L 190.590454 272.461781 
L 192.623611 274.422461 
L 194.656768 276.224976 
L 198.723083 279.102262 
L 199.739661 279.629642 
L 200.75624 280.356014 
L 205.839133 282.569039 
L 207.87229 283.095075 
L 212.955183 283.420822 
L 213.971762 283.2066 
L 214.98834 283.150081 
L 218.038076 282.329186 
L 221.087812 280.99071 
L 222.104391 280.426319 
L 225.154126 278.33231 
L 226.170705 277.476503 
L 231.253598 272.251747 
L 233.286755 269.418026 
L 234.303334 268.118412 
L 237.35307 263.564108 
L 239.386227 259.745417 
L 240.402806 257.998917 
L 246.502277 245.23896 
L 248.535435 240.543027 
L 253.618328 227.696538 
L 273.9499 170.916869 
L 280.049371 156.192752 
L 283.099107 149.928337 
L 285.132265 146.235372 
L 286.148843 144.368424 
L 288.182 141.382256 
L 290.215158 138.62968 
L 291.231736 137.61369 
L 292.248315 136.355755 
L 294.281472 134.751412 
L 296.314629 133.597737 
L 298.347786 132.846339 
L 299.364365 132.748816 
L 302.414101 133.082804 
L 303.43068 133.519453 
L 305.463837 134.594823 
L 306.480415 135.418845 
L 307.496994 136.43321 
L 308.513573 137.290522 
L 310.54673 139.741449 
L 313.596466 144.337709 
L 316.646201 149.794939 
L 320.712516 158.615055 
L 325.795409 171.43515 
L 327.828566 176.979067 
L 329.861723 182.779804 
L 336.977774 204.370526 
L 340.02751 213.87805 
L 348.160138 239.245506 
L 350.193296 245.325829 
L 355.276189 259.892784 
L 358.325925 268.299446 
L 364.425396 283.194956 
L 367.475132 289.948721 
L 371.541447 297.767951 
L 372.558025 299.616858 
L 377.640918 307.579558 
L 380.690654 311.509854 
L 383.74039 314.813618 
L 384.756968 315.613874 
L 385.773547 316.715635 
L 388.823283 319.089093 
L 391.873019 320.877113 
L 394.922755 321.970769 
L 396.955912 322.490311 
L 397.97249 322.795614 
L 400.005648 322.901133 
L 401.022226 323.070746 
L 402.038805 322.846083 
L 403.055383 322.912814 
L 404.071962 322.758757 
L 405.088541 322.739601 
L 406.105119 322.438358 
L 407.121698 322.384344 
L 412.204591 321.045094 
L 419.320641 317.676194 
L 420.33722 317.071254 
L 421.353799 316.675313 
L 423.386956 315.42316 
L 437.619056 306.899615 
L 438.635635 306.427905 
L 440.668792 305.150338 
L 445.751685 302.343537 
L 446.768264 301.8603 
L 448.801421 300.564091 
L 450.834578 299.642296 
L 455.917471 297.353172 
L 456.93405 297.085938 
L 457.950629 296.493975 
L 458.967207 296.26709 
L 461.000364 295.3016 
L 463.033522 294.809337 
L 464.0501 294.407616 
L 465.066679 294.203748 
L 466.083257 293.759362 
L 468.116415 293.274859 
L 470.149572 292.794543 
L 471.16615 292.742706 
L 472.182729 292.439864 
L 474.215886 292.149658 
L 475.232465 291.998433 
L 476.249044 291.98548 
L 477.265622 291.782743 
L 478.282201 291.802094 
L 479.298779 291.483712 
L 480.315358 291.594394 
L 482.348515 291.215429 
L 486.41483 291.102159 
L 487.431408 291.164344 
L 489.464565 291.067395 
L 493.53088 291.000507 
L 494.547459 291.093454 
L 495.564037 290.969977 
L 496.580616 291.100741 
L 497.597194 291.00506 
L 500.64693 291.038094 
L 502.680087 290.771981 
L 504.713245 290.736071 
L 509.796138 290.274222 
L 510.812716 290.213023 
L 512.845874 289.825396 
L 514.879031 289.606161 
L 516.912188 289.087322 
L 517.928767 288.938348 
L 518.945345 288.671388 
L 519.961924 288.543959 
L 520.978502 288.192123 
L 521.995081 288.093883 
L 523.01166 287.630915 
L 526.061396 286.785788 
L 527.077974 286.571033 
L 530.12771 285.445954 
L 532.160867 284.826185 
L 535.210603 283.729651 
L 536.227182 283.30684 
L 537.24376 283.132867 
L 538.260339 282.728498 
L 540.293496 282.1312 
L 541.310075 281.617939 
L 543.343232 281.049896 
L 544.359811 280.508034 
L 545.376389 280.186974 
L 546.392968 280.014342 
L 547.409546 279.512798 
L 548.426125 279.283627 
L 549.442704 278.783754 
L 552.492439 278.030548 
L 553.509018 277.523603 
L 554.525597 277.248891 
L 555.542175 276.84074 
L 556.558754 276.795716 
L 557.575332 276.343471 
L 558.591911 276.234615 
L 559.60849 275.740777 
L 563.674804 274.35603 
L 564.691383 274.204093 
L 565.707961 273.813804 
L 566.72454 273.59143 
L 567.741119 273.085879 
L 572.824012 271.186903 
L 578.923483 268.02339 
L 581.973219 265.938242 
L 582.989798 265.497026 
L 584.006376 264.50771 
L 585.022955 263.819256 
L 589.089269 260.249744 
L 590.105848 259.085792 
L 591.122427 258.259877 
L 594.172163 254.647789 
L 595.188741 253.544596 
L 601.288213 244.713583 
L 603.32137 241.338404 
L 605.354527 237.784422 
L 607.387684 234.093357 
L 610.43742 228.101166 
L 613.487156 221.495625 
L 617.553471 212.327754 
L 622.636364 199.642846 
L 622.636364 199.642846 
" style="fill:none;stroke:#808080;stroke-linecap:square;stroke-opacity:0.5;stroke-width:2;"/>
   </g>
   <g id="line2d_17">
    <path clip-path="url(#p552a2ff0f7)" d="M 115.363636 231.985542 
L 117.396794 233.439843 
L 119.429951 234.782124 
L 120.446529 235.307936 
L 121.463108 236.009805 
L 125.529422 238.193392 
L 126.546001 238.521886 
L 127.56258 239.050053 
L 128.579158 239.320737 
L 129.595737 239.752948 
L 133.662051 240.648298 
L 135.695209 240.90757 
L 136.711787 240.826655 
L 138.744944 241.020994 
L 142.811259 240.274111 
L 143.827837 240.211029 
L 145.860995 239.485034 
L 146.877573 238.89105 
L 147.894152 238.503719 
L 152.977045 235.422754 
L 157.043359 232.116622 
L 161.109674 228.218368 
L 167.209146 221.477052 
L 171.27546 216.451105 
L 175.341774 211.375213 
L 177.374932 208.759864 
L 180.424668 205.067418 
L 181.441246 203.698878 
L 182.457825 202.703477 
L 184.490982 200.263886 
L 185.507561 199.158763 
L 186.524139 197.865971 
L 191.607032 192.851764 
L 194.656768 190.188584 
L 197.706504 187.968795 
L 199.739661 186.821944 
L 200.75624 186.148408 
L 201.772818 185.893654 
L 203.805976 185.031412 
L 204.822554 184.822532 
L 205.839133 184.478397 
L 208.888869 184.320047 
L 210.922026 184.324188 
L 211.938604 184.59108 
L 212.955183 184.663346 
L 217.021498 186.159651 
L 218.038076 186.572982 
L 221.087812 188.56709 
L 222.104391 189.276779 
L 224.137548 190.978836 
L 225.154126 191.821473 
L 229.220441 195.917901 
L 232.270177 199.377414 
L 233.286755 200.835408 
L 234.303334 201.993116 
L 240.402806 210.512278 
L 241.419384 211.922312 
L 243.452541 214.954988 
L 246.502277 219.473411 
L 247.518856 221.095382 
L 248.535435 222.477858 
L 251.58517 227.1594 
L 253.618328 230.025389 
L 254.634906 231.593732 
L 257.684642 235.549404 
L 258.701221 237.067676 
L 260.734378 239.470765 
L 262.767535 241.844572 
L 263.784114 242.865206 
L 264.800692 244.072844 
L 270.900164 249.309805 
L 273.9499 251.181892 
L 274.966478 251.526845 
L 275.983057 252.027224 
L 279.032793 252.901464 
L 282.082529 253.060771 
L 283.099107 253.141489 
L 284.115686 252.831502 
L 285.132265 252.810785 
L 286.148843 252.428037 
L 287.165422 252.260859 
L 292.248315 249.736849 
L 293.264893 248.952767 
L 294.281472 248.335538 
L 296.314629 246.531054 
L 299.364365 243.836312 
L 301.397522 241.818223 
L 307.496994 235.0039 
L 310.54673 231.135566 
L 311.563308 230.110223 
L 312.579887 228.585803 
L 313.596466 227.498449 
L 314.613044 226.081657 
L 315.629623 224.920583 
L 316.646201 223.482605 
L 317.66278 222.405342 
L 319.695937 219.841999 
L 320.712516 218.839486 
L 323.762252 215.233478 
L 325.795409 213.171963 
L 329.861723 209.330339 
L 331.894881 207.504532 
L 336.977774 204.168066 
L 341.044088 202.442237 
L 345.110403 201.751736 
L 347.14356 201.675824 
L 349.176717 201.971246 
L 352.226453 202.492739 
L 353.243032 203.055955 
L 355.276189 204.042489 
L 356.292767 204.535552 
L 358.325925 205.89643 
L 360.359082 207.443601 
L 361.37566 208.401718 
L 362.392239 209.181908 
L 363.408818 210.240176 
L 364.425396 211.12468 
L 366.458553 213.421007 
L 367.475132 214.425305 
L 369.508289 216.86426 
L 373.574604 222.094416 
L 379.674075 230.81716 
L 384.756968 238.0723 
L 385.773547 239.71575 
L 387.806704 242.475162 
L 388.823283 243.852128 
L 389.839862 245.445611 
L 390.85644 246.827007 
L 391.873019 248.008159 
L 393.906176 250.6159 
L 395.939333 252.95416 
L 396.955912 253.984101 
L 397.97249 255.244812 
L 398.989069 256.039714 
L 400.005648 257.076206 
L 402.038805 258.802202 
L 403.055383 259.377262 
L 404.071962 260.328383 
L 408.138277 262.249829 
L 411.188012 262.725691 
L 413.22117 262.62877 
L 415.254327 262.358852 
L 419.320641 260.338206 
L 422.370377 257.961998 
L 423.386956 256.950204 
L 424.403534 256.13488 
L 427.45327 252.456858 
L 430.503006 248.191189 
L 432.536163 245.040899 
L 438.635635 234.289263 
L 448.801421 214.193062 
L 452.867735 206.223933 
L 457.950629 197.18808 
L 462.016943 190.807828 
L 463.033522 189.520283 
L 464.0501 188.026377 
L 469.132993 182.488384 
L 472.182729 180.065904 
L 473.199308 179.670122 
L 474.215886 179.015855 
L 476.249044 178.182784 
L 479.298779 177.746161 
L 481.331937 177.79096 
L 485.398251 178.802583 
L 486.41483 179.218608 
L 489.464565 181.039596 
L 493.53088 184.11101 
L 494.547459 184.889028 
L 496.580616 187.023095 
L 497.597194 187.88792 
L 498.613773 189.048094 
L 499.630352 190.011905 
L 500.64693 191.191917 
L 501.663509 192.17648 
L 503.696666 194.519841 
L 511.829295 203.224235 
L 515.895609 207.105211 
L 516.912188 207.881059 
L 518.945345 209.615906 
L 520.978502 211.084354 
L 521.995081 211.824254 
L 523.01166 212.320701 
L 524.028238 213.020816 
L 525.044817 213.372489 
L 526.061396 213.95803 
L 529.111131 215.051844 
L 531.144289 215.632868 
L 534.194024 215.997768 
L 535.210603 215.843413 
L 536.227182 215.933573 
L 538.260339 215.649805 
L 539.276917 215.49986 
L 544.359811 214.040708 
L 545.376389 213.685632 
L 546.392968 213.106416 
L 548.426125 212.29947 
L 555.542175 208.199311 
L 556.558754 207.424512 
L 560.625068 204.884824 
L 561.641647 204.037524 
L 562.658226 203.383914 
L 563.674804 202.573908 
L 567.741119 199.815317 
L 574.857169 195.064497 
L 576.890326 193.885644 
L 577.906905 193.089332 
L 578.923483 192.57807 
L 580.956641 191.278479 
L 584.006376 189.506201 
L 585.022955 189.123164 
L 587.056112 187.86925 
L 589.089269 186.817396 
L 596.20532 183.281927 
L 598.238477 182.330078 
L 599.255056 181.734696 
L 600.271634 181.40103 
L 602.304791 180.399357 
L 603.32137 180.129297 
L 605.354527 179.111319 
L 606.371106 178.784759 
L 607.387684 178.288281 
L 609.420842 177.496652 
L 610.43742 177.136601 
L 611.453999 176.913742 
L 615.520313 175.499047 
L 616.536892 175.221496 
L 617.553471 174.817172 
L 618.570049 174.620325 
L 619.586628 174.560759 
L 622.636364 173.822005 
L 622.636364 173.822005 
" style="fill:none;stroke:#808080;stroke-linecap:square;stroke-opacity:0.5;stroke-width:2;"/>
   </g>
   <g id="line2d_18">
    <path clip-path="url(#p552a2ff0f7)" d="M 115.363636 279.20804 
L 117.396794 276.310254 
L 121.463108 270.243693 
L 125.529422 263.754855 
L 127.56258 260.092215 
L 130.612316 254.824558 
L 132.645473 250.938184 
L 134.67863 247.186471 
L 140.778102 235.499557 
L 147.894152 221.880483 
L 149.927309 218.223237 
L 151.960466 214.436833 
L 156.026781 207.166282 
L 157.043359 205.670091 
L 158.059938 203.806224 
L 164.15941 194.551792 
L 167.209146 190.523698 
L 170.258881 186.875638 
L 173.308617 183.534981 
L 176.358353 180.902404 
L 178.39151 179.186178 
L 179.408089 178.501693 
L 180.424668 178.034093 
L 181.441246 177.290877 
L 183.474403 176.233935 
L 186.524139 175.062653 
L 190.590454 174.349043 
L 191.607032 174.37907 
L 192.623611 174.255612 
L 193.640189 174.330624 
L 194.656768 174.618225 
L 195.673347 174.550723 
L 199.739661 175.844908 
L 201.772818 176.791952 
L 202.789397 177.256552 
L 203.805976 177.859468 
L 204.822554 178.313204 
L 209.905447 182.326792 
L 211.938604 184.248041 
L 216.004919 188.706289 
L 218.038076 191.218621 
L 220.071233 193.970172 
L 223.120969 198.467327 
L 225.154126 201.70521 
L 230.237019 210.678631 
L 232.270177 214.844247 
L 235.319913 221.079028 
L 242.435963 237.762137 
L 249.552013 257.136892 
L 257.684642 281.951651 
L 261.750956 295.208751 
L 273.9499 337.257569 
L 275.983057 344.453383 
L 278.016214 351.514663 
L 283.099107 368.715009 
L 285.132265 375.369443 
L 289.198579 387.968725 
L 293.264893 399.653641 
L 295.298051 405.185169 
L 297.331208 410.259405 
L 301.397522 419.321468 
L 303.43068 423.267532 
L 306.480415 428.406616 
L 309.530151 432.561167 
L 311.563308 434.70145 
L 313.596466 436.498355 
L 314.613044 437.214633 
L 315.629623 437.62223 
L 316.646201 438.320868 
L 317.66278 438.44815 
L 318.679359 438.788073 
L 319.695937 438.960907 
L 321.729095 438.741557 
L 322.745673 438.453907 
L 323.762252 438.030015 
L 326.811988 436.402427 
L 327.828566 435.709001 
L 331.894881 431.449639 
L 334.944617 427.322514 
L 336.977774 424.029741 
L 337.994352 422.634927 
L 342.060667 414.93514 
L 345.110403 408.809505 
L 350.193296 397.63 
L 366.458553 359.209717 
L 374.591182 341.545049 
L 380.690654 329.77711 
L 383.74039 324.500796 
L 387.806704 317.818905 
L 391.873019 311.752298 
L 393.906176 308.926145 
L 395.939333 306.116003 
L 405.088541 294.711232 
L 406.105119 293.600215 
L 408.138277 291.037726 
L 410.171434 288.715903 
L 414.237748 283.67399 
L 415.254327 282.588479 
L 419.320641 277.099841 
L 420.33722 276.007173 
L 427.45327 266.061936 
L 429.486427 262.862901 
L 430.503006 261.377489 
L 432.536163 258.040042 
L 433.552742 256.597275 
L 444.735107 237.522865 
L 447.784842 231.967725 
L 454.900893 219.789854 
L 457.950629 214.800395 
L 464.0501 206.007813 
L 466.083257 203.593322 
L 467.099836 202.496331 
L 468.116415 201.174286 
L 470.149572 199.348075 
L 472.182729 197.386397 
L 473.199308 196.748936 
L 474.215886 195.914824 
L 479.298779 194.110358 
L 480.315358 193.82033 
L 481.331937 193.678809 
L 483.365094 193.896336 
L 486.41483 194.587424 
L 488.447987 195.533481 
L 489.464565 196.231707 
L 490.481144 196.790526 
L 491.497723 197.71314 
L 492.514301 198.406522 
L 493.53088 199.550638 
L 495.564037 201.417931 
L 496.580616 202.653066 
L 497.597194 203.691545 
L 502.680087 210.725901 
L 505.729823 215.190826 
L 507.762981 218.610473 
L 512.845874 227.148196 
L 513.862452 229.033175 
L 514.879031 230.626477 
L 515.895609 232.564679 
L 516.912188 234.168858 
L 517.928767 235.99411 
L 518.945345 237.52386 
L 520.978502 241.041526 
L 529.111131 252.776769 
L 530.12771 254.10443 
L 532.160867 256.216641 
L 533.177446 257.419657 
L 536.227182 260.223476 
L 539.276917 262.498878 
L 540.293496 262.943212 
L 542.326653 264.052767 
L 544.359811 264.743024 
L 546.392968 265.158268 
L 547.409546 265.371749 
L 550.459282 265.146463 
L 551.475861 265.056266 
L 553.509018 264.489184 
L 555.542175 263.814767 
L 559.60849 261.843426 
L 560.625068 261.10336 
L 562.658226 259.949445 
L 564.691383 258.408142 
L 565.707961 257.701717 
L 566.72454 256.810012 
L 568.757697 255.349128 
L 570.790854 253.617721 
L 573.84059 251.180128 
L 575.873747 249.425191 
L 576.890326 248.723453 
L 578.923483 247.072004 
L 585.022955 242.675242 
L 586.039534 242.169347 
L 587.056112 241.334968 
L 588.072691 240.811606 
L 589.089269 240.422915 
L 590.105848 239.647197 
L 591.122427 239.099115 
L 592.139005 238.704031 
L 593.155584 238.036771 
L 594.172163 237.57205 
L 595.188741 237.274848 
L 596.20532 236.587074 
L 599.255056 235.417756 
L 600.271634 234.800973 
L 601.288213 234.591588 
L 602.304791 234.072475 
L 604.337949 233.39068 
L 606.371106 232.539206 
L 607.387684 232.058793 
L 608.404263 231.758626 
L 614.503735 228.767874 
L 615.520313 227.99574 
L 616.536892 227.500843 
L 617.553471 226.717935 
L 618.570049 226.129826 
L 620.603206 224.55811 
L 622.636364 222.741231 
L 622.636364 222.741231 
" style="fill:none;stroke:#808080;stroke-linecap:square;stroke-opacity:0.5;stroke-width:2;"/>
   </g>
   <g id="patch_3">
    <path d="M 90 441 
L 90 60.48 
" style="fill:none;stroke:#000000;stroke-linecap:square;stroke-linejoin:miter;stroke-width:0.8;"/>
   </g>
   <g id="patch_4">
    <path d="M 90 441 
L 648 441 
" style="fill:none;stroke:#000000;stroke-linecap:square;stroke-linejoin:miter;stroke-width:0.8;"/>
   </g>
   <g id="legend_1">
    <g id="patch_5">
     <path d="M 455.0175 101.300625 
L 635.4 101.300625 
Q 639 101.300625 639 97.700625 
L 639 73.08 
Q 639 69.48 635.4 69.48 
L 455.0175 69.48 
Q 451.4175 69.48 451.4175 73.08 
L 451.4175 97.700625 
Q 451.4175 101.300625 455.0175 101.300625 
z
" style="fill:#ffffff;opacity:0.8;stroke:#cccccc;stroke-linejoin:miter;"/>
    </g>
    <g id="line2d_19">
     <path d="M 458.6175 84.057188 
L 494.6175 84.057188 
" style="fill:none;stroke:#808080;stroke-linecap:square;stroke-opacity:0.5;stroke-width:2;"/>
    </g>
    <g id="line2d_20"/>
    <g id="text_14">
     <!-- prior samples -->
     <g transform="translate(509.0175 90.357188)scale(0.18 -0.18)">
      <defs>
       <path d="M 18.109375 8.203125 
L 18.109375 -20.796875 
L 9.078125 -20.796875 
L 9.078125 54.6875 
L 18.109375 54.6875 
L 18.109375 46.390625 
Q 20.953125 51.265625 25.265625 53.625 
Q 29.59375 56 35.59375 56 
Q 45.5625 56 51.78125 48.09375 
Q 58.015625 40.1875 58.015625 27.296875 
Q 58.015625 14.40625 51.78125 6.484375 
Q 45.5625 -1.421875 35.59375 -1.421875 
Q 29.59375 -1.421875 25.265625 0.953125 
Q 20.953125 3.328125 18.109375 8.203125 
z
M 48.6875 27.296875 
Q 48.6875 37.203125 44.609375 42.84375 
Q 40.53125 48.484375 33.40625 48.484375 
Q 26.265625 48.484375 22.1875 42.84375 
Q 18.109375 37.203125 18.109375 27.296875 
Q 18.109375 17.390625 22.1875 11.75 
Q 26.265625 6.109375 33.40625 6.109375 
Q 40.53125 6.109375 44.609375 11.75 
Q 48.6875 17.390625 48.6875 27.296875 
z
" id="DejaVuSans-112"/>
       <path d="M 41.109375 46.296875 
Q 39.59375 47.171875 37.8125 47.578125 
Q 36.03125 48 33.890625 48 
Q 26.265625 48 22.1875 43.046875 
Q 18.109375 38.09375 18.109375 28.8125 
L 18.109375 0 
L 9.078125 0 
L 9.078125 54.6875 
L 18.109375 54.6875 
L 18.109375 46.1875 
Q 20.953125 51.171875 25.484375 53.578125 
Q 30.03125 56 36.53125 56 
Q 37.453125 56 38.578125 55.875 
Q 39.703125 55.765625 41.0625 55.515625 
z
" id="DejaVuSans-114"/>
       <path d="M 9.421875 54.6875 
L 18.40625 54.6875 
L 18.40625 0 
L 9.421875 0 
z
M 9.421875 75.984375 
L 18.40625 75.984375 
L 18.40625 64.59375 
L 9.421875 64.59375 
z
" id="DejaVuSans-105"/>
       <path d="M 30.609375 48.390625 
Q 23.390625 48.390625 19.1875 42.75 
Q 14.984375 37.109375 14.984375 27.296875 
Q 14.984375 17.484375 19.15625 11.84375 
Q 23.34375 6.203125 30.609375 6.203125 
Q 37.796875 6.203125 41.984375 11.859375 
Q 46.1875 17.53125 46.1875 27.296875 
Q 46.1875 37.015625 41.984375 42.703125 
Q 37.796875 48.390625 30.609375 48.390625 
z
M 30.609375 56 
Q 42.328125 56 49.015625 48.375 
Q 55.71875 40.765625 55.71875 27.296875 
Q 55.71875 13.875 49.015625 6.21875 
Q 42.328125 -1.421875 30.609375 -1.421875 
Q 18.84375 -1.421875 12.171875 6.21875 
Q 5.515625 13.875 5.515625 27.296875 
Q 5.515625 40.765625 12.171875 48.375 
Q 18.84375 56 30.609375 56 
z
" id="DejaVuSans-111"/>
       <path id="DejaVuSans-32"/>
       <path d="M 44.28125 53.078125 
L 44.28125 44.578125 
Q 40.484375 46.53125 36.375 47.5 
Q 32.28125 48.484375 27.875 48.484375 
Q 21.1875 48.484375 17.84375 46.4375 
Q 14.5 44.390625 14.5 40.28125 
Q 14.5 37.15625 16.890625 35.375 
Q 19.28125 33.59375 26.515625 31.984375 
L 29.59375 31.296875 
Q 39.15625 29.25 43.1875 25.515625 
Q 47.21875 21.78125 47.21875 15.09375 
Q 47.21875 7.46875 41.1875 3.015625 
Q 35.15625 -1.421875 24.609375 -1.421875 
Q 20.21875 -1.421875 15.453125 -0.5625 
Q 10.6875 0.296875 5.421875 2 
L 5.421875 11.28125 
Q 10.40625 8.6875 15.234375 7.390625 
Q 20.0625 6.109375 24.8125 6.109375 
Q 31.15625 6.109375 34.5625 8.28125 
Q 37.984375 10.453125 37.984375 14.40625 
Q 37.984375 18.0625 35.515625 20.015625 
Q 33.0625 21.96875 24.703125 23.78125 
L 21.578125 24.515625 
Q 13.234375 26.265625 9.515625 29.90625 
Q 5.8125 33.546875 5.8125 39.890625 
Q 5.8125 47.609375 11.28125 51.796875 
Q 16.75 56 26.8125 56 
Q 31.78125 56 36.171875 55.265625 
Q 40.578125 54.546875 44.28125 53.078125 
z
" id="DejaVuSans-115"/>
       <path d="M 34.28125 27.484375 
Q 23.390625 27.484375 19.1875 25 
Q 14.984375 22.515625 14.984375 16.5 
Q 14.984375 11.71875 18.140625 8.90625 
Q 21.296875 6.109375 26.703125 6.109375 
Q 34.1875 6.109375 38.703125 11.40625 
Q 43.21875 16.703125 43.21875 25.484375 
L 43.21875 27.484375 
z
M 52.203125 31.203125 
L 52.203125 0 
L 43.21875 0 
L 43.21875 8.296875 
Q 40.140625 3.328125 35.546875 0.953125 
Q 30.953125 -1.421875 24.3125 -1.421875 
Q 15.921875 -1.421875 10.953125 3.296875 
Q 6 8.015625 6 15.921875 
Q 6 25.140625 12.171875 29.828125 
Q 18.359375 34.515625 30.609375 34.515625 
L 43.21875 34.515625 
L 43.21875 35.40625 
Q 43.21875 41.609375 39.140625 45 
Q 35.0625 48.390625 27.6875 48.390625 
Q 23 48.390625 18.546875 47.265625 
Q 14.109375 46.140625 10.015625 43.890625 
L 10.015625 52.203125 
Q 14.9375 54.109375 19.578125 55.046875 
Q 24.21875 56 28.609375 56 
Q 40.484375 56 46.34375 49.84375 
Q 52.203125 43.703125 52.203125 31.203125 
z
" id="DejaVuSans-97"/>
       <path d="M 52 44.1875 
Q 55.375 50.25 60.0625 53.125 
Q 64.75 56 71.09375 56 
Q 79.640625 56 84.28125 50.015625 
Q 88.921875 44.046875 88.921875 33.015625 
L 88.921875 0 
L 79.890625 0 
L 79.890625 32.71875 
Q 79.890625 40.578125 77.09375 44.375 
Q 74.3125 48.1875 68.609375 48.1875 
Q 61.625 48.1875 57.5625 43.546875 
Q 53.515625 38.921875 53.515625 30.90625 
L 53.515625 0 
L 44.484375 0 
L 44.484375 32.71875 
Q 44.484375 40.625 41.703125 44.40625 
Q 38.921875 48.1875 33.109375 48.1875 
Q 26.21875 48.1875 22.15625 43.53125 
Q 18.109375 38.875 18.109375 30.90625 
L 18.109375 0 
L 9.078125 0 
L 9.078125 54.6875 
L 18.109375 54.6875 
L 18.109375 46.1875 
Q 21.1875 51.21875 25.484375 53.609375 
Q 29.78125 56 35.6875 56 
Q 41.65625 56 45.828125 52.96875 
Q 50 49.953125 52 44.1875 
z
" id="DejaVuSans-109"/>
       <path d="M 9.421875 75.984375 
L 18.40625 75.984375 
L 18.40625 0 
L 9.421875 0 
z
" id="DejaVuSans-108"/>
       <path d="M 56.203125 29.59375 
L 56.203125 25.203125 
L 14.890625 25.203125 
Q 15.484375 15.921875 20.484375 11.0625 
Q 25.484375 6.203125 34.421875 6.203125 
Q 39.59375 6.203125 44.453125 7.46875 
Q 49.3125 8.734375 54.109375 11.28125 
L 54.109375 2.78125 
Q 49.265625 0.734375 44.1875 -0.34375 
Q 39.109375 -1.421875 33.890625 -1.421875 
Q 20.796875 -1.421875 13.15625 6.1875 
Q 5.515625 13.8125 5.515625 26.8125 
Q 5.515625 40.234375 12.765625 48.109375 
Q 20.015625 56 32.328125 56 
Q 43.359375 56 49.78125 48.890625 
Q 56.203125 41.796875 56.203125 29.59375 
z
M 47.21875 32.234375 
Q 47.125 39.59375 43.09375 43.984375 
Q 39.0625 48.390625 32.421875 48.390625 
Q 24.90625 48.390625 20.390625 44.140625 
Q 15.875 39.890625 15.1875 32.171875 
z
" id="DejaVuSans-101"/>
      </defs>
      <use xlink:href="#DejaVuSans-112"/>
      <use x="63.476562" xlink:href="#DejaVuSans-114"/>
      <use x="104.589844" xlink:href="#DejaVuSans-105"/>
      <use x="132.373047" xlink:href="#DejaVuSans-111"/>
      <use x="193.554688" xlink:href="#DejaVuSans-114"/>
      <use x="234.667969" xlink:href="#DejaVuSans-32"/>
      <use x="266.455078" xlink:href="#DejaVuSans-115"/>
      <use x="318.554688" xlink:href="#DejaVuSans-97"/>
      <use x="379.833984" xlink:href="#DejaVuSans-109"/>
      <use x="477.246094" xlink:href="#DejaVuSans-112"/>
      <use x="540.722656" xlink:href="#DejaVuSans-108"/>
      <use x="568.505859" xlink:href="#DejaVuSans-101"/>
      <use x="630.029297" xlink:href="#DejaVuSans-115"/>
     </g>
    </g>
   </g>
  </g>
 </g>
 <defs>
  <clipPath id="p552a2ff0f7">
   <rect height="380.52" width="558" x="90" y="60.48"/>
  </clipPath>
 </defs>
</svg>
