<?xml version="1.0" encoding="utf-8" standalone="no"?>
<!DOCTYPE svg PUBLIC "-//W3C//DTD SVG 1.1//EN"
  "http://www.w3.org/Graphics/SVG/1.1/DTD/svg11.dtd">
<!-- Created with matplotlib (https://matplotlib.org/) -->
<svg height="504pt" version="1.1" viewBox="0 0 720 504" width="720pt" xmlns="http://www.w3.org/2000/svg" xmlns:xlink="http://www.w3.org/1999/xlink">
 <metadata>
  <rdf:RDF xmlns:cc="http://creativecommons.org/ns#" xmlns:dc="http://purl.org/dc/elements/1.1/" xmlns:rdf="http://www.w3.org/1999/02/22-rdf-syntax-ns#">
   <cc:Work>
    <dc:type rdf:resource="http://purl.org/dc/dcmitype/StillImage"/>
    <dc:date>2022-06-22T17:33:25.640029</dc:date>
    <dc:format>image/svg+xml</dc:format>
    <dc:creator>
     <cc:Agent>
      <dc:title>Matplotlib v3.3.4, https://matplotlib.org/</dc:title>
     </cc:Agent>
    </dc:creator>
   </cc:Work>
  </rdf:RDF>
 </metadata>
 <defs>
  <style type="text/css">*{stroke-linecap:butt;stroke-linejoin:round;}</style>
 </defs>
 <g id="figure_1">
  <g id="patch_1">
   <path d="M 0 504 
L 720 504 
L 720 0 
L 0 0 
z
" style="fill:none;"/>
  </g>
  <g id="axes_1">
   <g id="patch_2">
    <path d="M 90 441 
L 648 441 
L 648 60.48 
L 90 60.48 
z
" style="fill:#ffffff;"/>
   </g>
   <g id="matplotlib.axis_1">
    <g id="xtick_1">
     <g id="line2d_1">
      <defs>
       <path d="M 0 0 
L 0 3.5 
" id="m5af1f51ce0" style="stroke:#000000;stroke-width:0.8;"/>
      </defs>
      <g>
       <use style="stroke:#000000;stroke-width:0.8;" x="115.363636" xlink:href="#m5af1f51ce0" y="441"/>
      </g>
     </g>
     <g id="text_1">
      <!-- −2 -->
      <g transform="translate(102.095668 461.677188)scale(0.18 -0.18)">
       <defs>
        <path d="M 10.59375 35.5 
L 73.1875 35.5 
L 73.1875 27.203125 
L 10.59375 27.203125 
z
" id="DejaVuSans-8722"/>
        <path d="M 19.1875 8.296875 
L 53.609375 8.296875 
L 53.609375 0 
L 7.328125 0 
L 7.328125 8.296875 
Q 12.9375 14.109375 22.625 23.890625 
Q 32.328125 33.6875 34.8125 36.53125 
Q 39.546875 41.84375 41.421875 45.53125 
Q 43.3125 49.21875 43.3125 52.78125 
Q 43.3125 58.59375 39.234375 62.25 
Q 35.15625 65.921875 28.609375 65.921875 
Q 23.96875 65.921875 18.8125 64.3125 
Q 13.671875 62.703125 7.8125 59.421875 
L 7.8125 69.390625 
Q 13.765625 71.78125 18.9375 73 
Q 24.125 74.21875 28.421875 74.21875 
Q 39.75 74.21875 46.484375 68.546875 
Q 53.21875 62.890625 53.21875 53.421875 
Q 53.21875 48.921875 51.53125 44.890625 
Q 49.859375 40.875 45.40625 35.40625 
Q 44.1875 33.984375 37.640625 27.21875 
Q 31.109375 20.453125 19.1875 8.296875 
z
" id="DejaVuSans-50"/>
       </defs>
       <use xlink:href="#DejaVuSans-8722"/>
       <use x="83.789062" xlink:href="#DejaVuSans-50"/>
      </g>
     </g>
    </g>
    <g id="xtick_2">
     <g id="line2d_2">
      <g>
       <use style="stroke:#000000;stroke-width:0.8;" x="216.818182" xlink:href="#m5af1f51ce0" y="441"/>
      </g>
     </g>
     <g id="text_2">
      <!-- 0 -->
      <g transform="translate(211.091932 461.677188)scale(0.18 -0.18)">
       <defs>
        <path d="M 31.78125 66.40625 
Q 24.171875 66.40625 20.328125 58.90625 
Q 16.5 51.421875 16.5 36.375 
Q 16.5 21.390625 20.328125 13.890625 
Q 24.171875 6.390625 31.78125 6.390625 
Q 39.453125 6.390625 43.28125 13.890625 
Q 47.125 21.390625 47.125 36.375 
Q 47.125 51.421875 43.28125 58.90625 
Q 39.453125 66.40625 31.78125 66.40625 
z
M 31.78125 74.21875 
Q 44.046875 74.21875 50.515625 64.515625 
Q 56.984375 54.828125 56.984375 36.375 
Q 56.984375 17.96875 50.515625 8.265625 
Q 44.046875 -1.421875 31.78125 -1.421875 
Q 19.53125 -1.421875 13.0625 8.265625 
Q 6.59375 17.96875 6.59375 36.375 
Q 6.59375 54.828125 13.0625 64.515625 
Q 19.53125 74.21875 31.78125 74.21875 
z
" id="DejaVuSans-48"/>
       </defs>
       <use xlink:href="#DejaVuSans-48"/>
      </g>
     </g>
    </g>
    <g id="xtick_3">
     <g id="line2d_3">
      <g>
       <use style="stroke:#000000;stroke-width:0.8;" x="318.272727" xlink:href="#m5af1f51ce0" y="441"/>
      </g>
     </g>
     <g id="text_3">
      <!-- 2 -->
      <g transform="translate(312.546477 461.677188)scale(0.18 -0.18)">
       <use xlink:href="#DejaVuSans-50"/>
      </g>
     </g>
    </g>
    <g id="xtick_4">
     <g id="line2d_4">
      <g>
       <use style="stroke:#000000;stroke-width:0.8;" x="419.727273" xlink:href="#m5af1f51ce0" y="441"/>
      </g>
     </g>
     <g id="text_4">
      <!-- 4 -->
      <g transform="translate(414.001023 461.677188)scale(0.18 -0.18)">
       <defs>
        <path d="M 37.796875 64.3125 
L 12.890625 25.390625 
L 37.796875 25.390625 
z
M 35.203125 72.90625 
L 47.609375 72.90625 
L 47.609375 25.390625 
L 58.015625 25.390625 
L 58.015625 17.1875 
L 47.609375 17.1875 
L 47.609375 0 
L 37.796875 0 
L 37.796875 17.1875 
L 4.890625 17.1875 
L 4.890625 26.703125 
z
" id="DejaVuSans-52"/>
       </defs>
       <use xlink:href="#DejaVuSans-52"/>
      </g>
     </g>
    </g>
    <g id="xtick_5">
     <g id="line2d_5">
      <g>
       <use style="stroke:#000000;stroke-width:0.8;" x="521.181818" xlink:href="#m5af1f51ce0" y="441"/>
      </g>
     </g>
     <g id="text_5">
      <!-- 6 -->
      <g transform="translate(515.455568 461.677188)scale(0.18 -0.18)">
       <defs>
        <path d="M 33.015625 40.375 
Q 26.375 40.375 22.484375 35.828125 
Q 18.609375 31.296875 18.609375 23.390625 
Q 18.609375 15.53125 22.484375 10.953125 
Q 26.375 6.390625 33.015625 6.390625 
Q 39.65625 6.390625 43.53125 10.953125 
Q 47.40625 15.53125 47.40625 23.390625 
Q 47.40625 31.296875 43.53125 35.828125 
Q 39.65625 40.375 33.015625 40.375 
z
M 52.59375 71.296875 
L 52.59375 62.3125 
Q 48.875 64.0625 45.09375 64.984375 
Q 41.3125 65.921875 37.59375 65.921875 
Q 27.828125 65.921875 22.671875 59.328125 
Q 17.53125 52.734375 16.796875 39.40625 
Q 19.671875 43.65625 24.015625 45.921875 
Q 28.375 48.1875 33.59375 48.1875 
Q 44.578125 48.1875 50.953125 41.515625 
Q 57.328125 34.859375 57.328125 23.390625 
Q 57.328125 12.15625 50.6875 5.359375 
Q 44.046875 -1.421875 33.015625 -1.421875 
Q 20.359375 -1.421875 13.671875 8.265625 
Q 6.984375 17.96875 6.984375 36.375 
Q 6.984375 53.65625 15.1875 63.9375 
Q 23.390625 74.21875 37.203125 74.21875 
Q 40.921875 74.21875 44.703125 73.484375 
Q 48.484375 72.75 52.59375 71.296875 
z
" id="DejaVuSans-54"/>
       </defs>
       <use xlink:href="#DejaVuSans-54"/>
      </g>
     </g>
    </g>
    <g id="xtick_6">
     <g id="line2d_6">
      <g>
       <use style="stroke:#000000;stroke-width:0.8;" x="622.636364" xlink:href="#m5af1f51ce0" y="441"/>
      </g>
     </g>
     <g id="text_6">
      <!-- 8 -->
      <g transform="translate(616.910114 461.677188)scale(0.18 -0.18)">
       <defs>
        <path d="M 31.78125 34.625 
Q 24.75 34.625 20.71875 30.859375 
Q 16.703125 27.09375 16.703125 20.515625 
Q 16.703125 13.921875 20.71875 10.15625 
Q 24.75 6.390625 31.78125 6.390625 
Q 38.8125 6.390625 42.859375 10.171875 
Q 46.921875 13.96875 46.921875 20.515625 
Q 46.921875 27.09375 42.890625 30.859375 
Q 38.875 34.625 31.78125 34.625 
z
M 21.921875 38.8125 
Q 15.578125 40.375 12.03125 44.71875 
Q 8.5 49.078125 8.5 55.328125 
Q 8.5 64.0625 14.71875 69.140625 
Q 20.953125 74.21875 31.78125 74.21875 
Q 42.671875 74.21875 48.875 69.140625 
Q 55.078125 64.0625 55.078125 55.328125 
Q 55.078125 49.078125 51.53125 44.71875 
Q 48 40.375 41.703125 38.8125 
Q 48.828125 37.15625 52.796875 32.3125 
Q 56.78125 27.484375 56.78125 20.515625 
Q 56.78125 9.90625 50.3125 4.234375 
Q 43.84375 -1.421875 31.78125 -1.421875 
Q 19.734375 -1.421875 13.25 4.234375 
Q 6.78125 9.90625 6.78125 20.515625 
Q 6.78125 27.484375 10.78125 32.3125 
Q 14.796875 37.15625 21.921875 38.8125 
z
M 18.3125 54.390625 
Q 18.3125 48.734375 21.84375 45.5625 
Q 25.390625 42.390625 31.78125 42.390625 
Q 38.140625 42.390625 41.71875 45.5625 
Q 45.3125 48.734375 45.3125 54.390625 
Q 45.3125 60.0625 41.71875 63.234375 
Q 38.140625 66.40625 31.78125 66.40625 
Q 25.390625 66.40625 21.84375 63.234375 
Q 18.3125 60.0625 18.3125 54.390625 
z
" id="DejaVuSans-56"/>
       </defs>
       <use xlink:href="#DejaVuSans-56"/>
      </g>
     </g>
    </g>
   </g>
   <g id="matplotlib.axis_2">
    <g id="ytick_1">
     <g id="line2d_7">
      <defs>
       <path d="M 0 0 
L -3.5 0 
" id="mf7eb8462bb" style="stroke:#000000;stroke-width:0.8;"/>
      </defs>
      <g>
       <use style="stroke:#000000;stroke-width:0.8;" x="90" xlink:href="#mf7eb8462bb" y="441"/>
      </g>
     </g>
     <g id="text_7">
      <!-- −3 -->
      <g transform="translate(56.464062 447.838594)scale(0.18 -0.18)">
       <defs>
        <path d="M 40.578125 39.3125 
Q 47.65625 37.796875 51.625 33 
Q 55.609375 28.21875 55.609375 21.1875 
Q 55.609375 10.40625 48.1875 4.484375 
Q 40.765625 -1.421875 27.09375 -1.421875 
Q 22.515625 -1.421875 17.65625 -0.515625 
Q 12.796875 0.390625 7.625 2.203125 
L 7.625 11.71875 
Q 11.71875 9.328125 16.59375 8.109375 
Q 21.484375 6.890625 26.8125 6.890625 
Q 36.078125 6.890625 40.9375 10.546875 
Q 45.796875 14.203125 45.796875 21.1875 
Q 45.796875 27.640625 41.28125 31.265625 
Q 36.765625 34.90625 28.71875 34.90625 
L 20.21875 34.90625 
L 20.21875 43.015625 
L 29.109375 43.015625 
Q 36.375 43.015625 40.234375 45.921875 
Q 44.09375 48.828125 44.09375 54.296875 
Q 44.09375 59.90625 40.109375 62.90625 
Q 36.140625 65.921875 28.71875 65.921875 
Q 24.65625 65.921875 20.015625 65.03125 
Q 15.375 64.15625 9.8125 62.3125 
L 9.8125 71.09375 
Q 15.4375 72.65625 20.34375 73.4375 
Q 25.25 74.21875 29.59375 74.21875 
Q 40.828125 74.21875 47.359375 69.109375 
Q 53.90625 64.015625 53.90625 55.328125 
Q 53.90625 49.265625 50.4375 45.09375 
Q 46.96875 40.921875 40.578125 39.3125 
z
" id="DejaVuSans-51"/>
       </defs>
       <use xlink:href="#DejaVuSans-8722"/>
       <use x="83.789062" xlink:href="#DejaVuSans-51"/>
      </g>
     </g>
    </g>
    <g id="ytick_2">
     <g id="line2d_8">
      <g>
       <use style="stroke:#000000;stroke-width:0.8;" x="90" xlink:href="#mf7eb8462bb" y="377.58"/>
      </g>
     </g>
     <g id="text_8">
      <!-- −2 -->
      <g transform="translate(56.464062 384.418594)scale(0.18 -0.18)">
       <use xlink:href="#DejaVuSans-8722"/>
       <use x="83.789062" xlink:href="#DejaVuSans-50"/>
      </g>
     </g>
    </g>
    <g id="ytick_3">
     <g id="line2d_9">
      <g>
       <use style="stroke:#000000;stroke-width:0.8;" x="90" xlink:href="#mf7eb8462bb" y="314.16"/>
      </g>
     </g>
     <g id="text_9">
      <!-- −1 -->
      <g transform="translate(56.464062 320.998594)scale(0.18 -0.18)">
       <defs>
        <path d="M 12.40625 8.296875 
L 28.515625 8.296875 
L 28.515625 63.921875 
L 10.984375 60.40625 
L 10.984375 69.390625 
L 28.421875 72.90625 
L 38.28125 72.90625 
L 38.28125 8.296875 
L 54.390625 8.296875 
L 54.390625 0 
L 12.40625 0 
z
" id="DejaVuSans-49"/>
       </defs>
       <use xlink:href="#DejaVuSans-8722"/>
       <use x="83.789062" xlink:href="#DejaVuSans-49"/>
      </g>
     </g>
    </g>
    <g id="ytick_4">
     <g id="line2d_10">
      <g>
       <use style="stroke:#000000;stroke-width:0.8;" x="90" xlink:href="#mf7eb8462bb" y="250.74"/>
      </g>
     </g>
     <g id="text_10">
      <!-- 0 -->
      <g transform="translate(71.5475 257.578594)scale(0.18 -0.18)">
       <use xlink:href="#DejaVuSans-48"/>
      </g>
     </g>
    </g>
    <g id="ytick_5">
     <g id="line2d_11">
      <g>
       <use style="stroke:#000000;stroke-width:0.8;" x="90" xlink:href="#mf7eb8462bb" y="187.32"/>
      </g>
     </g>
     <g id="text_11">
      <!-- 1 -->
      <g transform="translate(71.5475 194.158594)scale(0.18 -0.18)">
       <use xlink:href="#DejaVuSans-49"/>
      </g>
     </g>
    </g>
    <g id="ytick_6">
     <g id="line2d_12">
      <g>
       <use style="stroke:#000000;stroke-width:0.8;" x="90" xlink:href="#mf7eb8462bb" y="123.9"/>
      </g>
     </g>
     <g id="text_12">
      <!-- 2 -->
      <g transform="translate(71.5475 130.738594)scale(0.18 -0.18)">
       <use xlink:href="#DejaVuSans-50"/>
      </g>
     </g>
    </g>
    <g id="ytick_7">
     <g id="line2d_13">
      <g>
       <use style="stroke:#000000;stroke-width:0.8;" x="90" xlink:href="#mf7eb8462bb" y="60.48"/>
      </g>
     </g>
     <g id="text_13">
      <!-- 3 -->
      <g transform="translate(71.5475 67.318594)scale(0.18 -0.18)">
       <use xlink:href="#DejaVuSans-51"/>
      </g>
     </g>
    </g>
   </g>
   <g id="line2d_14">
    <path clip-path="url(#p1ba84d4c0d)" d="M 115.363636 113.564849 
L 116.380215 120.676236 
L 118.413372 137.631407 
L 121.463108 164.541037 
L 123.496265 180.402988 
L 124.512844 187.063932 
L 125.529422 192.985803 
L 126.546001 197.920018 
L 127.56258 201.778958 
L 128.579158 204.733346 
L 129.595737 207.009871 
L 130.612316 208.43794 
L 131.628894 209.387225 
L 132.645473 209.568607 
L 133.662051 209.52365 
L 134.67863 209.134301 
L 135.695209 208.443611 
L 140.778102 203.317696 
L 143.827837 201.181487 
L 144.844416 200.772224 
L 145.860995 200.648757 
L 146.877573 200.76109 
L 147.894152 201.171599 
L 148.910731 201.949466 
L 149.927309 203.106019 
L 150.943888 204.769137 
L 152.977045 209.598926 
L 153.993624 212.769091 
L 156.026781 220.701672 
L 158.059938 229.954139 
L 161.109674 244.559694 
L 163.142831 252.778448 
L 164.15941 256.107996 
L 165.175988 258.76326 
L 166.192567 260.80445 
L 167.209146 262.000878 
L 168.225724 262.219038 
L 169.242303 261.794725 
L 170.258881 260.611908 
L 171.27546 259.098289 
L 172.292039 256.808033 
L 174.325196 251.39098 
L 176.358353 245.880159 
L 178.39151 241.414769 
L 179.408089 239.876928 
L 180.424668 238.746196 
L 181.441246 238.277979 
L 182.457825 238.330178 
L 183.474403 238.823404 
L 184.490982 239.967594 
L 185.507561 241.394749 
L 188.557296 246.613149 
L 189.573875 248.086239 
L 190.590454 249.170239 
L 191.607032 249.543633 
L 192.623611 249.211911 
L 193.640189 247.758204 
L 194.656768 245.128908 
L 195.673347 241.216321 
L 196.689925 235.867578 
L 197.706504 229.424098 
L 198.723083 221.336573 
L 199.739661 212.318573 
L 201.772818 191.058474 
L 206.855711 133.218919 
L 207.87229 123.541514 
L 208.888869 115.156761 
L 209.905447 108.457843 
L 210.922026 103.627854 
L 211.938604 100.607101 
L 212.955183 99.803153 
L 213.971762 100.813028 
L 214.98834 103.790579 
L 216.004919 108.604205 
L 217.021498 114.801532 
L 219.054655 130.678726 
L 224.137548 174.416534 
L 225.154126 181.862254 
L 226.170705 188.385365 
L 227.187284 193.979583 
L 228.203862 198.745872 
L 229.220441 202.488778 
L 230.237019 205.350771 
L 231.253598 207.518474 
L 232.270177 208.804908 
L 233.286755 209.487159 
L 234.303334 209.639986 
L 235.319913 209.324766 
L 236.336491 208.867225 
L 239.386227 206.237604 
L 243.452541 202.361161 
L 245.485699 201.11632 
L 246.502277 200.769161 
L 247.518856 200.707927 
L 248.535435 200.815539 
L 249.552013 201.358601 
L 250.568592 202.157287 
L 251.58517 203.515136 
L 252.601749 205.214566 
L 253.618328 207.480033 
L 254.634906 210.206192 
L 255.651485 213.578194 
L 257.684642 221.570741 
L 259.717799 230.949131 
L 263.784114 249.761636 
L 264.800692 253.554672 
L 265.817271 256.663161 
L 266.83385 259.361026 
L 267.850428 261.077799 
L 268.867007 262.161782 
L 269.883585 262.221867 
L 270.900164 261.549414 
L 271.916743 260.472713 
L 272.933321 258.513715 
L 273.9499 256.24845 
L 275.983057 250.902211 
L 278.016214 245.408162 
L 279.032793 242.988051 
L 280.049371 241.084617 
L 281.06595 239.636739 
L 282.082529 238.5959 
L 283.099107 238.155703 
L 285.132265 238.936841 
L 287.165422 241.654773 
L 291.231736 248.414699 
L 292.248315 249.247991 
L 293.264893 249.647779 
L 294.281472 248.879427 
L 295.298051 247.348146 
L 296.314629 244.383792 
L 297.331208 240.168403 
L 298.347786 234.732108 
L 299.364365 227.943221 
L 300.380944 219.700592 
L 302.414101 199.878289 
L 304.447258 176.931576 
L 307.496994 141.752228 
L 308.513573 131.133478 
L 309.530151 121.717179 
L 310.54673 113.584613 
L 311.563308 107.422659 
L 312.579887 102.872668 
L 313.596466 100.377725 
L 314.613044 100.008007 
L 315.629623 101.509865 
L 316.646201 104.696033 
L 317.66278 109.795304 
L 318.679359 116.352938 
L 320.712516 132.264206 
L 325.795409 175.982735 
L 326.811988 183.181445 
L 328.845145 195.083929 
L 329.861723 199.550987 
L 330.878302 203.07469 
L 331.894881 205.911071 
L 332.911459 207.816084 
L 333.928038 209.06822 
L 334.944617 209.666292 
L 335.961195 209.682686 
L 336.977774 209.285633 
L 339.010931 207.983338 
L 341.044088 205.928966 
L 343.077245 203.851578 
L 344.093824 203.112141 
L 345.110403 202.204305 
L 346.126981 201.517529 
L 348.160138 200.609167 
L 350.193296 200.854847 
L 351.209874 201.390223 
L 352.226453 202.341361 
L 353.243032 203.595319 
L 354.25961 205.550868 
L 355.276189 207.971373 
L 356.292767 210.870438 
L 357.309346 214.298494 
L 359.342503 222.388925 
L 362.392239 236.661405 
L 364.425396 246.167657 
L 365.441975 250.470134 
L 367.475132 257.423269 
L 368.491711 259.752447 
L 369.508289 261.379196 
L 370.524868 262.088556 
L 371.541447 262.134318 
L 372.558025 261.556009 
L 373.574604 260.018016 
L 374.591182 258.111364 
L 376.62434 252.939609 
L 379.674075 245.025904 
L 380.690654 242.66908 
L 381.707233 240.789788 
L 382.723811 239.296119 
L 383.74039 238.630805 
L 384.756968 238.20721 
L 385.773547 238.402843 
L 386.790126 239.226162 
L 388.823283 241.991401 
L 391.873019 247.292079 
L 392.889597 248.525966 
L 393.906176 249.435344 
L 394.922755 249.449984 
L 395.939333 248.644098 
L 396.955912 246.87578 
L 397.97249 243.707847 
L 398.989069 239.313963 
L 400.005648 233.526246 
L 401.022226 226.334953 
L 402.038805 217.827391 
L 404.071962 197.893675 
L 410.171434 129.19635 
L 411.188012 119.975356 
L 412.204591 112.208598 
L 413.22117 106.225195 
L 414.237748 102.104005 
L 415.254327 100.109176 
L 416.270905 100.035265 
L 417.287484 101.900611 
L 418.304063 105.560934 
L 419.320641 110.911988 
L 420.33722 117.627727 
L 421.353799 125.39518 
L 427.45327 177.291251 
L 428.469849 184.531838 
L 429.486427 190.664697 
L 430.503006 196.013493 
L 431.519585 200.302519 
L 432.536163 203.807081 
L 433.552742 206.25145 
L 434.56932 207.972194 
L 435.585899 209.118355 
L 436.602478 209.67753 
L 437.619056 209.664625 
L 438.635635 209.225325 
L 439.652214 208.512946 
L 442.701949 205.775719 
L 445.751685 202.834844 
L 447.784842 201.466032 
L 448.801421 200.885516 
L 450.834578 200.66589 
L 451.851157 201.018835 
L 452.867735 201.625818 
L 453.884314 202.652452 
L 454.900893 204.129447 
L 455.917471 206.011419 
L 456.93405 208.555039 
L 457.950629 211.537522 
L 458.967207 214.997513 
L 459.983786 218.950141 
L 462.016943 227.916207 
L 465.066679 242.642503 
L 467.099836 251.169956 
L 468.116415 254.872805 
L 469.132993 257.840683 
L 470.149572 260.041179 
L 471.16615 261.567531 
L 472.182729 262.181259 
L 473.199308 262.044355 
L 474.215886 261.174038 
L 475.232465 259.659736 
L 476.249044 257.679763 
L 478.282201 252.515778 
L 480.315358 247.037436 
L 481.331937 244.506044 
L 482.348515 242.33 
L 483.365094 240.468685 
L 484.381672 239.207792 
L 485.398251 238.488043 
L 486.41483 238.204493 
L 487.431408 238.562644 
L 488.447987 239.385492 
L 490.481144 242.386329 
L 493.53088 247.490886 
L 494.547459 248.900216 
L 495.564037 249.587018 
L 496.580616 249.374208 
L 497.597194 248.415561 
L 498.613773 246.242361 
L 499.630352 242.869524 
L 500.64693 238.245796 
L 501.663509 232.163949 
L 502.680087 224.900032 
L 504.713245 206.342021 
L 506.746402 184.072829 
L 510.812716 137.466513 
L 511.829295 127.14502 
L 512.845874 118.191301 
L 513.862452 110.97355 
L 514.879031 105.254474 
L 515.895609 101.594962 
L 516.912188 99.935509 
L 517.928767 100.314265 
L 518.945345 102.501858 
L 519.961924 106.549413 
L 520.978502 112.236029 
L 521.995081 119.175656 
L 524.028238 135.893674 
L 528.094553 171.233119 
L 530.12771 185.785204 
L 531.144289 191.891015 
L 532.160867 196.939276 
L 533.177446 201.137042 
L 534.194024 204.33604 
L 535.210603 206.713884 
L 536.227182 208.259094 
L 537.24376 209.304833 
L 538.260339 209.701235 
L 540.293496 209.155066 
L 541.310075 208.614716 
L 543.343232 206.555723 
L 548.426125 201.74559 
L 550.459282 200.965273 
L 551.475861 200.646365 
L 552.492439 200.72504 
L 553.509018 200.99997 
L 554.525597 201.676806 
L 556.558754 204.473567 
L 557.575332 206.526311 
L 558.591911 209.022285 
L 559.60849 212.123167 
L 560.625068 215.756181 
L 562.658226 224.275758 
L 568.757697 252.08514 
L 569.774276 255.619348 
L 570.790854 258.364 
L 571.807433 260.586906 
L 572.824012 261.756713 
L 573.84059 262.330324 
L 574.857169 261.920031 
L 575.873747 260.841507 
L 576.890326 259.40458 
L 578.923483 254.691516 
L 582.989798 243.946433 
L 584.006376 241.887051 
L 585.022955 240.212789 
L 586.039534 239.113894 
L 587.056112 238.368296 
L 588.072691 238.300391 
L 589.089269 238.768365 
L 590.105848 239.728819 
L 591.122427 240.948121 
L 595.188741 247.967134 
L 596.20532 248.993355 
L 597.221898 249.53182 
L 598.238477 249.301087 
L 599.255056 248.10477 
L 600.271634 245.737543 
L 601.288213 242.007288 
L 602.304791 237.141746 
L 603.32137 230.774886 
L 604.337949 223.12724 
L 605.354527 214.24698 
L 607.387684 193.270523 
L 612.470578 135.194777 
L 613.487156 125.312634 
L 614.503735 116.634038 
L 615.520313 109.590089 
L 616.536892 104.389452 
L 617.553471 101.094572 
L 618.570049 99.856426 
L 619.586628 100.539499 
L 620.603206 103.267191 
L 621.619785 107.596614 
L 622.636364 113.574972 
L 622.636364 113.574972 
" style="fill:none;stroke:#808080;stroke-linecap:square;stroke-opacity:0.5;stroke-width:2;"/>
   </g>
   <g id="line2d_15">
    <path clip-path="url(#p1ba84d4c0d)" d="M 115.363636 243.704697 
L 116.380215 244.676762 
L 117.396794 245.418571 
L 118.413372 245.993656 
L 119.429951 246.346724 
L 120.446529 246.47851 
L 122.479687 246.042796 
L 123.496265 245.33977 
L 127.56258 241.657896 
L 128.579158 240.916416 
L 129.595737 240.421688 
L 130.612316 240.254689 
L 131.628894 240.544101 
L 132.645473 241.210173 
L 133.662051 242.456688 
L 134.67863 244.092891 
L 135.695209 246.344386 
L 136.711787 248.936505 
L 137.728366 251.873679 
L 141.79468 265.8397 
L 143.827837 272.777312 
L 144.844416 275.905921 
L 146.877573 281.069568 
L 147.894152 283.250568 
L 148.910731 285.026682 
L 150.943888 287.868271 
L 152.977045 289.49928 
L 153.993624 289.991132 
L 155.010202 290.196355 
L 156.026781 290.202138 
L 157.043359 290.042782 
L 158.059938 289.599123 
L 159.076517 288.925639 
L 160.093095 288.107262 
L 161.109674 286.984497 
L 162.126253 285.637032 
L 164.15941 282.322952 
L 167.209146 275.963973 
L 169.242303 270.618823 
L 170.258881 267.87617 
L 174.325196 254.152203 
L 179.408089 235.685273 
L 182.457825 226.080232 
L 184.490982 220.719061 
L 185.507561 218.740795 
L 187.540718 215.614678 
L 188.557296 214.584002 
L 189.573875 213.778424 
L 191.607032 213.05723 
L 192.623611 213.184216 
L 194.656768 213.996715 
L 197.706504 216.077893 
L 200.75624 219.288775 
L 202.789397 221.935099 
L 203.805976 223.610784 
L 204.822554 224.968146 
L 208.888869 231.816801 
L 209.905447 233.643606 
L 214.98834 241.39761 
L 216.004919 242.825021 
L 219.054655 245.653854 
L 221.087812 246.439203 
L 223.120969 246.339394 
L 225.154126 245.164902 
L 226.170705 244.126592 
L 227.187284 243.430114 
L 228.203862 242.341131 
L 229.220441 241.523697 
L 230.237019 240.852161 
L 231.253598 240.381978 
L 232.270177 240.239582 
L 233.286755 240.598399 
L 234.303334 241.414121 
L 235.319913 242.796921 
L 236.336491 244.514166 
L 237.35307 246.720389 
L 239.386227 252.564107 
L 241.419384 259.572099 
L 245.485699 273.431811 
L 247.518856 279.100352 
L 248.535435 281.585567 
L 250.568592 285.416112 
L 251.58517 286.867319 
L 252.601749 288.095695 
L 253.618328 289.023116 
L 254.634906 289.665171 
L 255.651485 290.022151 
L 256.668063 290.197755 
L 257.684642 290.194373 
L 258.701221 290.002876 
L 259.717799 289.522086 
L 260.734378 288.855459 
L 262.767535 286.635855 
L 264.800692 283.719945 
L 265.817271 282.011993 
L 267.850428 277.718617 
L 268.867007 275.515918 
L 270.900164 270.062457 
L 271.916743 267.188656 
L 273.9499 260.667841 
L 279.032793 242.312953 
L 281.06595 234.954177 
L 283.099107 228.402726 
L 285.132265 222.821743 
L 286.148843 220.385843 
L 288.182 216.584725 
L 289.198579 215.38421 
L 290.215158 214.400788 
L 292.248315 213.327684 
L 294.281472 213.15904 
L 297.331208 214.757761 
L 298.347786 215.448046 
L 299.364365 216.322699 
L 302.414101 219.627817 
L 303.43068 220.801751 
L 305.463837 223.662719 
L 308.513573 228.674478 
L 312.579887 235.785014 
L 313.596466 237.169951 
L 314.613044 238.883742 
L 317.66278 243.020026 
L 319.695937 244.90217 
L 320.712516 245.775699 
L 321.729095 246.296431 
L 323.762252 246.508689 
L 324.77883 246.184602 
L 326.811988 245.036967 
L 329.861723 242.288398 
L 330.878302 241.378241 
L 331.894881 240.645729 
L 332.911459 240.267843 
L 333.928038 240.280642 
L 334.944617 240.70707 
L 335.961195 241.716413 
L 336.977774 243.037142 
L 337.994352 244.927495 
L 339.010931 247.330392 
L 340.02751 250.067417 
L 344.093824 263.6168 
L 346.126981 270.8143 
L 348.160138 276.83866 
L 349.176717 279.700382 
L 351.209874 284.086827 
L 352.226453 285.75213 
L 353.243032 287.1401 
L 354.25961 288.198804 
L 355.276189 289.030458 
L 356.292767 289.659132 
L 357.309346 289.959076 
L 359.342503 290.16928 
L 360.359082 289.907324 
L 361.37566 289.344222 
L 362.392239 288.571303 
L 363.408818 287.626998 
L 365.441975 285.02976 
L 367.475132 281.645011 
L 369.508289 277.384992 
L 371.541447 272.350376 
L 373.574604 266.53863 
L 376.62434 256.401084 
L 378.657497 249.027335 
L 382.723811 234.32994 
L 384.756968 227.911532 
L 386.790126 222.281668 
L 387.806704 219.915355 
L 388.823283 218.035011 
L 389.839862 216.424378 
L 390.85644 215.145944 
L 392.889597 213.555852 
L 393.906176 213.164072 
L 395.939333 213.296226 
L 396.955912 213.59621 
L 400.005648 215.655495 
L 401.022226 216.475173 
L 402.038805 217.629753 
L 403.055383 218.53572 
L 404.071962 219.924297 
L 405.088541 221.116331 
L 408.138277 225.609189 
L 410.171434 229.090495 
L 416.270905 239.292884 
L 420.33722 244.306766 
L 421.353799 245.267903 
L 422.370377 245.875038 
L 423.386956 246.258618 
L 424.403534 246.520004 
L 425.420113 246.417365 
L 426.436692 246.096109 
L 427.45327 245.646444 
L 430.503006 243.087125 
L 431.519585 241.990876 
L 432.536163 241.15302 
L 433.552742 240.617893 
L 434.56932 240.303139 
L 435.585899 240.363545 
L 436.602478 240.828314 
L 437.619056 241.888889 
L 438.635635 243.299326 
L 439.652214 245.349827 
L 440.668792 247.7372 
L 441.685371 250.635146 
L 443.718528 257.332949 
L 447.784842 271.478598 
L 449.818 277.608457 
L 450.834578 280.173447 
L 451.851157 282.42243 
L 453.884314 285.96173 
L 454.900893 287.466112 
L 456.93405 289.284561 
L 459.983786 290.39564 
L 461.000364 289.972294 
L 462.016943 289.687111 
L 463.033522 289.104008 
L 464.0501 288.386924 
L 466.083257 286.221377 
L 467.099836 284.786754 
L 468.116415 283.117413 
L 470.149572 279.247594 
L 472.182729 274.472399 
L 474.215886 268.948105 
L 476.249044 262.625123 
L 478.282201 255.496232 
L 481.331937 244.466446 
L 483.365094 237.164879 
L 485.398251 230.34895 
L 487.431408 224.352043 
L 488.447987 221.728253 
L 490.481144 217.685863 
L 491.497723 216.13548 
L 492.514301 214.989752 
L 493.53088 214.078406 
L 494.547459 213.427067 
L 495.564037 213.126137 
L 496.580616 213.203133 
L 497.597194 213.517604 
L 498.613773 213.605598 
L 499.630352 214.462513 
L 500.64693 215.020456 
L 502.680087 216.718913 
L 505.729823 220.142874 
L 508.779559 224.421941 
L 510.812716 227.616283 
L 513.862452 232.841212 
L 516.912188 237.984233 
L 519.961924 242.35889 
L 521.995081 244.554754 
L 524.028238 245.942895 
L 525.044817 246.337373 
L 526.061396 246.478783 
L 527.077974 246.47943 
L 528.094553 246.103777 
L 530.12771 244.695688 
L 534.194024 241.065117 
L 535.210603 240.529319 
L 536.227182 240.341915 
L 537.24376 240.426768 
L 538.260339 241.001893 
L 539.276917 242.081847 
L 540.293496 243.674689 
L 542.326653 248.244188 
L 544.359811 254.573989 
L 547.409546 265.272643 
L 550.459282 275.322918 
L 551.475861 278.192911 
L 552.492439 280.666206 
L 553.509018 282.837514 
L 554.525597 284.726457 
L 555.542175 286.296666 
L 557.575332 288.632755 
L 558.591911 289.465035 
L 560.625068 290.192723 
L 562.658226 290.072348 
L 564.691383 289.117004 
L 565.707961 288.288038 
L 568.757697 284.459855 
L 570.790854 280.912087 
L 572.824012 276.475645 
L 574.857169 271.151366 
L 575.873747 268.414364 
L 577.906905 261.874919 
L 580.956641 251.196327 
L 585.022955 236.421748 
L 587.056112 229.782832 
L 589.089269 223.829198 
L 590.105848 221.339206 
L 591.122427 219.144275 
L 592.139005 217.405648 
L 594.172163 214.65779 
L 595.188741 213.857498 
L 597.221898 213.155704 
L 598.238477 213.205485 
L 599.255056 213.415595 
L 600.271634 213.88541 
L 603.32137 215.990611 
L 605.354527 217.919897 
L 608.404263 221.554569 
L 610.43742 224.662327 
L 613.487156 229.643497 
L 617.553471 236.642774 
L 619.586628 239.836906 
L 622.636364 243.631093 
L 622.636364 243.631093 
" style="fill:none;stroke:#808080;stroke-linecap:square;stroke-opacity:0.5;stroke-width:2;"/>
   </g>
   <g id="line2d_16">
    <path clip-path="url(#p1ba84d4c0d)" d="M 115.363636 294.257396 
L 117.396794 299.705685 
L 118.413372 302.060504 
L 120.446529 305.969224 
L 124.512844 312.646831 
L 132.645473 324.379568 
L 134.67863 326.878503 
L 136.711787 328.925518 
L 137.728366 329.407376 
L 138.744944 329.587355 
L 139.761523 329.483425 
L 140.778102 328.811638 
L 141.79468 327.527369 
L 142.811259 325.776867 
L 143.827837 323.422544 
L 144.844416 320.726609 
L 146.877573 313.724413 
L 150.943888 298.294749 
L 151.960466 294.780946 
L 152.977045 292.12524 
L 153.993624 289.87603 
L 155.010202 288.228439 
L 156.026781 287.335075 
L 157.043359 287.253483 
L 158.059938 287.762738 
L 159.076517 288.676383 
L 160.093095 290.078731 
L 163.142831 295.267194 
L 164.15941 296.922448 
L 165.175988 298.109981 
L 166.192567 299.02648 
L 167.209146 299.305462 
L 168.225724 299.225645 
L 169.242303 298.391605 
L 170.258881 297.295748 
L 172.292039 293.74298 
L 175.341774 286.53118 
L 178.39151 279.347159 
L 180.424668 274.951622 
L 184.490982 266.94002 
L 187.540718 259.994996 
L 190.590454 251.863063 
L 193.640189 243.770854 
L 195.673347 239.175569 
L 196.689925 237.456135 
L 197.706504 236.163478 
L 198.723083 235.71403 
L 199.739661 235.595663 
L 200.75624 236.08197 
L 201.772818 237.302085 
L 202.789397 239.259276 
L 203.805976 241.824931 
L 204.822554 244.95795 
L 205.839133 248.698266 
L 207.87229 257.319549 
L 212.955183 280.419019 
L 214.98834 288.454276 
L 217.021498 294.956037 
L 218.038076 297.824324 
L 221.087812 304.4725 
L 224.137548 309.690597 
L 225.154126 311.385782 
L 234.303334 324.553748 
L 235.319913 325.899486 
L 237.35307 328.165993 
L 238.369648 329.004516 
L 239.386227 329.494601 
L 240.402806 329.553249 
L 241.419384 329.398614 
L 242.435963 328.597408 
L 243.452541 327.206211 
L 244.46912 325.401934 
L 246.502277 320.145098 
L 248.535435 312.943585 
L 252.601749 297.451096 
L 254.634906 291.518151 
L 255.651485 289.372863 
L 256.668063 287.968133 
L 257.684642 287.237139 
L 258.701221 287.246471 
L 259.717799 287.847448 
L 260.734378 288.942106 
L 262.767535 292.079558 
L 264.800692 295.749063 
L 266.83385 298.398206 
L 267.850428 299.044647 
L 268.867007 299.239978 
L 269.883585 299.058459 
L 270.900164 298.256839 
L 271.916743 297.014591 
L 273.9499 293.309187 
L 281.06595 276.690443 
L 288.182 261.841508 
L 290.215158 256.878554 
L 295.298051 243.178391 
L 297.331208 238.835296 
L 298.347786 237.21023 
L 299.364365 235.939853 
L 300.380944 235.561416 
L 301.397522 235.575294 
L 302.414101 236.217145 
L 303.43068 237.685823 
L 304.447258 239.760622 
L 305.463837 242.373871 
L 307.496994 249.465828 
L 309.530151 258.34833 
L 313.596466 276.942271 
L 315.629623 285.275112 
L 316.646201 289.125775 
L 318.679359 295.521236 
L 320.712516 300.60459 
L 321.729095 302.966348 
L 324.77883 308.481964 
L 329.861723 316.260565 
L 334.944617 323.547495 
L 337.994352 327.367159 
L 339.010931 328.334881 
L 340.02751 329.06062 
L 341.044088 329.534649 
L 342.060667 329.668139 
L 343.077245 329.271136 
L 344.093824 328.293665 
L 345.110403 326.865111 
L 346.126981 324.975686 
L 348.160138 319.431367 
L 350.193296 312.345657 
L 353.243032 300.414062 
L 354.25961 296.830616 
L 356.292767 290.922764 
L 357.309346 288.990216 
L 358.325925 287.829191 
L 359.342503 287.247199 
L 360.359082 287.213618 
L 361.37566 287.964009 
L 362.392239 289.065642 
L 367.475132 297.44779 
L 368.491711 298.585365 
L 369.508289 299.208164 
L 370.524868 299.330816 
L 371.541447 299.070052 
L 372.558025 298.095078 
L 373.574604 296.679023 
L 374.591182 294.912848 
L 377.640918 288.019893 
L 380.690654 280.753352 
L 382.723811 276.232211 
L 387.806704 266.051629 
L 389.839862 261.381072 
L 391.873019 256.27059 
L 396.955912 242.669927 
L 398.989069 238.363039 
L 400.005648 236.830004 
L 401.022226 235.903372 
L 402.038805 235.448067 
L 403.055383 235.733478 
L 404.071962 236.652478 
L 405.088541 237.954037 
L 406.105119 240.061948 
L 407.121698 243.005349 
L 409.154855 250.357847 
L 411.188012 259.155366 
L 416.270905 282.007598 
L 418.304063 289.717773 
L 419.320641 293.108716 
L 420.33722 296.081327 
L 422.370377 301.055421 
L 423.386956 303.445497 
L 426.436692 308.81833 
L 431.519585 316.613442 
L 432.536163 317.970667 
L 433.552742 319.541858 
L 435.585899 322.294824 
L 437.619056 325.139264 
L 438.635635 326.420194 
L 440.668792 328.570028 
L 441.685371 329.198323 
L 442.701949 329.623117 
L 443.718528 329.569684 
L 444.735107 329.024022 
L 445.751685 328.186386 
L 446.768264 326.590605 
L 447.784842 324.572484 
L 448.801421 321.886885 
L 450.834578 315.174184 
L 455.917471 296.282541 
L 456.93405 293.130885 
L 457.950629 290.591322 
L 458.967207 288.792636 
L 459.983786 287.713028 
L 461.000364 287.13235 
L 462.016943 287.402946 
L 463.033522 288.207385 
L 464.0501 289.449566 
L 469.132993 297.830772 
L 470.149572 298.76242 
L 471.16615 299.193771 
L 472.182729 299.279353 
L 473.199308 298.737857 
L 474.215886 297.834287 
L 475.232465 296.335667 
L 477.265622 292.390363 
L 480.315358 285.099045 
L 482.348515 280.211331 
L 484.381672 275.717617 
L 487.431408 269.843396 
L 492.514301 258.39684 
L 498.613773 242.16268 
L 499.630352 239.976357 
L 500.64693 238.162873 
L 501.663509 236.749277 
L 502.680087 235.871905 
L 503.696666 235.584361 
L 504.713245 235.823253 
L 505.729823 236.739069 
L 506.746402 238.441171 
L 507.762981 240.73012 
L 508.779559 243.767045 
L 509.796138 247.178992 
L 511.829295 255.469378 
L 517.928767 283.031456 
L 519.961924 290.440139 
L 520.978502 293.686102 
L 523.01166 299.179762 
L 525.044817 303.64026 
L 527.077974 307.434778 
L 528.094553 309.063222 
L 529.111131 310.904801 
L 530.12771 312.25436 
L 533.177446 316.883934 
L 535.210603 319.705355 
L 539.276917 325.472407 
L 541.310075 327.896129 
L 542.326653 328.74662 
L 544.359811 329.63818 
L 545.376389 329.520222 
L 546.392968 328.858065 
L 547.409546 327.791869 
L 548.426125 326.170756 
L 549.442704 323.995447 
L 550.459282 321.329198 
L 551.475861 318.093447 
L 553.509018 310.500628 
L 557.575332 295.437705 
L 558.591911 292.584712 
L 559.60849 290.184062 
L 560.625068 288.479205 
L 561.641647 287.472245 
L 562.658226 287.196272 
L 563.674804 287.476606 
L 564.691383 288.507868 
L 565.707961 289.782274 
L 567.741119 293.22345 
L 568.757697 295.106614 
L 569.774276 296.72049 
L 570.790854 298.0255 
L 571.807433 298.874542 
L 572.824012 299.392064 
L 573.84059 299.116613 
L 574.857169 298.713169 
L 575.873747 297.644909 
L 576.890326 296.000918 
L 578.923483 291.981638 
L 586.039534 275.252163 
L 590.105848 267.28277 
L 593.155584 260.472841 
L 596.20532 252.419131 
L 599.255056 244.296977 
L 600.271634 241.753792 
L 601.288213 239.521921 
L 602.304791 237.740153 
L 603.32137 236.531378 
L 604.337949 235.69274 
L 605.354527 235.43648 
L 606.371106 235.870868 
L 607.387684 237.076328 
L 608.404263 238.774293 
L 610.43742 244.21672 
L 613.487156 256.297764 
L 619.586628 283.702369 
L 621.619785 291.163567 
L 622.636364 294.272102 
L 622.636364 294.272102 
" style="fill:none;stroke:#808080;stroke-linecap:square;stroke-opacity:0.5;stroke-width:2;"/>
   </g>
   <g id="patch_3">
    <path d="M 90 441 
L 90 60.48 
" style="fill:none;stroke:#000000;stroke-linecap:square;stroke-linejoin:miter;stroke-width:0.8;"/>
   </g>
   <g id="patch_4">
    <path d="M 90 441 
L 648 441 
" style="fill:none;stroke:#000000;stroke-linecap:square;stroke-linejoin:miter;stroke-width:0.8;"/>
   </g>
   <g id="legend_1">
    <g id="patch_5">
     <path d="M 102.6 432 
L 282.9825 432 
Q 286.5825 432 286.5825 428.4 
L 286.5825 403.779375 
Q 286.5825 400.179375 282.9825 400.179375 
L 102.6 400.179375 
Q 99 400.179375 99 403.779375 
L 99 428.4 
Q 99 432 102.6 432 
z
" style="fill:#ffffff;opacity:0.8;stroke:#cccccc;stroke-linejoin:miter;"/>
    </g>
    <g id="line2d_17">
     <path d="M 106.2 414.756562 
L 142.2 414.756562 
" style="fill:none;stroke:#808080;stroke-linecap:square;stroke-opacity:0.5;stroke-width:2;"/>
    </g>
    <g id="line2d_18"/>
    <g id="text_14">
     <!-- prior samples -->
     <g transform="translate(156.6 421.056562)scale(0.18 -0.18)">
      <defs>
       <path d="M 18.109375 8.203125 
L 18.109375 -20.796875 
L 9.078125 -20.796875 
L 9.078125 54.6875 
L 18.109375 54.6875 
L 18.109375 46.390625 
Q 20.953125 51.265625 25.265625 53.625 
Q 29.59375 56 35.59375 56 
Q 45.5625 56 51.78125 48.09375 
Q 58.015625 40.1875 58.015625 27.296875 
Q 58.015625 14.40625 51.78125 6.484375 
Q 45.5625 -1.421875 35.59375 -1.421875 
Q 29.59375 -1.421875 25.265625 0.953125 
Q 20.953125 3.328125 18.109375 8.203125 
z
M 48.6875 27.296875 
Q 48.6875 37.203125 44.609375 42.84375 
Q 40.53125 48.484375 33.40625 48.484375 
Q 26.265625 48.484375 22.1875 42.84375 
Q 18.109375 37.203125 18.109375 27.296875 
Q 18.109375 17.390625 22.1875 11.75 
Q 26.265625 6.109375 33.40625 6.109375 
Q 40.53125 6.109375 44.609375 11.75 
Q 48.6875 17.390625 48.6875 27.296875 
z
" id="DejaVuSans-112"/>
       <path d="M 41.109375 46.296875 
Q 39.59375 47.171875 37.8125 47.578125 
Q 36.03125 48 33.890625 48 
Q 26.265625 48 22.1875 43.046875 
Q 18.109375 38.09375 18.109375 28.8125 
L 18.109375 0 
L 9.078125 0 
L 9.078125 54.6875 
L 18.109375 54.6875 
L 18.109375 46.1875 
Q 20.953125 51.171875 25.484375 53.578125 
Q 30.03125 56 36.53125 56 
Q 37.453125 56 38.578125 55.875 
Q 39.703125 55.765625 41.0625 55.515625 
z
" id="DejaVuSans-114"/>
       <path d="M 9.421875 54.6875 
L 18.40625 54.6875 
L 18.40625 0 
L 9.421875 0 
z
M 9.421875 75.984375 
L 18.40625 75.984375 
L 18.40625 64.59375 
L 9.421875 64.59375 
z
" id="DejaVuSans-105"/>
       <path d="M 30.609375 48.390625 
Q 23.390625 48.390625 19.1875 42.75 
Q 14.984375 37.109375 14.984375 27.296875 
Q 14.984375 17.484375 19.15625 11.84375 
Q 23.34375 6.203125 30.609375 6.203125 
Q 37.796875 6.203125 41.984375 11.859375 
Q 46.1875 17.53125 46.1875 27.296875 
Q 46.1875 37.015625 41.984375 42.703125 
Q 37.796875 48.390625 30.609375 48.390625 
z
M 30.609375 56 
Q 42.328125 56 49.015625 48.375 
Q 55.71875 40.765625 55.71875 27.296875 
Q 55.71875 13.875 49.015625 6.21875 
Q 42.328125 -1.421875 30.609375 -1.421875 
Q 18.84375 -1.421875 12.171875 6.21875 
Q 5.515625 13.875 5.515625 27.296875 
Q 5.515625 40.765625 12.171875 48.375 
Q 18.84375 56 30.609375 56 
z
" id="DejaVuSans-111"/>
       <path id="DejaVuSans-32"/>
       <path d="M 44.28125 53.078125 
L 44.28125 44.578125 
Q 40.484375 46.53125 36.375 47.5 
Q 32.28125 48.484375 27.875 48.484375 
Q 21.1875 48.484375 17.84375 46.4375 
Q 14.5 44.390625 14.5 40.28125 
Q 14.5 37.15625 16.890625 35.375 
Q 19.28125 33.59375 26.515625 31.984375 
L 29.59375 31.296875 
Q 39.15625 29.25 43.1875 25.515625 
Q 47.21875 21.78125 47.21875 15.09375 
Q 47.21875 7.46875 41.1875 3.015625 
Q 35.15625 -1.421875 24.609375 -1.421875 
Q 20.21875 -1.421875 15.453125 -0.5625 
Q 10.6875 0.296875 5.421875 2 
L 5.421875 11.28125 
Q 10.40625 8.6875 15.234375 7.390625 
Q 20.0625 6.109375 24.8125 6.109375 
Q 31.15625 6.109375 34.5625 8.28125 
Q 37.984375 10.453125 37.984375 14.40625 
Q 37.984375 18.0625 35.515625 20.015625 
Q 33.0625 21.96875 24.703125 23.78125 
L 21.578125 24.515625 
Q 13.234375 26.265625 9.515625 29.90625 
Q 5.8125 33.546875 5.8125 39.890625 
Q 5.8125 47.609375 11.28125 51.796875 
Q 16.75 56 26.8125 56 
Q 31.78125 56 36.171875 55.265625 
Q 40.578125 54.546875 44.28125 53.078125 
z
" id="DejaVuSans-115"/>
       <path d="M 34.28125 27.484375 
Q 23.390625 27.484375 19.1875 25 
Q 14.984375 22.515625 14.984375 16.5 
Q 14.984375 11.71875 18.140625 8.90625 
Q 21.296875 6.109375 26.703125 6.109375 
Q 34.1875 6.109375 38.703125 11.40625 
Q 43.21875 16.703125 43.21875 25.484375 
L 43.21875 27.484375 
z
M 52.203125 31.203125 
L 52.203125 0 
L 43.21875 0 
L 43.21875 8.296875 
Q 40.140625 3.328125 35.546875 0.953125 
Q 30.953125 -1.421875 24.3125 -1.421875 
Q 15.921875 -1.421875 10.953125 3.296875 
Q 6 8.015625 6 15.921875 
Q 6 25.140625 12.171875 29.828125 
Q 18.359375 34.515625 30.609375 34.515625 
L 43.21875 34.515625 
L 43.21875 35.40625 
Q 43.21875 41.609375 39.140625 45 
Q 35.0625 48.390625 27.6875 48.390625 
Q 23 48.390625 18.546875 47.265625 
Q 14.109375 46.140625 10.015625 43.890625 
L 10.015625 52.203125 
Q 14.9375 54.109375 19.578125 55.046875 
Q 24.21875 56 28.609375 56 
Q 40.484375 56 46.34375 49.84375 
Q 52.203125 43.703125 52.203125 31.203125 
z
" id="DejaVuSans-97"/>
       <path d="M 52 44.1875 
Q 55.375 50.25 60.0625 53.125 
Q 64.75 56 71.09375 56 
Q 79.640625 56 84.28125 50.015625 
Q 88.921875 44.046875 88.921875 33.015625 
L 88.921875 0 
L 79.890625 0 
L 79.890625 32.71875 
Q 79.890625 40.578125 77.09375 44.375 
Q 74.3125 48.1875 68.609375 48.1875 
Q 61.625 48.1875 57.5625 43.546875 
Q 53.515625 38.921875 53.515625 30.90625 
L 53.515625 0 
L 44.484375 0 
L 44.484375 32.71875 
Q 44.484375 40.625 41.703125 44.40625 
Q 38.921875 48.1875 33.109375 48.1875 
Q 26.21875 48.1875 22.15625 43.53125 
Q 18.109375 38.875 18.109375 30.90625 
L 18.109375 0 
L 9.078125 0 
L 9.078125 54.6875 
L 18.109375 54.6875 
L 18.109375 46.1875 
Q 21.1875 51.21875 25.484375 53.609375 
Q 29.78125 56 35.6875 56 
Q 41.65625 56 45.828125 52.96875 
Q 50 49.953125 52 44.1875 
z
" id="DejaVuSans-109"/>
       <path d="M 9.421875 75.984375 
L 18.40625 75.984375 
L 18.40625 0 
L 9.421875 0 
z
" id="DejaVuSans-108"/>
       <path d="M 56.203125 29.59375 
L 56.203125 25.203125 
L 14.890625 25.203125 
Q 15.484375 15.921875 20.484375 11.0625 
Q 25.484375 6.203125 34.421875 6.203125 
Q 39.59375 6.203125 44.453125 7.46875 
Q 49.3125 8.734375 54.109375 11.28125 
L 54.109375 2.78125 
Q 49.265625 0.734375 44.1875 -0.34375 
Q 39.109375 -1.421875 33.890625 -1.421875 
Q 20.796875 -1.421875 13.15625 6.1875 
Q 5.515625 13.8125 5.515625 26.8125 
Q 5.515625 40.234375 12.765625 48.109375 
Q 20.015625 56 32.328125 56 
Q 43.359375 56 49.78125 48.890625 
Q 56.203125 41.796875 56.203125 29.59375 
z
M 47.21875 32.234375 
Q 47.125 39.59375 43.09375 43.984375 
Q 39.0625 48.390625 32.421875 48.390625 
Q 24.90625 48.390625 20.390625 44.140625 
Q 15.875 39.890625 15.1875 32.171875 
z
" id="DejaVuSans-101"/>
      </defs>
      <use xlink:href="#DejaVuSans-112"/>
      <use x="63.476562" xlink:href="#DejaVuSans-114"/>
      <use x="104.589844" xlink:href="#DejaVuSans-105"/>
      <use x="132.373047" xlink:href="#DejaVuSans-111"/>
      <use x="193.554688" xlink:href="#DejaVuSans-114"/>
      <use x="234.667969" xlink:href="#DejaVuSans-32"/>
      <use x="266.455078" xlink:href="#DejaVuSans-115"/>
      <use x="318.554688" xlink:href="#DejaVuSans-97"/>
      <use x="379.833984" xlink:href="#DejaVuSans-109"/>
      <use x="477.246094" xlink:href="#DejaVuSans-112"/>
      <use x="540.722656" xlink:href="#DejaVuSans-108"/>
      <use x="568.505859" xlink:href="#DejaVuSans-101"/>
      <use x="630.029297" xlink:href="#DejaVuSans-115"/>
     </g>
    </g>
   </g>
  </g>
 </g>
 <defs>
  <clipPath id="p1ba84d4c0d">
   <rect height="380.52" width="558" x="90" y="60.48"/>
  </clipPath>
 </defs>
</svg>
